<svg xmlns="http://www.w3.org/2000/svg" xmlns:xlink="http://www.w3.org/1999/xlink" viewBox="0 0 186.99 186.99"><defs><style>.cls-1,.cls-43{fill:none;}.cls-2,.cls-40{fill:#465faa;}.cls-2{opacity:0.24;}.cls-3{fill:#69a4dd;}.cls-4{fill:#558fbc;}.cls-5{fill:#84caf0;}.cls-6{fill:#4b91c6;}.cls-7{fill:#f5fbff;}.cls-8{fill:#2e7da2;}.cls-9{fill:#418ab7;}.cls-10{fill:#113f54;}.cls-11{fill:#1f5779;}.cls-12{fill:#1c516e;}.cls-13{fill:#2a6690;}.cls-14{fill:#225a7c;}.cls-15{fill:#f3976b;}.cls-16{fill:#6b4434;}.cls-17{fill:#b4d8ef;}.cls-18{fill:#6acdf0;}.cls-19{fill:#3db5d4;}.cls-20{fill:#aeecff;}.cls-21{fill:#f4ffff;}.cls-22{fill:#f2f2f2;}.cls-23{clip-path:url(#clip-path);}.cls-24{opacity:0.9;}.cls-25{fill:#f69c21;}.cls-26{fill:#c4c4c4;}.cls-27{fill:#fd95af;}.cls-28{fill:#84c0f0;}.cls-29{fill:#fdae52;}.cls-30{fill:#c587f5;}.cls-31{clip-path:url(#clip-path-2);}.cls-32{clip-path:url(#clip-path-3);}.cls-33{clip-path:url(#clip-path-4);}.cls-34{clip-path:url(#clip-path-5);}.cls-35{fill:#32baa4;}.cls-36{fill:#289685;}.cls-37{fill:#c7f1ff;opacity:0.6;}.cls-38{opacity:0.8;}.cls-39{fill:#fff;}.cls-41{fill:#7d7d7d;}.cls-42{fill:#999;}.cls-43{stroke:#231f20;stroke-miterlimit:10;opacity:0;}</style><clipPath id="clip-path"><path class="cls-1" d="M76,40.31a15.11,15.11,0,0,0,6.85,11.83c3.78,2.18,6.85.43,6.85-3.92a15.11,15.11,0,0,0-6.85-11.83C79,34.21,76,36,76,40.31Z"/></clipPath><clipPath id="clip-path-2"><path class="cls-1" d="M140.08,77.91a15.11,15.11,0,0,0,6.85,11.83c3.78,2.18,6.85.43,6.85-3.92A15.11,15.11,0,0,0,146.92,74C143.14,71.8,140.08,73.56,140.08,77.91Z"/></clipPath><clipPath id="clip-path-3"><path class="cls-1" d="M86.94,55.09a15.11,15.11,0,0,0,6.85,11.83c3.78,2.18,6.85.43,6.85-3.92a15.11,15.11,0,0,0-6.85-11.83C90,49,86.94,50.74,86.94,55.09Z"/></clipPath><clipPath id="clip-path-4"><path class="cls-1" d="M116.32,73.22a15.11,15.11,0,0,0,6.85,11.83c3.78,2.18,6.85.43,6.85-3.92a15.11,15.11,0,0,0-6.85-11.83C119.39,67.11,116.32,68.87,116.32,73.22Z"/></clipPath><clipPath id="clip-path-5"><path class="cls-1" d="M92.74,68.7a15.11,15.11,0,0,0,6.85,11.83c3.78,2.18,6.85.43,6.85-3.92a15.11,15.11,0,0,0-6.85-11.83C95.81,62.59,92.74,64.35,92.74,68.7Z"/></clipPath></defs><title>Asset 15</title><g id="Layer_2" data-name="Layer 2"><g id="Layer_1-2" data-name="Layer 1"><polygon class="cls-2" points="29.31 111.71 110.36 158.5 164.39 127.3 83.34 80.51 29.31 111.71"/><polygon class="cls-3" points="29.31 102.38 110.36 149.17 164.39 117.97 83.34 71.18 29.31 102.38"/><polygon class="cls-4" points="110.36 150.05 110.36 149.17 164.39 117.97 164.39 118.85 110.36 150.05"/><path class="cls-5" d="M160.32,53.43l-71-40.89a4.15,4.15,0,0,0-6.22,3.6V71.35l79.74,46,.48,1.27.9-.48V60.27A7.89,7.89,0,0,0,160.32,53.43Z"/><polygon class="cls-4" points="110.36 150.05 29.31 103.25 29.31 102.38 110.36 149.17 110.36 150.05"/><path class="cls-6" d="M163.38,118.58,82.25,71.83V16.62A4.15,4.15,0,0,1,88.47,13l71,40.89a7.89,7.89,0,0,1,4,6.84Z"/><polygon class="cls-7" points="160.4 114.69 85.22 71.37 85.22 15.04 160.4 58.36 160.4 114.69"/><path class="cls-8" d="M86.79,82.39l-5.12-3c-.23-.13-.17-.38.13-.55L84,77.59a1.07,1.07,0,0,1,1-.07l5.12,3c.23.13.17.38-.13.55l-2.23,1.28A1.07,1.07,0,0,1,86.79,82.39Z"/><path class="cls-8" d="M93.22,86.11l-5.12-3c-.23-.13-.17-.38.13-.55l2.23-1.28a1.07,1.07,0,0,1,1-.07l5.12,3c.23.13.17.38-.13.55L94.18,86A1.07,1.07,0,0,1,93.22,86.11Z"/><path class="cls-8" d="M99.65,89.83l-5.12-3c-.23-.13-.17-.38.13-.55L96.89,85a1.07,1.07,0,0,1,1-.07l5.12,3c.23.13.17.38-.13.55l-2.23,1.28A1.07,1.07,0,0,1,99.65,89.83Z"/><path class="cls-8" d="M106.08,93.55l-5.12-3c-.23-.13-.17-.38.13-.55l2.23-1.28a1.07,1.07,0,0,1,1-.07l5.12,3c.23.13.17.38-.13.55L107,93.48A1.07,1.07,0,0,1,106.08,93.55Z"/><path class="cls-8" d="M112.51,97.27l-5.12-3c-.23-.13-.17-.38.13-.55l2.23-1.28a1.07,1.07,0,0,1,1-.07l5.12,3c.23.13.17.38-.13.55l-2.23,1.28A1.07,1.07,0,0,1,112.51,97.27Z"/><path class="cls-8" d="M118.94,101l-5.12-3c-.23-.13-.17-.38.13-.55l2.23-1.28a1.07,1.07,0,0,1,1-.07l5.12,3c.23.13.17.38-.13.55l-2.23,1.28A1.07,1.07,0,0,1,118.94,101Z"/><path class="cls-8" d="M125.37,104.71l-5.12-3c-.23-.13-.17-.38.13-.55l2.23-1.28a1.07,1.07,0,0,1,1-.07l5.12,3c.23.13.17.38-.13.55l-2.23,1.28A1.07,1.07,0,0,1,125.37,104.71Z"/><path class="cls-8" d="M131.8,108.43l-5.12-3c-.23-.13-.17-.38.13-.55l2.23-1.28a1.07,1.07,0,0,1,1-.07l5.12,3c.23.13.17.38-.13.55l-2.23,1.28A1.07,1.07,0,0,1,131.8,108.43Z"/><path class="cls-8" d="M138.23,112.15l-5.12-3c-.23-.13-.17-.38.13-.55l2.23-1.28a1.07,1.07,0,0,1,1-.07l5.12,3c.23.13.17.38-.13.55l-2.23,1.28A1.07,1.07,0,0,1,138.23,112.15Z"/><path class="cls-8" d="M144.66,115.87l-5.12-3c-.23-.13-.17-.38.13-.55l2.23-1.28a1.07,1.07,0,0,1,1-.07l5.12,3c.23.13.17.38-.13.55l-2.23,1.28A1.07,1.07,0,0,1,144.66,115.87Z"/><path class="cls-8" d="M151.09,119.59l-5.12-3c-.23-.13-.17-.38.13-.55l2.23-1.28a1.07,1.07,0,0,1,1-.07l5.12,3c.23.13.17.38-.13.55L152,119.52A1.07,1.07,0,0,1,151.09,119.59Z"/><path class="cls-8" d="M81,85.61l-4.92-2.85c-.28-.16-.21-.47.16-.68L80,79.92a1.33,1.33,0,0,1,1.18-.09l4.92,2.85c.28.16.21.47-.16.68l-3.76,2.17A1.33,1.33,0,0,1,81,85.61Z"/><path class="cls-8" d="M87.44,89.33l-4.92-2.85c-.28-.16-.21-.47.16-.68l3.76-2.17a1.33,1.33,0,0,1,1.18-.09l4.92,2.85c.28.16.21.47-.16.68l-3.76,2.17A1.33,1.33,0,0,1,87.44,89.33Z"/><path class="cls-8" d="M93.87,93.05,88.94,90.2c-.28-.16-.21-.47.16-.68l3.76-2.17A1.33,1.33,0,0,1,94,87.26L99,90.11c.28.16.21.47-.16.68L95,93A1.33,1.33,0,0,1,93.87,93.05Z"/><path class="cls-8" d="M100.3,96.77l-4.92-2.85c-.28-.16-.21-.47.16-.68l3.76-2.17a1.33,1.33,0,0,1,1.18-.09l4.92,2.85c.28.16.21.47-.16.68l-3.76,2.17A1.33,1.33,0,0,1,100.3,96.77Z"/><path class="cls-8" d="M106.73,100.49l-4.92-2.85c-.28-.16-.21-.47.16-.68l3.76-2.17a1.33,1.33,0,0,1,1.18-.09l4.92,2.85c.28.16.21.47-.16.68l-3.76,2.17A1.33,1.33,0,0,1,106.73,100.49Z"/><path class="cls-8" d="M113.16,104.21l-4.92-2.85c-.28-.16-.21-.47.16-.68l3.76-2.17a1.33,1.33,0,0,1,1.18-.09l4.92,2.85c.28.16.21.47-.16.68l-3.76,2.17A1.33,1.33,0,0,1,113.16,104.21Z"/><path class="cls-8" d="M119.59,107.93l-4.92-2.85c-.28-.16-.21-.47.16-.68l3.76-2.17a1.33,1.33,0,0,1,1.18-.09l4.92,2.85c.28.16.21.47-.16.68l-3.76,2.17A1.33,1.33,0,0,1,119.59,107.93Z"/><path class="cls-8" d="M126,111.65l-4.92-2.85c-.28-.16-.21-.47.16-.68L125,106a1.33,1.33,0,0,1,1.18-.09l4.92,2.85c.28.16.21.47-.16.68l-3.76,2.17A1.33,1.33,0,0,1,126,111.65Z"/><path class="cls-8" d="M132.45,115.37l-4.92-2.85c-.28-.16-.21-.47.16-.68l3.76-2.17a1.33,1.33,0,0,1,1.18-.09l4.92,2.85c.28.16.21.47-.16.68l-3.76,2.17A1.33,1.33,0,0,1,132.45,115.37Z"/><path class="cls-8" d="M138.88,119.09,134,116.24c-.28-.16-.21-.47.16-.68l3.76-2.17a1.33,1.33,0,0,1,1.18-.09l4.92,2.85c.28.16.21.47-.16.68L140.06,119A1.33,1.33,0,0,1,138.88,119.09Z"/><path class="cls-8" d="M145.31,122.81,140.38,120c-.28-.16-.21-.47.16-.68l3.76-2.17a1.33,1.33,0,0,1,1.18-.09l4.92,2.85c.28.16.21.47-.16.68l-3.76,2.17A1.33,1.33,0,0,1,145.31,122.81Z"/><path class="cls-8" d="M75.32,88.89,70.4,86c-.28-.16-.21-.47.16-.68l3.76-2.17a1.33,1.33,0,0,1,1.18-.09L80.42,86c.28.16.21.47-.16.68L76.5,88.8A1.33,1.33,0,0,1,75.32,88.89Z"/><path class="cls-8" d="M81.75,92.61l-4.92-2.85c-.28-.16-.21-.47.16-.68l3.76-2.17a1.33,1.33,0,0,1,1.18-.09l4.92,2.85c.28.16.21.47-.16.68l-3.76,2.17A1.33,1.33,0,0,1,81.75,92.61Z"/><path class="cls-8" d="M88.18,96.33l-4.92-2.85c-.28-.16-.21-.47.16-.68l3.76-2.17a1.33,1.33,0,0,1,1.18-.09l4.92,2.85c.28.16.21.47-.16.68l-3.76,2.17A1.33,1.33,0,0,1,88.18,96.33Z"/><path class="cls-8" d="M94.61,100.05,89.69,97.2c-.28-.16-.21-.47.16-.68l3.76-2.17a1.33,1.33,0,0,1,1.18-.09l4.92,2.85c.28.16.21.47-.16.68L95.79,100A1.33,1.33,0,0,1,94.61,100.05Z"/><path class="cls-8" d="M101,103.77l-4.92-2.85c-.28-.16-.21-.47.16-.68L100,98.07a1.33,1.33,0,0,1,1.18-.09l4.92,2.85c.28.16.21.47-.16.68l-3.76,2.17A1.33,1.33,0,0,1,101,103.77Z"/><path class="cls-8" d="M107.47,107.49l-4.92-2.85c-.28-.16-.21-.47.16-.68l3.76-2.17a1.33,1.33,0,0,1,1.18-.09l4.92,2.85c.28.16.21.47-.16.68l-3.76,2.17A1.33,1.33,0,0,1,107.47,107.49Z"/><path class="cls-8" d="M113.9,111.21,109,108.36c-.28-.16-.21-.47.16-.68l3.76-2.17a1.33,1.33,0,0,1,1.18-.09l4.92,2.85c.28.16.21.47-.16.68l-3.76,2.17A1.33,1.33,0,0,1,113.9,111.21Z"/><path class="cls-8" d="M120.33,114.93l-4.92-2.85c-.28-.16-.21-.47.16-.68l3.76-2.17a1.33,1.33,0,0,1,1.18-.09l4.92,2.85c.28.16.21.47-.16.68l-3.76,2.17A1.33,1.33,0,0,1,120.33,114.93Z"/><path class="cls-8" d="M126.76,118.65l-4.92-2.85c-.28-.16-.21-.47.16-.68l3.76-2.17a1.33,1.33,0,0,1,1.18-.09l4.92,2.85c.28.16.21.47-.16.68l-3.76,2.17A1.33,1.33,0,0,1,126.76,118.65Z"/><path class="cls-8" d="M133.19,122.37l-4.92-2.85c-.28-.16-.21-.47.16-.68l3.76-2.17a1.33,1.33,0,0,1,1.18-.09l4.92,2.85c.28.16.21.47-.16.68l-3.76,2.17A1.33,1.33,0,0,1,133.19,122.37Z"/><path class="cls-8" d="M139.62,126.09l-4.92-2.85c-.28-.16-.21-.47.16-.68l3.76-2.17a1.33,1.33,0,0,1,1.18-.09l4.92,2.85c.28.16.21.47-.16.68L140.8,126A1.33,1.33,0,0,1,139.62,126.09Z"/><path class="cls-8" d="M69.64,92.17l-4.92-2.85c-.28-.16-.21-.47.16-.68l3.76-2.17a1.33,1.33,0,0,1,1.18-.09l4.92,2.85c.28.16.21.47-.16.68l-3.76,2.17A1.33,1.33,0,0,1,69.64,92.17Z"/><path class="cls-8" d="M76.07,95.89,71.14,93c-.28-.16-.21-.47.16-.68l3.76-2.17a1.33,1.33,0,0,1,1.18-.09L81.16,93c.28.16.21.47-.16.68L77.25,95.8A1.33,1.33,0,0,1,76.07,95.89Z"/><path class="cls-8" d="M82.5,99.61l-4.92-2.85c-.28-.16-.21-.47.16-.68l3.76-2.17a1.33,1.33,0,0,1,1.18-.09l4.92,2.85c.28.16.21.47-.16.68l-3.76,2.17A1.33,1.33,0,0,1,82.5,99.61Z"/><path class="cls-8" d="M88.93,103.33,84,100.48c-.28-.16-.21-.47.16-.68l3.76-2.17a1.33,1.33,0,0,1,1.18-.09L94,100.39c.28.16.21.47-.16.68l-3.76,2.17A1.33,1.33,0,0,1,88.93,103.33Z"/><path class="cls-8" d="M95.36,107.05l-4.92-2.85c-.28-.16-.21-.47.16-.68l3.76-2.17a1.33,1.33,0,0,1,1.18-.09l4.92,2.85c.28.16.21.47-.16.68L96.54,107A1.33,1.33,0,0,1,95.36,107.05Z"/><path class="cls-8" d="M101.79,110.77l-4.92-2.85c-.28-.16-.21-.47.16-.68l3.76-2.17A1.33,1.33,0,0,1,102,105l4.92,2.85c.28.16.21.47-.16.68L103,110.68A1.33,1.33,0,0,1,101.79,110.77Z"/><path class="cls-8" d="M108.22,114.49l-4.92-2.85c-.28-.16-.21-.47.16-.68l3.76-2.17a1.33,1.33,0,0,1,1.18-.09l4.92,2.85c.28.16.21.47-.16.68l-3.76,2.17A1.33,1.33,0,0,1,108.22,114.49Z"/><path class="cls-8" d="M114.65,118.21l-4.92-2.85c-.28-.16-.21-.47.16-.68l3.76-2.17a1.33,1.33,0,0,1,1.18-.09l4.92,2.85c.28.16.21.47-.16.68l-3.76,2.17A1.33,1.33,0,0,1,114.65,118.21Z"/><path class="cls-8" d="M121.08,121.93l-4.92-2.85c-.28-.16-.21-.47.16-.68l3.76-2.17a1.33,1.33,0,0,1,1.18-.09l4.92,2.85c.28.16.21.47-.16.68l-3.76,2.17A1.33,1.33,0,0,1,121.08,121.93Z"/><path class="cls-8" d="M127.51,125.65l-4.92-2.85c-.28-.16-.21-.47.16-.68L126.5,120a1.33,1.33,0,0,1,1.18-.09l4.92,2.85c.28.16.21.47-.16.68l-3.76,2.17A1.33,1.33,0,0,1,127.51,125.65Z"/><path class="cls-8" d="M133.94,129.37,129,126.52c-.28-.16-.21-.47.16-.68l3.76-2.17a1.33,1.33,0,0,1,1.18-.09l4.92,2.85c.28.16.21.47-.16.68l-3.76,2.17A1.33,1.33,0,0,1,133.94,129.37Z"/><path class="cls-8" d="M64,95.45,59,92.6c-.28-.16-.21-.47.16-.68l3.76-2.17a1.33,1.33,0,0,1,1.18-.09L69,92.51c.28.16.21.47-.16.68l-3.76,2.17A1.33,1.33,0,0,1,64,95.45Z"/><path class="cls-8" d="M70.38,99.17l-4.92-2.85c-.28-.16-.21-.47.16-.68l3.76-2.17a1.33,1.33,0,0,1,1.18-.09l4.92,2.85c.28.16.21.47-.16.68l-3.76,2.17A1.33,1.33,0,0,1,70.38,99.17Z"/><path class="cls-8" d="M76.81,102.89,71.89,100c-.28-.16-.21-.47.16-.68l3.76-2.17A1.33,1.33,0,0,1,77,97.1L81.91,100c.28.16.21.47-.16.68L78,102.8A1.33,1.33,0,0,1,76.81,102.89Z"/><path class="cls-8" d="M83.24,106.61l-4.92-2.85c-.28-.16-.21-.47.16-.68l3.76-2.17a1.33,1.33,0,0,1,1.18-.09l4.92,2.85c.28.16.21.47-.16.68l-3.76,2.17A1.33,1.33,0,0,1,83.24,106.61Z"/><path class="cls-8" d="M89.67,110.33l-4.92-2.85c-.28-.16-.21-.47.16-.68l3.76-2.17a1.33,1.33,0,0,1,1.18-.09l4.92,2.85c.28.16.21.47-.16.68l-3.76,2.17A1.33,1.33,0,0,1,89.67,110.33Z"/><path class="cls-8" d="M96.1,114.05l-4.92-2.85c-.28-.16-.21-.47.16-.68l3.76-2.17a1.33,1.33,0,0,1,1.18-.09l4.92,2.85c.28.16.21.47-.16.68L97.28,114A1.33,1.33,0,0,1,96.1,114.05Z"/><path class="cls-8" d="M102.53,117.77l-4.92-2.85c-.28-.16-.21-.47.16-.68l3.76-2.17a1.33,1.33,0,0,1,1.18-.09l4.92,2.85c.28.16.21.47-.16.68l-3.76,2.17A1.33,1.33,0,0,1,102.53,117.77Z"/><path class="cls-8" d="M109,121.49,104,118.64c-.28-.16-.21-.47.16-.68l3.76-2.17a1.33,1.33,0,0,1,1.18-.09l4.92,2.85c.28.16.21.47-.16.68l-3.76,2.17A1.33,1.33,0,0,1,109,121.49Z"/><path class="cls-8" d="M115.39,125.21l-4.92-2.85c-.28-.16-.21-.47.16-.68l3.76-2.17a1.33,1.33,0,0,1,1.18-.09l4.92,2.85c.28.16.21.47-.16.68l-3.76,2.17A1.33,1.33,0,0,1,115.39,125.21Z"/><path class="cls-8" d="M121.82,128.93l-4.92-2.85c-.28-.16-.21-.47.16-.68l3.76-2.17a1.33,1.33,0,0,1,1.18-.09l4.92,2.85c.28.16.21.47-.16.68L123,128.84A1.33,1.33,0,0,1,121.82,128.93Z"/><path class="cls-8" d="M128.25,132.65l-4.92-2.85c-.28-.16-.21-.47.16-.68l3.76-2.17a1.33,1.33,0,0,1,1.18-.09l4.92,2.85c.28.16.21.47-.16.68l-3.76,2.17A1.33,1.33,0,0,1,128.25,132.65Z"/><path class="cls-8" d="M58.27,98.73l-4.92-2.85c-.28-.16-.21-.47.16-.68L57.26,93a1.33,1.33,0,0,1,1.18-.09l4.92,2.85c.28.16.21.47-.16.68l-3.76,2.17A1.33,1.33,0,0,1,58.27,98.73Z"/><path class="cls-8" d="M64.7,102.45,59.77,99.6c-.28-.16-.21-.47.16-.68l3.76-2.17a1.33,1.33,0,0,1,1.18-.09l4.92,2.85c.28.16.21.47-.16.68l-3.76,2.17A1.33,1.33,0,0,1,64.7,102.45Z"/><path class="cls-8" d="M71.13,106.17l-4.92-2.85c-.28-.16-.21-.47.16-.68l3.76-2.17a1.33,1.33,0,0,1,1.18-.09l4.92,2.85c.28.16.21.47-.16.68l-3.76,2.17A1.33,1.33,0,0,1,71.13,106.17Z"/><path class="cls-8" d="M109.62,128.44l-36.9-21.35c-.33-.19-.25-.55.19-.8l3.53-2a1.55,1.55,0,0,1,1.38-.11l36.9,21.35c.33.19.25.55-.19.8l-3.53,2A1.55,1.55,0,0,1,109.62,128.44Z"/><path class="cls-8" d="M116.13,132.21l-4.92-2.85c-.28-.16-.21-.47.16-.68l3.76-2.17a1.33,1.33,0,0,1,1.18-.09l4.92,2.85c.28.16.21.47-.16.68l-3.76,2.17A1.33,1.33,0,0,1,116.13,132.21Z"/><path class="cls-8" d="M122.56,135.93l-4.92-2.85c-.28-.16-.21-.47.16-.68l3.76-2.17a1.33,1.33,0,0,1,1.18-.09l4.92,2.85c.28.16.21.47-.16.68l-3.76,2.17A1.33,1.33,0,0,1,122.56,135.93Z"/><path class="cls-9" d="M86.79,82.23l-5.12-3c-.23-.13-.17-.38.13-.55L84,77.43a1.07,1.07,0,0,1,1-.07l5.12,3c.23.13.17.38-.13.55l-2.23,1.28A1.07,1.07,0,0,1,86.79,82.23Z"/><path class="cls-9" d="M93.22,85.95,88.1,83c-.23-.13-.17-.38.13-.55l2.23-1.28a1.07,1.07,0,0,1,1-.07l5.12,3c.23.13.17.38-.13.55l-2.23,1.28A1.07,1.07,0,0,1,93.22,85.95Z"/><path class="cls-9" d="M99.65,89.67l-5.12-3c-.23-.13-.17-.38.13-.55l2.23-1.28a1.07,1.07,0,0,1,1-.07l5.12,3c.23.13.17.38-.13.55l-2.23,1.28A1.07,1.07,0,0,1,99.65,89.67Z"/><path class="cls-9" d="M106.08,93.39l-5.12-3c-.23-.13-.17-.38.13-.55l2.23-1.28a1.07,1.07,0,0,1,1-.07l5.12,3c.23.13.17.38-.13.55L107,93.31A1.07,1.07,0,0,1,106.08,93.39Z"/><path class="cls-9" d="M112.51,97.11l-5.12-3c-.23-.13-.17-.38.13-.55l2.23-1.28a1.07,1.07,0,0,1,1-.07l5.12,3c.23.13.17.38-.13.55L113.46,97A1.07,1.07,0,0,1,112.51,97.11Z"/><path class="cls-9" d="M118.94,100.83l-5.12-3c-.23-.13-.17-.38.13-.55L116.18,96a1.07,1.07,0,0,1,1-.07l5.12,3c.23.13.17.38-.13.55l-2.23,1.28A1.07,1.07,0,0,1,118.94,100.83Z"/><path class="cls-9" d="M125.37,104.55l-5.12-3c-.23-.13-.17-.38.13-.55l2.23-1.28a1.07,1.07,0,0,1,1-.07l5.12,3c.23.13.17.38-.13.55l-2.23,1.28A1.07,1.07,0,0,1,125.37,104.55Z"/><path class="cls-9" d="M131.8,108.27l-5.12-3c-.23-.13-.17-.38.13-.55l2.23-1.28a1.07,1.07,0,0,1,1-.07l5.12,3c.23.13.17.38-.13.55l-2.23,1.28A1.07,1.07,0,0,1,131.8,108.27Z"/><path class="cls-9" d="M138.23,112l-5.12-3c-.23-.13-.17-.38.13-.55l2.23-1.28a1.07,1.07,0,0,1,1-.07l5.12,3c.23.13.17.38-.13.55l-2.23,1.28A1.07,1.07,0,0,1,138.23,112Z"/><path class="cls-9" d="M144.66,115.7l-5.12-3c-.23-.13-.17-.38.13-.55l2.23-1.28a1.07,1.07,0,0,1,1-.07l5.12,3c.23.13.17.38-.13.55l-2.23,1.28A1.07,1.07,0,0,1,144.66,115.7Z"/><path class="cls-9" d="M151.09,119.42l-5.12-3c-.23-.13-.17-.38.13-.55l2.23-1.28a1.07,1.07,0,0,1,1-.07l5.12,3c.23.13.17.38-.13.55L152,119.35A1.07,1.07,0,0,1,151.09,119.42Z"/><path class="cls-9" d="M81,85.45,76.08,82.6c-.28-.16-.21-.47.16-.68L80,79.75a1.33,1.33,0,0,1,1.18-.09l4.92,2.85c.28.16.21.47-.16.68l-3.76,2.17A1.33,1.33,0,0,1,81,85.45Z"/><path class="cls-9" d="M87.44,89.17l-4.92-2.85c-.28-.16-.21-.47.16-.68l3.76-2.17a1.33,1.33,0,0,1,1.18-.09l4.92,2.85c.28.16.21.47-.16.68l-3.76,2.17A1.33,1.33,0,0,1,87.44,89.17Z"/><path class="cls-9" d="M93.87,92.89,88.94,90c-.28-.16-.21-.47.16-.68l3.76-2.17A1.33,1.33,0,0,1,94,87.1L99,89.95c.28.16.21.47-.16.68L95,92.8A1.33,1.33,0,0,1,93.87,92.89Z"/><path class="cls-9" d="M100.3,96.61l-4.92-2.85c-.28-.16-.21-.47.16-.68l3.76-2.17a1.33,1.33,0,0,1,1.18-.09l4.92,2.85c.28.16.21.47-.16.68l-3.76,2.17A1.33,1.33,0,0,1,100.3,96.61Z"/><path class="cls-9" d="M106.73,100.33l-4.92-2.85c-.28-.16-.21-.47.16-.68l3.76-2.17a1.33,1.33,0,0,1,1.18-.09l4.92,2.85c.28.16.21.47-.16.68l-3.76,2.17A1.33,1.33,0,0,1,106.73,100.33Z"/><path class="cls-9" d="M113.16,104l-4.92-2.85c-.28-.16-.21-.47.16-.68l3.76-2.17a1.33,1.33,0,0,1,1.18-.09l4.92,2.85c.28.16.21.47-.16.68L114.34,104A1.33,1.33,0,0,1,113.16,104Z"/><path class="cls-9" d="M119.59,107.77l-4.92-2.85c-.28-.16-.21-.47.16-.68l3.76-2.17a1.33,1.33,0,0,1,1.18-.09l4.92,2.85c.28.16.21.47-.16.68l-3.76,2.17A1.33,1.33,0,0,1,119.59,107.77Z"/><path class="cls-9" d="M126,111.49l-4.92-2.85c-.28-.16-.21-.47.16-.68l3.76-2.17a1.33,1.33,0,0,1,1.18-.09l4.92,2.85c.28.16.21.47-.16.68l-3.76,2.17A1.33,1.33,0,0,1,126,111.49Z"/><path class="cls-9" d="M132.45,115.21l-4.92-2.85c-.28-.16-.21-.47.16-.68l3.76-2.17a1.33,1.33,0,0,1,1.18-.09l4.92,2.85c.28.16.21.47-.16.68l-3.76,2.17A1.33,1.33,0,0,1,132.45,115.21Z"/><path class="cls-9" d="M138.88,118.93,134,116.08c-.28-.16-.21-.47.16-.68l3.76-2.17a1.33,1.33,0,0,1,1.18-.09L144,116c.28.16.21.47-.16.68l-3.76,2.17A1.33,1.33,0,0,1,138.88,118.93Z"/><path class="cls-9" d="M145.31,122.65l-4.92-2.85c-.28-.16-.21-.47.16-.68l3.76-2.17a1.33,1.33,0,0,1,1.18-.09l4.92,2.85c.28.16.21.47-.16.68l-3.76,2.17A1.33,1.33,0,0,1,145.31,122.65Z"/><path class="cls-9" d="M75.32,88.73,70.4,85.88c-.28-.16-.21-.47.16-.68L74.31,83a1.33,1.33,0,0,1,1.18-.09l4.92,2.85c.28.16.21.47-.16.68L76.5,88.64A1.33,1.33,0,0,1,75.32,88.73Z"/><path class="cls-9" d="M81.75,92.45,76.83,89.6c-.28-.16-.21-.47.16-.68l3.76-2.17a1.33,1.33,0,0,1,1.18-.09l4.92,2.85c.28.16.21.47-.16.68l-3.76,2.17A1.33,1.33,0,0,1,81.75,92.45Z"/><path class="cls-9" d="M88.18,96.17l-4.92-2.85c-.28-.16-.21-.47.16-.68l3.76-2.17a1.33,1.33,0,0,1,1.18-.09l4.92,2.85c.28.16.21.47-.16.68l-3.76,2.17A1.33,1.33,0,0,1,88.18,96.17Z"/><path class="cls-9" d="M94.61,99.89,89.69,97c-.28-.16-.21-.47.16-.68l3.76-2.17a1.33,1.33,0,0,1,1.18-.09l4.92,2.85c.28.16.21.47-.16.68L95.79,99.8A1.33,1.33,0,0,1,94.61,99.89Z"/><path class="cls-9" d="M101,103.61l-4.92-2.85c-.28-.16-.21-.47.16-.68L100,97.91a1.33,1.33,0,0,1,1.18-.09l4.92,2.85c.28.16.21.47-.16.68l-3.76,2.17A1.33,1.33,0,0,1,101,103.61Z"/><path class="cls-9" d="M107.47,107.33l-4.92-2.85c-.28-.16-.21-.47.16-.68l3.76-2.17a1.33,1.33,0,0,1,1.18-.09l4.92,2.85c.28.16.21.47-.16.68l-3.76,2.17A1.33,1.33,0,0,1,107.47,107.33Z"/><path class="cls-9" d="M113.9,111,109,108.2c-.28-.16-.21-.47.16-.68l3.76-2.17a1.33,1.33,0,0,1,1.18-.09l4.92,2.85c.28.16.21.47-.16.68L115.08,111A1.33,1.33,0,0,1,113.9,111Z"/><path class="cls-9" d="M120.33,114.77l-4.92-2.85c-.28-.16-.21-.47.16-.68l3.76-2.17a1.33,1.33,0,0,1,1.18-.09l4.92,2.85c.28.16.21.47-.16.68l-3.76,2.17A1.33,1.33,0,0,1,120.33,114.77Z"/><path class="cls-9" d="M126.76,118.49l-4.92-2.85c-.28-.16-.21-.47.16-.68l3.76-2.17a1.33,1.33,0,0,1,1.18-.09l4.92,2.85c.28.16.21.47-.16.68l-3.76,2.17A1.33,1.33,0,0,1,126.76,118.49Z"/><path class="cls-9" d="M133.19,122.21l-4.92-2.85c-.28-.16-.21-.47.16-.68l3.76-2.17a1.33,1.33,0,0,1,1.18-.09l4.92,2.85c.28.16.21.47-.16.68l-3.76,2.17A1.33,1.33,0,0,1,133.19,122.21Z"/><path class="cls-9" d="M139.62,125.93l-4.92-2.85c-.28-.16-.21-.47.16-.68l3.76-2.17a1.33,1.33,0,0,1,1.18-.09l4.92,2.85c.28.16.21.47-.16.68l-3.76,2.17A1.33,1.33,0,0,1,139.62,125.93Z"/><path class="cls-9" d="M69.64,92l-4.92-2.85c-.28-.16-.21-.47.16-.68l3.76-2.17a1.33,1.33,0,0,1,1.18-.09l4.92,2.85c.28.16.21.47-.16.68l-3.76,2.17A1.33,1.33,0,0,1,69.64,92Z"/><path class="cls-9" d="M76.07,95.73l-4.92-2.85c-.28-.16-.21-.47.16-.68L75.06,90a1.33,1.33,0,0,1,1.18-.09l4.92,2.85c.28.16.21.47-.16.68l-3.76,2.17A1.33,1.33,0,0,1,76.07,95.73Z"/><path class="cls-9" d="M82.5,99.45,77.57,96.6c-.28-.16-.21-.47.16-.68l3.76-2.17a1.33,1.33,0,0,1,1.18-.09l4.92,2.85c.28.16.21.47-.16.68l-3.76,2.17A1.33,1.33,0,0,1,82.5,99.45Z"/><path class="cls-9" d="M88.93,103.17,84,100.32c-.28-.16-.21-.47.16-.68l3.76-2.17a1.33,1.33,0,0,1,1.18-.09L94,100.23c.28.16.21.47-.16.68l-3.76,2.17A1.33,1.33,0,0,1,88.93,103.17Z"/><path class="cls-9" d="M95.36,106.89,90.43,104c-.28-.16-.21-.47.16-.68l3.76-2.17a1.33,1.33,0,0,1,1.18-.09l4.92,2.85c.28.16.21.47-.16.68l-3.76,2.17A1.33,1.33,0,0,1,95.36,106.89Z"/><path class="cls-9" d="M101.79,110.61l-4.92-2.85c-.28-.16-.21-.47.16-.68l3.76-2.17a1.33,1.33,0,0,1,1.18-.09l4.92,2.85c.28.16.21.47-.16.68L103,110.52A1.33,1.33,0,0,1,101.79,110.61Z"/><path class="cls-9" d="M108.22,114.33l-4.92-2.85c-.28-.16-.21-.47.16-.68l3.76-2.17a1.33,1.33,0,0,1,1.18-.09l4.92,2.85c.28.16.21.47-.16.68l-3.76,2.17A1.33,1.33,0,0,1,108.22,114.33Z"/><path class="cls-9" d="M114.65,118l-4.92-2.85c-.28-.16-.21-.47.16-.68l3.76-2.17a1.33,1.33,0,0,1,1.18-.09l4.92,2.85c.28.16.21.47-.16.68L115.83,118A1.33,1.33,0,0,1,114.65,118Z"/><path class="cls-9" d="M121.08,121.77l-4.92-2.85c-.28-.16-.21-.47.16-.68l3.76-2.17a1.33,1.33,0,0,1,1.18-.09l4.92,2.85c.28.16.21.47-.16.68l-3.76,2.17A1.33,1.33,0,0,1,121.08,121.77Z"/><path class="cls-9" d="M127.51,125.49l-4.92-2.85c-.28-.16-.21-.47.16-.68l3.76-2.17a1.33,1.33,0,0,1,1.18-.09l4.92,2.85c.28.16.21.47-.16.68l-3.76,2.17A1.33,1.33,0,0,1,127.51,125.49Z"/><path class="cls-9" d="M133.94,129.21,129,126.36c-.28-.16-.21-.47.16-.68l3.76-2.17a1.33,1.33,0,0,1,1.18-.09l4.92,2.85c.28.16.21.47-.16.68l-3.76,2.17A1.33,1.33,0,0,1,133.94,129.21Z"/><path class="cls-9" d="M64,95.29,59,92.44c-.28-.16-.21-.47.16-.68l3.76-2.17a1.33,1.33,0,0,1,1.18-.09L69,92.35c.28.16.21.47-.16.68L65.13,95.2A1.33,1.33,0,0,1,64,95.29Z"/><path class="cls-9" d="M70.38,99l-4.92-2.85c-.28-.16-.21-.47.16-.68l3.76-2.17a1.33,1.33,0,0,1,1.18-.09l4.92,2.85c.28.16.21.47-.16.68l-3.76,2.17A1.33,1.33,0,0,1,70.38,99Z"/><path class="cls-9" d="M76.81,102.73l-4.92-2.85c-.28-.16-.21-.47.16-.68L75.8,97A1.33,1.33,0,0,1,77,96.94l4.92,2.85c.28.16.21.47-.16.68L78,102.64A1.33,1.33,0,0,1,76.81,102.73Z"/><path class="cls-9" d="M83.24,106.45l-4.92-2.85c-.28-.16-.21-.47.16-.68l3.76-2.17a1.33,1.33,0,0,1,1.18-.09l4.92,2.85c.28.16.21.47-.16.68l-3.76,2.17A1.33,1.33,0,0,1,83.24,106.45Z"/><path class="cls-9" d="M89.67,110.17l-4.92-2.85c-.28-.16-.21-.47.16-.68l3.76-2.17a1.33,1.33,0,0,1,1.18-.09l4.92,2.85c.28.16.21.47-.16.68l-3.76,2.17A1.33,1.33,0,0,1,89.67,110.17Z"/><path class="cls-9" d="M96.1,113.89,91.18,111c-.28-.16-.21-.47.16-.68l3.76-2.17a1.33,1.33,0,0,1,1.18-.09l4.92,2.85c.28.16.21.47-.16.68l-3.76,2.17A1.33,1.33,0,0,1,96.1,113.89Z"/><path class="cls-9" d="M102.53,117.61l-4.92-2.85c-.28-.16-.21-.47.16-.68l3.76-2.17a1.33,1.33,0,0,1,1.18-.09l4.92,2.85c.28.16.21.47-.16.68l-3.76,2.17A1.33,1.33,0,0,1,102.53,117.61Z"/><path class="cls-9" d="M109,121.33,104,118.48c-.28-.16-.21-.47.16-.68l3.76-2.17a1.33,1.33,0,0,1,1.18-.09l4.92,2.85c.28.16.21.47-.16.68l-3.76,2.17A1.33,1.33,0,0,1,109,121.33Z"/><path class="cls-9" d="M115.39,125l-4.92-2.85c-.28-.16-.21-.47.16-.68l3.76-2.17a1.33,1.33,0,0,1,1.18-.09l4.92,2.85c.28.16.21.47-.16.68L116.57,125A1.33,1.33,0,0,1,115.39,125Z"/><path class="cls-9" d="M121.82,128.77l-4.92-2.85c-.28-.16-.21-.47.16-.68l3.76-2.17A1.33,1.33,0,0,1,122,123l4.92,2.85c.28.16.21.47-.16.68L123,128.67A1.33,1.33,0,0,1,121.82,128.77Z"/><path class="cls-9" d="M128.25,132.48l-4.92-2.85c-.28-.16-.21-.47.16-.68l3.76-2.17a1.33,1.33,0,0,1,1.18-.09l4.92,2.85c.28.16.21.47-.16.68l-3.76,2.17A1.33,1.33,0,0,1,128.25,132.48Z"/><path class="cls-9" d="M58.27,98.57l-4.92-2.85c-.28-.16-.21-.47.16-.68l3.76-2.17a1.33,1.33,0,0,1,1.18-.09l4.92,2.85c.28.16.21.47-.16.68l-3.76,2.17A1.33,1.33,0,0,1,58.27,98.57Z"/><path class="cls-9" d="M64.7,102.29l-4.92-2.85c-.28-.16-.21-.47.16-.68l3.76-2.17a1.33,1.33,0,0,1,1.18-.09l4.92,2.85c.28.16.21.47-.16.68l-3.76,2.17A1.33,1.33,0,0,1,64.7,102.29Z"/><path class="cls-9" d="M71.13,106l-4.92-2.85c-.28-.16-.21-.47.16-.68l3.76-2.17a1.33,1.33,0,0,1,1.18-.09l4.92,2.85c.28.16.21.47-.16.68l-3.76,2.17A1.33,1.33,0,0,1,71.13,106Z"/><path class="cls-9" d="M109.62,128.28l-36.9-21.35c-.33-.19-.25-.55.19-.8l3.53-2a1.55,1.55,0,0,1,1.38-.11l36.9,21.35c.33.19.25.55-.19.8l-3.53,2A1.55,1.55,0,0,1,109.62,128.28Z"/><path class="cls-9" d="M116.13,132l-4.92-2.85c-.28-.16-.21-.47.16-.68l3.76-2.17a1.33,1.33,0,0,1,1.18-.09l4.92,2.85c.28.16.21.47-.16.68L117.32,132A1.33,1.33,0,0,1,116.13,132Z"/><path class="cls-9" d="M122.56,135.76l-4.92-2.85c-.28-.16-.21-.47.16-.68l3.76-2.17a1.33,1.33,0,0,1,1.18-.09l4.92,2.85c.28.16.21.47-.16.68l-3.76,2.17A1.33,1.33,0,0,1,122.56,135.76Z"/><ellipse class="cls-2" cx="44.47" cy="156.53" rx="16.79" ry="9.7"/><path class="cls-10" d="M40.1,158.28s-.82,2.74,1.31,3.32,2.49-.6,3.25-1,5.49-2.85,6.38-4-1.8-2.82-5.95-.18Z"/><path class="cls-10" d="M31.47,153.43s-1,2.51.95,3.25,2.67-1.26,3.25-1.63a26.24,26.24,0,0,0,3.83-2.84c.93-1-.47-3.12-4.61-1Z"/><path class="cls-11" d="M33.33,113.52s-.57,17.1-.41,20.37c-1.72,4-1.9,16-1.44,19.88,0,.6,4.63.7,4.63-1.44a146.76,146.76,0,0,1,2.36-15.6c.5-1.69,2.19-7.25,2.19-7.25v-16l-5.45-.81Z"/><path class="cls-12" d="M52.84,106.8s-3.35,1.46-5.83-2.19,2.13-3,2.13-3l3.19,1.89Z"/><path class="cls-13" d="M39.81,158c.05.7,5.49,1.64,5.49-.81s.27-13.6,1-18.24,2.67-12.83,2-18.22-.82-7.52-.93-8.87h-8s.89,23.05.89,25.18S39.55,154.4,39.81,158Z"/><path class="cls-13" d="M40.42,86a4.93,4.93,0,0,0-4.59-.68c-2.32.79-4,3.48-4,7.86s2.37,5.73,2.37,12.17-2.34,8-2,12.86S47,125,49,122.27c1.51-2.53-1.61-14-1.19-17.5s2.27-11.33,1.41-13.47C48.66,89.85,44.1,86.65,40.42,86Z"/><path class="cls-14" d="M48.77,103c1.85,3.82,3.33,4,4.07,3.76,1.1-.37,1.62-1.78.95-4.8s-2.9-12.49-6.11-11.19S46.92,99.22,48.77,103Z"/><path class="cls-15" d="M39.38,83.23V86c0,.9,2.53,2,4.74,1V84.68s2.51.35,3.05,0,1-8.22-.46-9.14c-2.45-1.9-8.58-1.1-8.58,2.71C38.13,79.45,39.38,80.92,39.38,83.23Z"/><path class="cls-16" d="M37.7,78.18c.73.85,5.11,0,6.75-.91s5.18-3.71,3.68-6.41-2.22.25-4.69.79S34,73.91,37.7,78.18Z"/><path class="cls-16" d="M37.05,77.27C36.68,79.09,38.67,84,39.49,84c1.77,0,3.32-2.83,4.74-3.33s2.7-3.58,1.51-4.28S37.05,77.27,37.05,77.27Z"/><path class="cls-14" d="M45.22,88c.08.43-2.06,2.35-5.49.83s-1.46-2.63-1.46-2.63l2.78,1.49,2,.07Z"/><path class="cls-17" d="M39.38,85.72s.78,2,4.74,1A1.74,1.74,0,0,1,45.22,88c-1,1.4-6.46.9-7.1-1.62A1.43,1.43,0,0,1,39.38,85.72Z"/><path class="cls-15" d="M44.71,81.44c-.44-.27-1.26-1.45-.43-1.88a1,1,0,0,1,1.23.7"/><polygon class="cls-18" points="94.86 77.67 94.86 37.29 71.29 23.68 71.29 64.06 94.86 77.67"/><polygon class="cls-19" points="94.86 77.67 95.43 77.34 95.43 36.96 94.86 37.29 94.86 77.67"/><polygon class="cls-20" points="95.43 36.96 71.85 23.35 71.29 23.68 94.86 37.29 95.43 36.96"/><polygon class="cls-21" points="72.33 62.75 93.33 74.88 93.33 38.49 72.33 26.36 72.33 62.75"/><path class="cls-22" d="M76,40.31a15.11,15.11,0,0,0,6.85,11.83c3.78,2.18,6.85.43,6.85-3.92a15.11,15.11,0,0,0-6.85-11.83C79,34.21,76,36,76,40.31Z"/><g class="cls-23"><g class="cls-24"><path class="cls-25" d="M78.84,50.07l8,4.6V52.22a4.29,4.29,0,0,0-1.94-3.36L80.79,46.5c-1.07-.62-1.94-.12-1.94,1.11Z"/><path class="cls-25" d="M82.83,49.41h0c.78.45,1.41.09,1.41-.81V47l-2.82-1.63V47A3.11,3.11,0,0,0,82.83,49.41Z"/><path class="cls-25" d="M82.84,38.08c.67.38,3.35,2.33,3.35,6.87v4.69a7.76,7.76,0,0,0-3.51-2.86"/><path class="cls-25" d="M82.84,38.08c-.67-.38-3.35-1.54-3.35,3v4.69S80.6,45.17,83,47"/><path class="cls-25" d="M81.45,46.49l.64.79a1.93,1.93,0,0,0,1.49.86l.64-.06c1-.08,1.54-.91,1.54-2.18V43.38a6.45,6.45,0,0,0-2.92-5h0c-1.61-.93-2.92-.18-2.92,1.67v2.52A6.71,6.71,0,0,0,81.45,46.49Z"/><path class="cls-25" d="M85.75,46.16h0c.25.14.44,0,.44-.25V44.73a1,1,0,0,0-.44-.77h0c-.25-.14-.44,0-.44.25v1.17A1,1,0,0,0,85.75,46.16Z"/><path class="cls-25" d="M79.91,42.79h0c.25.14.44,0,.44-.25V41.36a1,1,0,0,0-.44-.77h0c-.25-.14-.44,0-.44.25V42A1,1,0,0,0,79.91,42.79Z"/><path class="cls-25" d="M80.8,39.16a14,14,0,0,0,5.09,6.11V43.45a6.56,6.56,0,0,0-3-5.1c-2.5-1.44-3.27-.09-3.12,2.71C79.81,41.06,80.78,41.09,80.8,39.16Z"/></g></g><polygon class="cls-26" points="74.46 56.53 91.2 66.19 91.2 65.16 74.46 55.49 74.46 56.53"/><polygon class="cls-26" points="78.41 51.57 87.25 56.67 87.25 56.03 78.41 50.93 78.41 51.57"/><polygon class="cls-26" points="74.46 58.06 91.2 67.72 91.2 66.69 74.46 57.03 74.46 58.06"/><polygon class="cls-26" points="74.46 59.59 91.2 69.26 91.2 68.22 74.46 58.56 74.46 59.59"/><polygon class="cls-26" points="74.46 61.13 91.2 70.79 91.2 69.76 74.46 60.09 74.46 61.13"/><polygon class="cls-26" points="74.46 62.66 91.2 72.32 91.2 71.29 74.46 61.63 74.46 62.66"/><path class="cls-27" d="M86.64,59.55a2,2,0,0,0,.88,1.53c.49.28.88.06.88-.51A2,2,0,0,0,87.52,59C87,58.76,86.64,59,86.64,59.55Z"/><path class="cls-28" d="M83.51,57.74a2,2,0,0,0,.88,1.53c.49.28.88.06.88-.51a2,2,0,0,0-.88-1.53C83.91,57,83.51,57.18,83.51,57.74Z"/><path class="cls-29" d="M80.38,55.93a2,2,0,0,0,.88,1.53c.49.28.88.06.88-.51a2,2,0,0,0-.88-1.53C80.78,55.15,80.38,55.37,80.38,55.93Z"/><path class="cls-30" d="M77.25,54.13a2,2,0,0,0,.88,1.53c.49.28.88.06.88-.51a2,2,0,0,0-.88-1.53C77.65,53.34,77.25,53.57,77.25,54.13Z"/><polygon class="cls-18" points="158.96 115.27 158.96 74.88 135.38 61.27 135.38 101.66 158.96 115.27"/><polygon class="cls-19" points="158.96 115.27 159.52 114.94 159.52 74.55 158.96 74.88 158.96 115.27"/><polygon class="cls-20" points="159.52 74.55 135.95 60.94 135.38 61.27 158.96 74.88 159.52 74.55"/><polygon class="cls-21" points="136.43 100.34 157.43 112.47 157.43 76.08 136.43 63.96 136.43 100.34"/><path class="cls-22" d="M140.08,77.91a15.11,15.11,0,0,0,6.85,11.83c3.78,2.18,6.85.43,6.85-3.92A15.11,15.11,0,0,0,146.92,74C143.14,71.8,140.08,73.56,140.08,77.91Z"/><g class="cls-31"><g class="cls-24"><path class="cls-25" d="M142.94,87.67l8,4.6V89.82A4.29,4.29,0,0,0,149,86.46l-4.08-2.36c-1.07-.62-1.94-.12-1.94,1.11Z"/><path class="cls-25" d="M146.92,87h0c.78.45,1.41.09,1.41-.81V84.58L145.52,83v1.62A3.11,3.11,0,0,0,146.92,87Z"/><path class="cls-25" d="M146.94,75.68c.67.38,3.35,2.33,3.35,6.87v4.69a7.76,7.76,0,0,0-3.51-2.86"/><path class="cls-25" d="M146.94,75.68c-.67-.38-3.35-1.54-3.35,3v4.69s1.11-.59,3.51,1.19"/><path class="cls-25" d="M145.54,84.08l.64.79a1.93,1.93,0,0,0,1.49.86l.64-.06c1-.08,1.54-.91,1.54-2.18V81a6.45,6.45,0,0,0-2.92-5h0C145.31,75,144,75.75,144,77.6v2.52A6.71,6.71,0,0,0,145.54,84.08Z"/><path class="cls-25" d="M149.85,83.76h0c.25.14.44,0,.44-.25V82.33a1,1,0,0,0-.44-.77h0c-.25-.14-.44,0-.44.25V83A1,1,0,0,0,149.85,83.76Z"/><path class="cls-25" d="M144,80.38h0c.25.14.44,0,.44-.25V79a1,1,0,0,0-.44-.77h0c-.25-.14-.44,0-.44.25v1.17A1,1,0,0,0,144,80.38Z"/><path class="cls-25" d="M144.9,76.75A14,14,0,0,0,150,82.87V81a6.56,6.56,0,0,0-3-5.1c-2.5-1.44-3.27-.09-3.12,2.71C143.91,78.66,144.87,78.69,144.9,76.75Z"/></g></g><polygon class="cls-26" points="138.56 94.12 155.29 103.79 155.29 102.75 138.56 93.09 138.56 94.12"/><polygon class="cls-26" points="142.5 89.17 151.34 94.27 151.34 93.63 142.5 88.53 142.5 89.17"/><polygon class="cls-26" points="138.56 95.66 155.29 105.32 155.29 104.29 138.56 94.62 138.56 95.66"/><polygon class="cls-26" points="138.56 97.19 155.29 106.85 155.29 105.82 138.56 96.16 138.56 97.19"/><polygon class="cls-26" points="138.56 98.72 155.29 108.39 155.29 107.35 138.56 97.69 138.56 98.72"/><polygon class="cls-26" points="138.56 100.25 155.29 109.92 155.29 108.89 138.56 99.22 138.56 100.25"/><path class="cls-27" d="M150.73,97.14a2,2,0,0,0,.88,1.53c.49.28.88.06.88-.51a2,2,0,0,0-.88-1.53C151.13,96.35,150.73,96.58,150.73,97.14Z"/><path class="cls-28" d="M147.61,95.34a2,2,0,0,0,.88,1.53c.49.28.88.06.88-.51a2,2,0,0,0-.88-1.53C148,94.55,147.61,94.77,147.61,95.34Z"/><path class="cls-29" d="M144.48,93.53a2,2,0,0,0,.88,1.53c.49.28.88.06.88-.51a2,2,0,0,0-.88-1.53C144.87,92.74,144.48,93,144.48,93.53Z"/><path class="cls-30" d="M141.35,91.72a2,2,0,0,0,.88,1.53c.49.28.88.06.88-.51a2,2,0,0,0-.88-1.53C141.74,90.93,141.35,91.16,141.35,91.72Z"/><polygon class="cls-18" points="106 92.59 106 52.21 82.43 38.6 82.43 78.98 106 92.59"/><polygon class="cls-19" points="106 92.59 106.56 92.27 106.56 51.88 106 52.21 106 92.59"/><polygon class="cls-20" points="106.56 51.88 82.99 38.27 82.43 38.6 106 52.21 106.56 51.88"/><polygon class="cls-21" points="83.29 77.52 104.29 89.65 104.29 53.26 83.29 41.14 83.29 77.52"/><path class="cls-22" d="M86.94,55.09a15.11,15.11,0,0,0,6.85,11.83c3.78,2.18,6.85.43,6.85-3.92a15.11,15.11,0,0,0-6.85-11.83C90,49,86.94,50.74,86.94,55.09Z"/><g class="cls-32"><g class="cls-24"><path class="cls-25" d="M89.8,64.84l8,4.6V67a4.29,4.29,0,0,0-1.94-3.36l-4.08-2.36c-1.07-.62-1.94-.12-1.94,1.11Z"/><path class="cls-25" d="M93.79,64.19h0c.78.45,1.41.09,1.41-.81V61.76l-2.82-1.63v1.62A3.11,3.11,0,0,0,93.79,64.19Z"/><path class="cls-25" d="M92.41,61.26l.64.79a1.93,1.93,0,0,0,1.49.86l.64-.06c1-.08,1.54-.91,1.54-2.18V58.16a6.45,6.45,0,0,0-2.92-5h0c-1.61-.93-2.92-.18-2.92,1.67V57.3A6.71,6.71,0,0,0,92.41,61.26Z"/><path class="cls-25" d="M96.71,60.93h0c.25.14.44,0,.44-.25V59.51a1,1,0,0,0-.44-.77h0c-.25-.14-.44,0-.44.25v1.17A1,1,0,0,0,96.71,60.93Z"/><path class="cls-25" d="M90.87,57.56h0c.25.14.44,0,.44-.25V56.13a1,1,0,0,0-.44-.77h0c-.25-.14-.44,0-.44.25v1.17A1,1,0,0,0,90.87,57.56Z"/><path class="cls-25" d="M97,59.06a7.25,7.25,0,0,0-.15-2.86,7.06,7.06,0,0,0-3-3.41c-2.22-1.28-2.7-.66-3.16.11a4.68,4.68,0,0,0,.12,2.61l.15.8A2.47,2.47,0,0,0,91.67,54a8.84,8.84,0,0,0,4.26,3.39,3.25,3.25,0,0,0,.78,2Z"/></g></g><polygon class="cls-26" points="85.42 71.3 102.16 80.97 102.16 79.93 85.42 70.27 85.42 71.3"/><polygon class="cls-26" points="89.37 66.34 98.21 71.45 98.21 70.81 89.37 65.7 89.37 66.34"/><polygon class="cls-26" points="85.42 72.83 102.16 82.5 102.16 81.46 85.42 71.8 85.42 72.83"/><polygon class="cls-26" points="85.42 74.37 102.16 84.03 102.16 83 85.42 73.33 85.42 74.37"/><polygon class="cls-26" points="85.42 75.9 102.16 85.56 102.16 84.53 85.42 74.87 85.42 75.9"/><polygon class="cls-26" points="85.42 77.43 102.16 87.1 102.16 86.06 85.42 76.4 85.42 77.43"/><path class="cls-27" d="M97.6,74.32a2,2,0,0,0,.88,1.53c.49.28.88.06.88-.51a2,2,0,0,0-.88-1.53C98,73.53,97.6,73.76,97.6,74.32Z"/><path class="cls-28" d="M94.47,72.51A2,2,0,0,0,95.35,74c.49.28.88.06.88-.51A2,2,0,0,0,95.35,72C94.86,71.73,94.47,72,94.47,72.51Z"/><path class="cls-29" d="M91.34,70.71a2,2,0,0,0,.88,1.53c.49.28.88.06.88-.51a2,2,0,0,0-.88-1.53C91.74,69.92,91.34,70.15,91.34,70.71Z"/><path class="cls-30" d="M88.21,68.9a2,2,0,0,0,.88,1.53c.49.28.88.06.88-.51a2,2,0,0,0-.88-1.53C88.61,68.11,88.21,68.34,88.21,68.9Z"/><polygon class="cls-18" points="135.38 110.73 135.38 70.34 111.81 56.73 111.81 97.12 135.38 110.73"/><polygon class="cls-19" points="135.38 110.73 135.95 110.4 135.95 70.01 135.38 70.34 135.38 110.73"/><polygon class="cls-20" points="135.95 70.01 112.37 56.4 111.81 56.73 135.38 70.34 135.95 70.01"/><polygon class="cls-21" points="112.67 95.65 133.67 107.78 133.67 71.39 112.67 59.27 112.67 95.65"/><path class="cls-22" d="M116.32,73.22a15.11,15.11,0,0,0,6.85,11.83c3.78,2.18,6.85.43,6.85-3.92a15.11,15.11,0,0,0-6.85-11.83C119.39,67.11,116.32,68.87,116.32,73.22Z"/><g class="cls-33"><g class="cls-24"><path class="cls-25" d="M119.19,83l8,4.6V85.13a4.29,4.29,0,0,0-1.94-3.36l-4.08-2.36c-1.07-.62-1.94-.12-1.94,1.11Z"/><path class="cls-25" d="M123.17,82.32h0c.78.45,1.41.09,1.41-.81V79.89l-2.82-1.63v1.62A3.11,3.11,0,0,0,123.17,82.32Z"/><path class="cls-25" d="M121.79,79.39l.64.79a1.93,1.93,0,0,0,1.49.86l.64-.06c1-.08,1.54-.91,1.54-2.18V76.29a6.45,6.45,0,0,0-2.92-5h0c-1.61-.93-2.92-.18-2.92,1.67v2.52A6.71,6.71,0,0,0,121.79,79.39Z"/><path class="cls-25" d="M126.09,79.07h0c.25.14.44,0,.44-.25V77.64a1,1,0,0,0-.44-.77h0c-.25-.14-.44,0-.44.25V78.3A1,1,0,0,0,126.09,79.07Z"/><path class="cls-25" d="M120.25,75.69h0c.25.14.44,0,.44-.25V74.26a1,1,0,0,0-.44-.77h0c-.25-.14-.44,0-.44.25v1.17A1,1,0,0,0,120.25,75.69Z"/><path class="cls-25" d="M126.4,77.19a7.25,7.25,0,0,0-.15-2.86,7.06,7.06,0,0,0-3-3.41c-2.22-1.28-2.7-.66-3.16.11a4.68,4.68,0,0,0,.12,2.61l.15.8a2.47,2.47,0,0,0,.65-2.36,8.84,8.84,0,0,0,4.26,3.39,3.25,3.25,0,0,0,.78,2Z"/></g></g><polygon class="cls-26" points="114.8 89.43 131.54 99.1 131.54 98.06 114.8 88.4 114.8 89.43"/><polygon class="cls-26" points="118.75 84.47 127.59 89.58 127.59 88.94 118.75 83.83 118.75 84.47"/><polygon class="cls-26" points="114.8 90.97 131.54 100.63 131.54 99.6 114.8 89.93 114.8 90.97"/><polygon class="cls-26" points="114.8 92.5 131.54 102.16 131.54 101.13 114.8 91.47 114.8 92.5"/><polygon class="cls-26" points="114.8 94.03 131.54 103.69 131.54 102.66 114.8 93 114.8 94.03"/><polygon class="cls-26" points="114.8 95.56 131.54 105.23 131.54 104.19 114.8 94.53 114.8 95.56"/><path class="cls-27" d="M127,92.45a2,2,0,0,0,.88,1.53c.49.28.88.06.88-.51a2,2,0,0,0-.88-1.53C127.38,91.66,127,91.89,127,92.45Z"/><path class="cls-28" d="M123.85,90.65a2,2,0,0,0,.88,1.53c.49.28.88.06.88-.51a2,2,0,0,0-.88-1.53C124.25,89.86,123.85,90.08,123.85,90.65Z"/><path class="cls-29" d="M120.72,88.84a2,2,0,0,0,.88,1.53c.49.28.88.06.88-.51a2,2,0,0,0-.88-1.53C121.12,88.05,120.72,88.28,120.72,88.84Z"/><path class="cls-30" d="M117.59,87a2,2,0,0,0,.88,1.53c.49.28.88.06.88-.51a2,2,0,0,0-.88-1.53C118,86.24,117.59,86.47,117.59,87Z"/><polygon class="cls-18" points="111.81 106.2 111.81 65.82 88.23 52.21 88.23 92.59 111.81 106.2"/><polygon class="cls-19" points="111.81 106.2 112.37 105.88 112.37 65.49 111.81 65.82 111.81 106.2"/><polygon class="cls-20" points="112.37 65.49 88.79 51.88 88.23 52.21 111.81 65.82 112.37 65.49"/><polygon class="cls-21" points="89.09 91.13 110.09 103.26 110.09 66.87 89.09 54.75 89.09 91.13"/><path class="cls-22" d="M92.74,68.7a15.11,15.11,0,0,0,6.85,11.83c3.78,2.18,6.85.43,6.85-3.92a15.11,15.11,0,0,0-6.85-11.83C95.81,62.59,92.74,64.35,92.74,68.7Z"/><g class="cls-34"><path class="cls-25" d="M95.61,78.45l8,4.6V80.6a4.29,4.29,0,0,0-1.94-3.36l-4.08-2.36c-1.07-.62-1.94-.12-1.94,1.11Z"/><path class="cls-25" d="M99.59,77.8h0c.78.45,1.41.09,1.41-.81V75.37l-2.82-1.63v1.62A3.11,3.11,0,0,0,99.59,77.8Z"/><path class="cls-25" d="M98.21,74.87l.64.79a1.93,1.93,0,0,0,1.49.86l.64-.06c1-.08,1.54-.91,1.54-2.18V71.77a6.45,6.45,0,0,0-2.92-5h0c-1.61-.93-2.92-.18-2.92,1.67v2.52A6.71,6.71,0,0,0,98.21,74.87Z"/><path class="cls-25" d="M102.51,74.54h0c.25.14.44,0,.44-.25V73.12a1,1,0,0,0-.44-.77h0c-.25-.14-.44,0-.44.25v1.17A1,1,0,0,0,102.51,74.54Z"/><path class="cls-25" d="M96.67,71.17h0c.25.14.44,0,.44-.25V69.74a1,1,0,0,0-.44-.77h0c-.25-.14-.44,0-.44.25V70.4A1,1,0,0,0,96.67,71.17Z"/><path class="cls-25" d="M102.82,72.67a7.25,7.25,0,0,0-.15-2.86,7.06,7.06,0,0,0-3-3.41c-2.22-1.28-2.7-.66-3.16.11a4.68,4.68,0,0,0,.12,2.61l.15.8a2.47,2.47,0,0,0,.65-2.36A8.84,8.84,0,0,0,101.73,71a3.25,3.25,0,0,0,.78,2Z"/></g><polygon class="cls-26" points="91.22 84.91 107.96 94.58 107.96 93.54 91.22 83.88 91.22 84.91"/><polygon class="cls-26" points="95.17 79.95 104.01 85.06 104.01 84.42 95.17 79.31 95.17 79.95"/><polygon class="cls-26" points="91.22 86.44 107.96 96.11 107.96 95.08 91.22 85.41 91.22 86.44"/><polygon class="cls-26" points="91.22 87.98 107.96 97.64 107.96 96.61 91.22 86.94 91.22 87.98"/><polygon class="cls-26" points="91.22 89.51 107.96 99.17 107.96 98.14 91.22 88.48 91.22 89.51"/><polygon class="cls-26" points="91.22 91.04 107.96 100.71 107.96 99.67 91.22 90.01 91.22 91.04"/><path class="cls-27" d="M103.4,87.93a2,2,0,0,0,.88,1.53c.49.28.88.06.88-.51a2,2,0,0,0-.88-1.53C103.8,87.14,103.4,87.37,103.4,87.93Z"/><path class="cls-28" d="M100.27,86.12a2,2,0,0,0,.88,1.53c.49.28.88.06.88-.51a2,2,0,0,0-.88-1.53C100.67,85.34,100.27,85.56,100.27,86.12Z"/><path class="cls-29" d="M97.14,84.32A2,2,0,0,0,98,85.84c.49.28.88.06.88-.51A2,2,0,0,0,98,83.81C97.54,83.53,97.14,83.76,97.14,84.32Z"/><path class="cls-30" d="M94,82.51A2,2,0,0,0,94.9,84c.49.28.88.06.88-.51A2,2,0,0,0,94.9,82C94.41,81.72,94,81.95,94,82.51Z"/><path class="cls-35" d="M98.87,80.95C91.23,68.06,78.35,61.58,70.12,66.46L63,70.58l2.74,4.56a10.57,10.57,0,0,1,1.56-1.93c7-2.25,16.54,3.13,22.42,13.05s6,20.9.71,25.93a10.46,10.46,0,0,1-2.15.43l2.68,4.45,6.88-3.94C106,108.24,106.52,93.83,98.87,80.95Z"/><path class="cls-36" d="M92,84.89C84.35,72,71.47,65.52,63.24,70.41s-8.71,19.29-1.06,32.18S82.7,122,90.93,117.07,99.64,97.78,92,84.89Zm-1.59,27.3c-7,2.25-16.54-3.13-22.42-13.05s-6-20.9-.71-25.93c7-2.25,16.54,3.13,22.42,13.05S95.71,107.16,90.4,112.19Z"/><path class="cls-35" d="M68,99.14c-5.89-9.92-6-20.9-.71-25.93,3-1,6.57-.51,10.08,1.16C73,72.31,68.7,72,65.29,74.07c-7,4.16-7.46,16.36-1,27.26s17.39,16.35,24.4,12.19a9.68,9.68,0,0,0,1.7-1.32C83.44,114.45,73.86,109.06,68,99.14Z"/><path class="cls-37" d="M89.69,86.26C83.8,76.34,74.23,71,67.26,73.21c-5.31,5-5.17,16,.71,25.93s15.46,15.31,22.42,13.05C95.71,107.16,95.57,96.18,89.69,86.26Z"/><g class="cls-38"><path class="cls-39" d="M85.39,110.21c-5.76,0-12.3-4.44-16.54-11.59a29.61,29.61,0,0,1-2.12-4.33,1.52,1.52,0,1,1,2.83-1.1,26.55,26.55,0,0,0,1.9,3.89c4.25,7.17,11.19,11.36,16.14,9.76a1.52,1.52,0,0,1,.94,2.89A10.21,10.21,0,0,1,85.39,110.21Z"/></g><g class="cls-38"><path class="cls-39" d="M66.53,87.9A1.52,1.52,0,0,1,65,86.44c-.19-4.39,1.07-8.09,3.53-10.42a1.52,1.52,0,0,1,2.09,2.21c-1.82,1.72-2.73,4.59-2.59,8.09a1.52,1.52,0,0,1-1.45,1.58Z"/></g><path class="cls-40" d="M100.55,102.21c.83-1.39,2.21-2.09,3.1-1.56l15.84,9.21-3,5-15.81-9.19C99.78,105.15,99.73,103.6,100.55,102.21Z"/><ellipse class="cls-41" cx="117.97" cy="112.35" rx="2.93" ry="1.87" transform="translate(-38.86 156.47) rotate(-59.31)"/><path class="cls-35" d="M114.79,110.64c1.46-2.46,3.92-3.7,5.49-2.77l28,16.3L143,133l-28-16.26C113.42,115.85,113.33,113.1,114.79,110.64Z"/><ellipse class="cls-41" cx="145.62" cy="128.59" rx="5.18" ry="3.31" transform="translate(-39.28 188.19) rotate(-59.31)"/><ellipse class="cls-42" cx="145.72" cy="128.65" rx="3.38" ry="2.16" transform="matrix(0.51, -0.86, 0.86, 0.51, -39.28, 188.32)"/><rect class="cls-43" x="0.5" y="0.5" width="185.99" height="185.99"/></g></g></svg>