<svg xmlns="http://www.w3.org/2000/svg" viewBox="0 0 186.99 186.99"><defs><style>.cls-1{fill:#fff;}.cls-2{fill:#34969c;}.cls-3{fill:#32baa4;}.cls-4{fill:#f1f1f1;}.cls-5{isolation:isolate;}.cls-6{fill:#355587;}.cls-7{opacity:0.9;}.cls-8{fill:#2a3966;}.cls-9{fill:#465faa;}.cls-10{fill:#f69c21;}.cls-11{fill:#15baac;}.cls-12{fill:#0a9b86;}.cls-13{fill:#375560;}.cls-14{fill:#0e2d38;}.cls-15{fill:#415b66;}.cls-16{fill:#113240;}.cls-17{fill:#0baf9b;}.cls-18{fill:none;stroke:#231f20;stroke-miterlimit:10;opacity:0;}</style></defs><title>Asset 16</title><g id="Layer_2" data-name="Layer 2"><g id="Layer_1-2" data-name="Layer 1"><path class="cls-1" d="M137.25,76.5c-.78-.45-1.4-.09-1.41.8a3.08,3.08,0,0,0,1.4,2.42c.78.45,1.4.09,1.41-.8a3.08,3.08,0,0,0-1.4-2.42"/><path class="cls-1" d="M137.25,70.17c-.78-.45-1.4-.09-1.41.8a3.08,3.08,0,0,0,1.4,2.42c.78.45,1.4.09,1.41-.8a3.08,3.08,0,0,0-1.4-2.42"/><path class="cls-1" d="M137.25,63.83c-.78-.45-1.4-.09-1.41.8a3.08,3.08,0,0,0,1.4,2.42c.78.45,1.4.09,1.41-.8a3.08,3.08,0,0,0-1.4-2.42"/><path class="cls-1" d="M144.79,84.56c-.78-.45-1.4-.09-1.41.8a3.08,3.08,0,0,0,1.4,2.42c.78.45,1.4.09,1.41-.8a3.08,3.08,0,0,0-1.4-2.42"/><path class="cls-1" d="M144.79,78.22c-.78-.45-1.4-.09-1.41.8a3.08,3.08,0,0,0,1.4,2.42c.78.45,1.4.09,1.41-.8a3.08,3.08,0,0,0-1.4-2.42"/><path class="cls-1" d="M158.55,135.27c-.78-.45-1.4-.09-1.41.8a3.08,3.08,0,0,0,1.4,2.42c.78.45,1.4.09,1.41-.8a3.08,3.08,0,0,0-1.4-2.42"/><path class="cls-1" d="M158.55,129.81c-.78-.45-1.4-.09-1.41.8a3.08,3.08,0,0,0,1.4,2.42c.78.45,1.4.09,1.41-.8a3.08,3.08,0,0,0-1.4-2.42"/><polygon class="cls-2" points="156.08 120.67 157.63 119.77 153.88 125.04 152.33 125.94 156.08 120.67"/><path class="cls-2" d="M164.87,102,143.06,89.43a2.2,2.2,0,0,0-2.22-.22l-1.55.9a2.2,2.2,0,0,1,2.22.22l21.81,12.59a6.86,6.86,0,0,1,3.11,5.39l0,14.71a2.18,2.18,0,0,1-.91,2l1.55-.9a2.18,2.18,0,0,0,.91-2l0-14.71A6.86,6.86,0,0,0,164.87,102Z"/><path class="cls-3" d="M163.31,102.93a6.86,6.86,0,0,1,3.11,5.39l0,14.71c0,2-1.41,2.78-3.13,1.78l-7.18-4.14-3.75,5.27-3.71-9.58-7.17-4.14a6.86,6.86,0,0,1-3.11-5.39l0-14.71c0-2,1.41-2.78,3.13-1.79Z"/><path class="cls-4" d="M146.81,101.06a3.49,3.49,0,0,1,1.89,2.83,1.32,1.32,0,0,1-.86,1.36l-1.18.6,2.19,1.27v1.11L145,106v-.88l2-1a.79.79,0,0,0,.53-.77,1.41,1.41,0,0,0-.81-1.2c-.44-.25-.81-.27-1.06,0l-.86-1.13C145.18,100.54,145.9,100.53,146.81,101.06Z"/><polygon class="cls-4" points="152.87 104.66 150.64 106.89 152.01 107.68 152.01 106.59 153.12 107.23 153.12 108.33 153.95 108.81 153.95 109.91 153.12 109.43 153.11 110.66 151.96 110 151.97 108.77 149.22 107.18 149.22 106.27 151.64 103.94 152.87 104.66"/><path class="cls-4" d="M155.69,105.93v2.18a1.28,1.28,0,0,1,1.25.18,3.28,3.28,0,0,1,1.62,2.93v2.58l-1.14-.66v-2.38a1.62,1.62,0,0,0-.79-1.52c-.55-.32-.94-.16-.94.67v2.23l-1.14-.66,0-6.21Z"/><polygon class="cls-2" points="69.15 81.72 67.3 80.64 62.49 70.84 64.35 71.91 69.15 81.72"/><path class="cls-3" d="M82.65,32.3C85,30.95,86.9,32,86.91,34.72L87,54a9.32,9.32,0,0,1-4.23,7.32l-8.85,5.11L69.15,81.72l-4.8-9.8L55.5,77c-2.34,1.35-4.25.27-4.26-2.42l-.05-19.26A9.32,9.32,0,0,1,55.42,48Z"/><path class="cls-2" d="M83.81,30.92a3,3,0,0,0-3,.3L53.56,46.94a9.32,9.32,0,0,0-4.23,7.32l.05,19.26a3,3,0,0,0,1.24,2.72l1.85,1.08a3,3,0,0,1-1.24-2.72l-.05-19.26A9.32,9.32,0,0,1,55.42,48L82.65,32.3a3,3,0,0,1,3-.3Z"/><path class="cls-4" d="M72.83,61.84c.61-.35,1.05-.13,1.06.51a2.21,2.21,0,0,1-1.05,1.76c-.61.35-1.05.09-1.06-.54A2.14,2.14,0,0,1,72.83,61.84Z"/><path class="cls-4" d="M72.69,55.11c1.65-1,2.79-.76,2.79.72,0,2-1.84,3.31-1.83,4.65l-1.66,1c0-1.76,1.71-3.15,1.7-4.24,0-.62-.48-.74-1.19-.32a4,4,0,0,0-1.59,1.85l-1.33-.13A7.35,7.35,0,0,1,72.69,55.11Z"/><g class="cls-5"><path class="cls-4" d="M60.43,60.33c.61-.35,1.06-.13,1.06.51a2.21,2.21,0,0,1-1.05,1.76c-.61.35-1.05.09-1.05-.54A2.14,2.14,0,0,1,60.43,60.33Z"/><path class="cls-4" d="M60.29,53.6c1.65-1,2.79-.77,2.8.72,0,2-1.84,3.31-1.83,4.65l-1.66,1c0-1.76,1.71-3.14,1.7-4.24,0-.62-.48-.74-1.19-.33a4,4,0,0,0-1.59,1.85l-1.33-.13A7.35,7.35,0,0,1,60.29,53.6Z"/></g><path class="cls-6" d="M77.72,42.82c1.65-1,2.79-.76,2.79.72,0,2-1.84,3.31-1.83,4.65l-1.66,1c0-1.76,1.71-3.15,1.7-4.24,0-.62-.48-.74-1.19-.32A4,4,0,0,0,76,46.43l-1.33-.13A7.35,7.35,0,0,1,77.72,42.82Z"/><path class="cls-6" d="M77.86,49.56c.61-.35,1.05-.13,1.06.51a2.21,2.21,0,0,1-1,1.76c-.61.35-1.05.09-1.06-.54A2.14,2.14,0,0,1,77.86,49.56Z"/><path class="cls-6" d="M66.83,61c.61-.35,1.05-.13,1.05.52a2.2,2.2,0,0,1-1,1.75c-.61.35-1.06.09-1.06-.54A2.15,2.15,0,0,1,66.83,61Z"/><polygon class="cls-6" points="67.51 59.74 66.15 60.53 65.79 54.97 67.83 53.79 67.51 59.74"/><path class="cls-4" d="M71.46,48.53c.61-.35,1.05-.13,1.06.51a2.21,2.21,0,0,1-1,1.76c-.61.35-1.05.09-1.06-.54A2.14,2.14,0,0,1,71.46,48.53Z"/><polygon class="cls-4" points="72.14 47.24 70.77 48.03 70.42 42.47 72.46 41.29 72.14 47.24"/><g class="cls-7"><polygon class="cls-8" points="118.67 75.93 120.22 75.03 116.47 80.3 114.92 81.2 118.67 75.93"/><path class="cls-8" d="M127.46,57.28,105.66,44.69a2.2,2.2,0,0,0-2.22-.22l-1.55.9a2.2,2.2,0,0,1,2.22.22l21.81,12.59A6.86,6.86,0,0,1,129,63.57l0,14.71a2.18,2.18,0,0,1-.91,2l1.55-.9a2.18,2.18,0,0,0,.91-2l0-14.71A6.86,6.86,0,0,0,127.46,57.28Z"/><path class="cls-9" d="M125.91,58.18A6.86,6.86,0,0,1,129,63.57l0,14.71c0,2-1.41,2.78-3.13,1.78l-7.18-4.14-3.75,5.27-3.71-9.58L104,67.48a6.86,6.86,0,0,1-3.11-5.39l0-14.71c0-2,1.41-2.78,3.13-1.79Z"/></g><path class="cls-10" d="M121.74,63.65a2,2,0,0,1,.9,1.55l0,5.75c0,.57-.41.8-.9.51l-1-.56.55,2.92-1.72-3.6-6.2-3.58a2,2,0,0,1-.9-1.55V59.34c0-.57.41-.8.9-.51L116,60.35Z"/><path class="cls-4" d="M115.14,56.59a2,2,0,0,1,.9,1.55v2.21l-2.63-1.52c-.5-.29-.9-.06-.9.51v3.54l-3.57-2.06-1.74,1.6.56-2.28-1-.56a2,2,0,0,1-.9-1.56l0-5.74c0-.57.41-.8.9-.51Z"/><path class="cls-4" d="M40.88,74.34c.95-.55,1.71-.11,1.72,1a3.76,3.76,0,0,1-1.71,3c-.95.55-1.71.11-1.72-1A3.76,3.76,0,0,1,40.88,74.34Z"/><path class="cls-4" d="M40.88,67c.95-.55,1.71-.11,1.72,1a3.76,3.76,0,0,1-1.71,3c-.95.55-1.71.11-1.72-1A3.76,3.76,0,0,1,40.88,67Z"/><path class="cls-4" d="M27.92,140.05c.95-.55,1.71-.11,1.72,1a3.76,3.76,0,0,1-1.71,3c-.95.55-1.71.11-1.72-1A3.76,3.76,0,0,1,27.92,140.05Z"/><path class="cls-4" d="M27.92,132.75c.95-.55,1.71-.11,1.72,1a3.76,3.76,0,0,1-1.71,3c-.95.55-1.71.11-1.72-1A3.76,3.76,0,0,1,27.92,132.75Z"/><path class="cls-4" d="M32.56,86.71c.95-.55,1.71-.11,1.72,1a3.76,3.76,0,0,1-1.71,3c-.95.55-1.71.11-1.72-1A3.76,3.76,0,0,1,32.56,86.71Z"/><path class="cls-4" d="M32.56,79.4c.95-.55,1.71-.11,1.72,1a3.76,3.76,0,0,1-1.71,3c-.95.55-1.71.11-1.72-1A3.76,3.76,0,0,1,32.56,79.4Z"/><path class="cls-4" d="M40.88,59.74c.95-.55,1.71-.11,1.72,1a3.76,3.76,0,0,1-1.71,3c-.95.55-1.71.11-1.72-1A3.76,3.76,0,0,1,40.88,59.74Z"/><g class="cls-7"><polygon class="cls-8" points="37.42 134.15 35.57 133.07 30.76 123.27 32.62 124.35 37.42 134.15"/><path class="cls-9" d="M50.92,84.73c2.34-1.35,4.25-.27,4.26,2.42l.05,19.26A9.32,9.32,0,0,1,51,113.73l-8.85,5.11-4.73,15.31-4.8-9.8-8.85,5.11c-2.34,1.35-4.25.27-4.26-2.42l-.05-19.26a9.32,9.32,0,0,1,4.23-7.32Z"/><path class="cls-8" d="M52.08,83.36a3,3,0,0,0-3,.3L21.83,99.38a9.32,9.32,0,0,0-4.23,7.32L17.66,126a3,3,0,0,0,1.24,2.72l1.85,1.08A3,3,0,0,1,19.52,127l-.05-19.26a9.32,9.32,0,0,1,4.23-7.32L50.92,84.73a3,3,0,0,1,3-.3Z"/></g><path class="cls-4" d="M47.62,95.85c.95-.55,1.71-.11,1.72,1a3.76,3.76,0,0,1-1.71,3c-.95.55-1.71.11-1.72-1A3.76,3.76,0,0,1,47.62,95.85Z"/><path class="cls-4" d="M42.59,98.75c.95-.55,1.71-.11,1.72,1a3.76,3.76,0,0,1-1.71,3c-.95.55-1.71.11-1.72-1A3.76,3.76,0,0,1,42.59,98.75Z"/><path class="cls-4" d="M37.57,101.65c.94-.54,1.71-.11,1.72,1a3.76,3.76,0,0,1-1.71,3c-.95.55-1.71.11-1.72-1A3.76,3.76,0,0,1,37.57,101.65Z"/><path class="cls-4" d="M32.54,104.56c.95-.55,1.71-.11,1.72,1a3.76,3.76,0,0,1-1.71,3c-.95.55-1.71.11-1.72-1A3.76,3.76,0,0,1,32.54,104.56Z"/><path class="cls-4" d="M27.51,107.46c.95-.55,1.71-.11,1.72,1a3.76,3.76,0,0,1-1.71,3c-.95.55-1.71.11-1.72-1A3.76,3.76,0,0,1,27.51,107.46Z"/><path class="cls-6" d="M47.64,102.7c.95-.55,1.71-.1,1.72,1a3.76,3.76,0,0,1-1.71,3c-.95.55-1.71.1-1.72-1A3.76,3.76,0,0,1,47.64,102.7Z"/><path class="cls-6" d="M42.61,105.61c.95-.55,1.71-.1,1.72,1a3.76,3.76,0,0,1-1.71,3c-.95.55-1.71.1-1.72-1A3.76,3.76,0,0,1,42.61,105.61Z"/><path class="cls-6" d="M37.59,108.51c.94-.54,1.71-.1,1.72,1a3.77,3.77,0,0,1-1.71,3c-.95.55-1.71.1-1.72-1A3.76,3.76,0,0,1,37.59,108.51Z"/><path class="cls-6" d="M32.56,111.41c.95-.55,1.71-.1,1.72,1a3.76,3.76,0,0,1-1.71,3c-.95.55-1.71.1-1.72-1A3.76,3.76,0,0,1,32.56,111.41Z"/><path class="cls-6" d="M27.53,114.31c.95-.55,1.71-.1,1.72,1a3.76,3.76,0,0,1-1.71,3c-.95.55-1.71.1-1.72-1A3.76,3.76,0,0,1,27.53,114.31Z"/><g id="_Group_" data-name="&lt;Group&gt;"><g id="_Group_2" data-name="&lt;Group&gt;"><path class="cls-10" d="M100.71,119.14H90.66a11.07,11.07,0,0,0-11.07,11.07V132a11.07,11.07,0,0,0,10,11l2.82,7.2,1.6-7c.73,0,1.59-.06,2.52-.15h4.15A11.07,11.07,0,0,0,111.78,132v-1.76A11.07,11.07,0,0,0,100.71,119.14Z"/></g><g id="_Group_3" data-name="&lt;Group&gt;"><g id="_Group_4" data-name="&lt;Group&gt;"><g id="_Group_5" data-name="&lt;Group&gt;"><g id="_Group_6" data-name="&lt;Group&gt;"><g id="_Group_7" data-name="&lt;Group&gt;"><path class="cls-11" d="M111,159.18h-7.2V157.7H111a7.91,7.91,0,0,0,6.65-4.44l.21-.5c1.12-2.69,1.83-4.48,2-4.89l0-.06h1.46V148c0,.16,0,.32-2.09,5.35l-.21.5A9.4,9.4,0,0,1,111,159.18Z"/></g></g><g id="_Group_8" data-name="&lt;Group&gt;"><g id="_Group_9" data-name="&lt;Group&gt;"><path class="cls-11" d="M93.24,97.6a25.08,25.08,0,0,0-25,25.12v4.23H71.9v-4.23a21.43,21.43,0,0,1,21.34-21.47h2.18V97.6Z"/></g><g id="_Group_10" data-name="&lt;Group&gt;"><path class="cls-12" d="M97.6,97.6H95.42v3.65H97.6a21.43,21.43,0,0,1,21.34,21.47v4.23h3.63v-4.23A25.08,25.08,0,0,0,97.6,97.6Z"/></g></g><g id="_Group_11" data-name="&lt;Group&gt;"><g id="_Group_12" data-name="&lt;Group&gt;"><path id="_Path_" data-name="&lt;Path&gt;" class="cls-13" d="M128.51,127.39a7.64,7.64,0,0,0-5-2.55,6,6,0,0,0-3.08,0v27.41a6,6,0,0,0,3.08,0,7.63,7.63,0,0,0,5-2.55C130.39,147.35,130.39,129.74,128.51,127.39Z"/></g><g id="_Group_13" data-name="&lt;Group&gt;"><path id="_Path_2" data-name="&lt;Path&gt;" class="cls-14" d="M116.69,130.21v16.67a5.26,5.26,0,0,0,3.76,5.37V124.84A5.26,5.26,0,0,0,116.69,130.21Z"/></g><g id="_Group_14" data-name="&lt;Group&gt;"><path id="_Path_3" data-name="&lt;Path&gt;" class="cls-15" d="M67.31,124.84a7.64,7.64,0,0,0-5,2.55c-1.87,2.35-1.87,20,0,22.31a7.64,7.64,0,0,0,5,2.55,6,6,0,0,0,3.08,0V124.84A6,6,0,0,0,67.31,124.84Z"/></g><g id="_Group_15" data-name="&lt;Group&gt;"><path id="_Path_4" data-name="&lt;Path&gt;" class="cls-16" d="M70.39,124.84v27.41a5.27,5.27,0,0,0,3.76-5.37V130.21A5.27,5.27,0,0,0,70.39,124.84Z"/></g></g></g><g id="_Group_16" data-name="&lt;Group&gt;"><g id="_Group_17" data-name="&lt;Group&gt;"><path class="cls-1" d="M104.65,128.2H87.19a.74.74,0,1,1,0-1.48h17.47a.74.74,0,1,1,0,1.48Z"/></g></g><g id="_Group_18" data-name="&lt;Group&gt;"><g id="_Group_19" data-name="&lt;Group&gt;"><path class="cls-1" d="M104.65,132.25H87.19a.74.74,0,1,1,0-1.48h17.47a.74.74,0,1,1,0,1.48Z"/></g></g><g id="_Group_20" data-name="&lt;Group&gt;"><g id="_Group_21" data-name="&lt;Group&gt;"><path class="cls-1" d="M104.65,136.29H87.19a.74.74,0,1,1,0-1.48h17.47a.74.74,0,1,1,0,1.48Z"/></g></g></g><g id="_Group_22" data-name="&lt;Group&gt;"><g id="_Group_23" data-name="&lt;Group&gt;"><path class="cls-17" d="M94.86,163.43H100a5.36,5.36,0,0,0,5.36-5.36H89.5A5.36,5.36,0,0,0,94.86,163.43Z"/></g><g id="_Group_24" data-name="&lt;Group&gt;"><path class="cls-11" d="M100,152.7H94.86a5.36,5.36,0,0,0-5.36,5.36h15.9A5.36,5.36,0,0,0,100,152.7Z"/></g></g></g></g><rect class="cls-18" x="0.5" y="0.5" width="185.99" height="185.99"/></g></g></svg>