<svg xmlns="http://www.w3.org/2000/svg" viewBox="0 0 186.99 186.99"><defs><style>.cls-1{fill:#f9b028;}.cls-2{fill:#f9dc32;}.cls-3{fill:#f9c32a;}.cls-4{fill:#248777;}.cls-5{fill:#2da692;}.cls-6{fill:#32baa4;}.cls-7{fill:#f69c21;}.cls-8{fill:#bbcee1;}.cls-9{fill:#a7bcce;}.cls-10{fill:#fff;}.cls-11{fill:#f4f7ff;}.cls-12{fill:#f9ae40;}.cls-13{fill:#f4c5a2;}.cls-14{fill:#e6e7e8;}.cls-15{fill:#0f4463;}.cls-16{fill:#9d4d36;}.cls-17{fill:#072944;}.cls-18{fill:#07304b;}.cls-19{fill:#0b3b56;}.cls-20{fill:#d4d6d8;}.cls-21{fill:#fed4bd;}.cls-22{fill:#933e31;}.cls-23{fill:#f99840;}.cls-24{fill:none;stroke:#231f20;stroke-miterlimit:10;opacity:0;}</style></defs><title>Asset 18</title><g id="Layer_2" data-name="Layer 2"><g id="Layer_1-2" data-name="Layer 1"><path class="cls-1" d="M111.89,70.94v32.94c0,3.14-4.69,5.69-10.46,5.69S91,107,91,103.88V70.94Z"/><ellipse class="cls-2" cx="101.43" cy="70.94" rx="10.46" ry="5.69"/><path class="cls-3" d="M101.43,76.63C95.65,76.63,91,74.09,91,70.94v32.94c0,3.14,4.69,5.69,10.47,5.69a18.48,18.48,0,0,0,3.51-.34V76.3A18.44,18.44,0,0,1,101.43,76.63Z"/><path class="cls-4" d="M111.89,31.07V70.94c0,3.14-4.69,5.69-10.46,5.69S91,74.09,91,70.94V31.07Z"/><ellipse class="cls-5" cx="101.43" cy="31.07" rx="10.46" ry="5.69"/><path class="cls-6" d="M101.43,36.76C95.65,36.76,91,34.21,91,31.07V70.94c0,3.14,4.69,5.69,10.47,5.69a18.44,18.44,0,0,0,3.51-.34V36.43A18.48,18.48,0,0,1,101.43,36.76Z"/><path class="cls-1" d="M95.18,87.5v26c0,3.14-4.68,5.69-10.46,5.69s-10.46-2.55-10.46-5.69v-26Z"/><ellipse class="cls-2" cx="84.71" cy="87.5" rx="10.46" ry="5.69"/><path class="cls-3" d="M84.71,93.19c-5.78,0-10.46-2.55-10.46-5.69v26c0,3.14,4.69,5.69,10.46,5.69a18.39,18.39,0,0,0,3.51-.34v-26A18.44,18.44,0,0,1,84.71,93.19Z"/><path class="cls-4" d="M95.18,61.48v26c0,3.14-4.68,5.69-10.46,5.69S74.25,90.64,74.25,87.5v-26Z"/><ellipse class="cls-5" cx="84.71" cy="61.48" rx="10.46" ry="5.69"/><path class="cls-6" d="M84.71,67.17c-5.78,0-10.46-2.55-10.46-5.69v26c0,3.14,4.69,5.69,10.46,5.69a18.44,18.44,0,0,0,3.51-.34v-26A18.45,18.45,0,0,1,84.71,67.17Z"/><path class="cls-1" d="M78.47,100.81v22.34c0,3.14-4.68,5.69-10.46,5.69s-10.46-2.55-10.46-5.69V100.81Z"/><ellipse class="cls-2" cx="68" cy="100.81" rx="10.46" ry="5.69"/><path class="cls-3" d="M68,106.5c-5.78,0-10.46-2.55-10.46-5.69v22.34c0,3.14,4.69,5.69,10.46,5.69a18.48,18.48,0,0,0,3.51-.34V106.16A18.48,18.48,0,0,1,68,106.5Z"/><path class="cls-4" d="M78.47,92.48v8.33c0,3.14-4.68,5.69-10.46,5.69S57.54,104,57.54,100.81V92.48Z"/><ellipse class="cls-5" cx="68" cy="92.48" rx="10.46" ry="5.69"/><path class="cls-6" d="M68,98.17c-5.78,0-10.46-2.55-10.46-5.69v8.33c0,3.14,4.69,5.69,10.46,5.69a18.48,18.48,0,0,0,3.51-.34V97.84A18.48,18.48,0,0,1,68,98.17Z"/><path class="cls-1" d="M61.75,119.21v13.58c0,3.14-4.68,5.69-10.46,5.69s-10.46-2.55-10.46-5.69V119.21Z"/><ellipse class="cls-2" cx="51.29" cy="119.21" rx="10.46" ry="5.69"/><path class="cls-3" d="M51.29,124.9c-5.78,0-10.46-2.55-10.46-5.69v13.58c0,3.14,4.68,5.69,10.46,5.69a18.48,18.48,0,0,0,3.51-.34V124.56A18.4,18.4,0,0,1,51.29,124.9Z"/><path class="cls-4" d="M61.75,105.62v13.58c0,3.14-4.68,5.69-10.46,5.69s-10.46-2.55-10.46-5.69V105.62Z"/><ellipse class="cls-5" cx="51.29" cy="105.62" rx="10.46" ry="5.69"/><path class="cls-6" d="M51.29,111.31c-5.78,0-10.46-2.55-10.46-5.69v13.58c0,3.14,4.68,5.69,10.46,5.69a18.4,18.4,0,0,0,3.51-.34V111A18.48,18.48,0,0,1,51.29,111.31Z"/><path class="cls-7" d="M48.26,73.6c1.58-.4,3.6-1.08,3.6,1.55a7.19,7.19,0,0,1-3.58,5.63v1.37l-.95.55V81.31c-2,1-3.47.59-3.55-1.55l2.69-1.55c.06.67.35.92.86.81V76.35c-1.58.43-3.56,1.07-3.57-1.59,0-2.12,1.54-4.27,3.55-5.58V67.8l.95-.55v1.37c2-1,3.32-.54,3.46,1.54L49,71.73c-.06-.59-.34-.82-.75-.76Zm0,4.93a2.32,2.32,0,0,0,1-1.76c0-.61-.38-.73-1-.65v2.41m-1-4.75V71.44a2,2,0,0,0-.88,1.64c0,.59.36.74.89.71"/><path class="cls-7" d="M95.63,10.31c1.58-.4,3.6-1.08,3.6,1.55a7.19,7.19,0,0,1-3.58,5.63v1.37l-.95.55V18c-2,1-3.47.59-3.55-1.55l2.69-1.55c.06.67.35.92.86.81V13.05c-1.58.43-3.56,1.07-3.57-1.59,0-2.12,1.54-4.27,3.55-5.58V4.51L95.61,4V5.33c2-1,3.32-.54,3.46,1.54l-2.7,1.56c-.06-.59-.34-.82-.75-.76Zm0,4.93a2.32,2.32,0,0,0,1-1.76c0-.61-.38-.73-1-.65v2.41m-1-4.75V8.14a2,2,0,0,0-.88,1.64c0,.59.36.74.89.71"/><path class="cls-7" d="M66.31,40.84c2.46-.63,5.62-1.68,5.64,2.42,0,2.86-2,6.52-5.6,8.81v2.15l-1.48.85V52.9c-3.14,1.5-5.42.93-5.55-2.42l4.2-2.42c.09,1,.55,1.44,1.34,1.27V45.14c-2.47.68-5.56,1.67-5.58-2.49,0-3.32,2.41-6.67,5.54-8.73V31.77l1.48-.85v2.15c3.16-1.52,5.19-.84,5.41,2.4l-4.22,2.44c-.1-.92-.54-1.28-1.18-1.19Zm0,7.71a3.62,3.62,0,0,0,1.49-2.75c0-1-.6-1.14-1.5-1v3.77m-1.5-7.42V37.46A3.19,3.19,0,0,0,63.44,40c0,.92.56,1.16,1.39,1.1"/><path class="cls-7" d="M53.22,21.07c1.22-.31,2.79-.84,2.8,1.2a5.59,5.59,0,0,1-2.78,4.38v1.07l-.73.42V27.06c-1.56.74-2.7.46-2.76-1.2l2.09-1.2c0,.52.27.72.67.63V23.2c-1.23.34-2.77.83-2.77-1.24a5.62,5.62,0,0,1,2.76-4.34V16.56l.73-.42v1.07c1.57-.76,2.58-.42,2.69,1.19l-2.1,1.21c0-.46-.27-.64-.58-.59Zm0,3.83A1.8,1.8,0,0,0,54,23.53c0-.47-.3-.57-.74-.5V24.9m-.75-3.69V19.39a1.58,1.58,0,0,0-.68,1.27c0,.46.28.58.69.55"/><polygon class="cls-8" points="134.26 30.71 101.71 49.41 101.71 88.31 134.26 69.48 134.26 30.71"/><polygon class="cls-9" points="101.71 49.41 99.26 47.95 99.26 86.85 101.71 88.31 101.71 49.41"/><polygon class="cls-10" points="134.26 30.71 131.76 29.27 99.26 47.95 101.71 49.41 134.26 30.71"/><polygon class="cls-11" points="131.51 35.58 104.46 51.12 104.46 83.44 131.51 67.8 131.51 35.58"/><polygon class="cls-8" points="105.52 79.11 105.52 79.96 103.99 80.85 103.99 80 105.52 79.11"/><polygon class="cls-8" points="105.52 75.86 105.52 76.71 103.99 77.6 103.99 76.74 105.52 75.86"/><polygon class="cls-8" points="105.52 72.61 105.52 73.46 103.99 74.35 103.99 73.49 105.52 72.61"/><polygon class="cls-8" points="105.52 69.36 105.52 70.2 103.99 71.09 103.99 70.24 105.52 69.36"/><polygon class="cls-8" points="105.52 66.11 105.52 66.95 103.99 67.84 103.99 66.99 105.52 66.11"/><polygon class="cls-8" points="105.52 62.85 105.52 63.7 103.99 64.59 103.99 63.74 105.52 62.85"/><polygon class="cls-8" points="105.52 59.6 105.52 60.45 103.99 61.34 103.99 60.48 105.52 59.6"/><polygon class="cls-8" points="105.52 56.35 105.52 57.2 103.99 58.09 103.99 57.23 105.52 56.35"/><polygon class="cls-12" points="107 79.19 129.56 66.14 129.56 47.21 107 79.19"/><polygon class="cls-12" points="110.59 50.31 110.59 56.72 107 58.8 107 52.37 110.59 50.31"/><polygon class="cls-6" points="107 79.19 129.56 47.21 129.56 39.34 107 79.19"/><path class="cls-13" d="M110.41,93.24s-1.61.18-2.13.31-2.61.43-3.3,1,1,.55,1.48.71-.6.64-1.3,1.2a3.67,3.67,0,0,0-1.46,2.35c-.25,1,3,3.41,3.8,1.95a3.91,3.91,0,0,1,2.26-2.2,14.51,14.51,0,0,0,3.17-2.49Z"/><path class="cls-14" d="M110.45,92.35l-1.29.83a39.12,39.12,0,0,0,2.74,4.09l1.43-.83Z"/><polygon class="cls-15" points="121.98 85.14 110.07 92.42 112.9 96.85 126.57 89.31 130.14 84.14 130.53 69.66 121.98 85.14"/><path class="cls-16" d="M136.34,147.42,131,147.1a3.7,3.7,0,0,1-2.37,1.46c-1.85.49-5.51,2.65-4.74,4.46s3.84,1.78,5.53,1a19.63,19.63,0,0,1,3.89-1.17l.42.73,3.42-.88.12-4.89Z"/><path class="cls-16" d="M139.63,149.71a8,8,0,0,1-1.67,2.52c-.86.64-3.27,4.42-2.55,5.68a3.28,3.28,0,0,0,3.31,1.48,7.43,7.43,0,0,0,4.15-3.06l.7-1.36s.32.59.41.57a26.34,26.34,0,0,0,2.63-1.55s-.2-3.78-.36-5.46Z"/><path class="cls-17" d="M136.74,100.08h-7.11c-.15.22-.29,17.54-.21,20.36s1,26.77,1,26.77a8.41,8.41,0,0,0,7.2,1l.78-30.1Z"/><path class="cls-18" d="M145.73,98.13s.15,8.95,0,11.91.89,15.6,1,15.9.38,23.19.38,23.19-3,2.57-8.49,1.38c0,0-1.66-31.09-2.26-35.93s-1.28-14.81-1.28-14.81Z"/><path class="cls-19" d="M142.87,67.92,134,68.2l-3.43,1.46a30,30,0,0,0-2.1,8.22c-.74,5.41.72,21.88.72,21.88,3.36,1.68,14.62,1.23,14.62,1.23,2.07-5.33,4.1-29.63,4.1-29.63Z"/><path class="cls-20" d="M136.24,68.13l-3.11,2.66c-1.35,7.86-1.22,23.22-1.1,29.75,1.14.18,2.43.3,3.74.38.31-16.33,5.72-31.85,6.11-33Z"/><path class="cls-19" d="M133.46,72l.57,2.44s-1.19,15.1-1.59,21.52l1.28,2.65,1.63-2.27.3-21,1.6-3A4,4,0,0,0,133.46,72Z"/><polygon class="cls-14" points="135.29 71.77 132.45 72.93 133.56 68.2 135.04 67.19 135.29 71.77"/><polygon class="cls-13" points="141.46 65.88 134.61 66.95 135.29 71.77 141.91 67.88 141.46 65.88"/><path class="cls-21" d="M143.12,61.43c0,3.74-2.72,6.77-6.08,6.77s-5.38-3-5.38-6.77,2-6.77,5.38-6.77S143.12,57.7,143.12,61.43Z"/><path class="cls-18" d="M137.56,61s-.9,3.83,1.09,3.78,1.22.69,1.73,1.48,2,.25,2.9-1.63,1.89-6.09.41-8.15a8,8,0,0,0-6.77-2.86c-2.5.22-5.67,2.18-6,4C130.45,60.77,137.56,61,137.56,61Z"/><polygon class="cls-19" points="144.46 99.58 135.81 99.4 135.65 104.37 144.98 105.65 144.46 99.58"/><path class="cls-13" d="M143.11,104.58s-1.19,1.1-1.53,1.52-1.84,1.9-2.06,2.75,1.14-.15,1.61-.31,1.12.27.9,1.13a36.22,36.22,0,0,1-1.79,3.33c-.42.93,3.47,1,4.62-.22a6.52,6.52,0,0,0,1.89-4.15c.13-1.58-.52-2.9-.37-3.58Z"/><polygon class="cls-14" points="142.14 103.59 141.67 105.39 147.11 107.06 147.66 105.08 142.14 103.59"/><path class="cls-15" d="M147.86,71.36s-3.8.31-3.28,6.76S145,89,145,89l-3.11,15.14,5.78,1.56s4-15.45,4-16-1-13.65-1-13.65S150.35,72.52,147.86,71.36Z"/><path class="cls-19" d="M128.87,96.33l-.06,5.92a1,1,0,0,0,.74,1l2.41.6.06-3.88Z"/><polygon class="cls-14" points="142.06 66.88 135.29 71.77 138.26 74.67 142.87 67.92 142.06 66.88"/><path class="cls-13" d="M106.24,107s1.11-1.12,1.53-1.44a10.9,10.9,0,0,1,2.75-1.91c.84-.19-.19,1.1-.36,1.56s.22,1.1,1.07.91a35.25,35.25,0,0,0,3.31-1.62c.92-.37.85,3.41-.38,4.49a6.36,6.36,0,0,1-4.11,1.7c-1.54.07-2.81-.61-3.47-.49Z"/><path class="cls-22" d="M73.29,170.6s-.21.64,2.53.79,5.66.15,6,1.95-2.16,3.9-5.15,4.31a35.74,35.74,0,0,1-9.55-.41c-.42-.08-.78-.28-.84-.7a9.42,9.42,0,0,1,.36-4.15C67.49,170,73.29,170.6,73.29,170.6Z"/><path class="cls-16" d="M80.8,172.64s-.21.64,2.53.79,5.66.15,6,1.95-1.76,3.22-4.75,3.63c-2.58.35-7.74.6-9.79.68A.8.8,0,0,1,74,179a20.76,20.76,0,0,1-.15-4.13C74,172.31,80.8,172.64,80.8,172.64Z"/><path class="cls-17" d="M67.22,128.16s-.3,22.07-.5,24.75-.8,19-.8,19,4.61,2.32,8.19.73l2.05-42Z"/><path class="cls-18" d="M73.68,129.55v22.1c-.2,6.46-.56,23.41-.56,23.41a11.9,11.9,0,0,0,8.61-2.27c-.3-2.88,0-19.18,0-19.18,1.08-8.46,1.73-22.05,1.84-24.55l0-.4Z"/><path class="cls-15" d="M64,97s-3.38,10.52-2.65,16.09a29.74,29.74,0,0,0,5.83,3.78Z"/><ellipse class="cls-21" cx="77.75" cy="87.69" rx="7.33" ry="5.95" transform="translate(-17.15 156.46) rotate(-84.37)"/><path class="cls-23" d="M72.64,91.71a6.51,6.51,0,0,0,4.45-.77A7.69,7.69,0,0,0,79.48,88s1.8.75,2.36-.75,2.78-1.46,2.89-2.8c0,0-.62-6.65-7.73-5.49C77,79,66.87,81,72.64,91.71Z"/><path class="cls-19" d="M72.2,92.95A13.34,13.34,0,0,1,79.86,95a2.57,2.57,0,0,0,.92,1.16c.67.45,5.66,2.34,5.66,2.34s-3.11,21-1.43,30.55c0,0-7.26,5.67-18.59,0,0,0-1.66-26-2.39-32.06C64,97,65.93,94.66,72.2,92.95Z"/><path class="cls-15" d="M86.44,98.51l8.48,9.21L107,105.47s1.39,3.18,1,5.5l-14.71,3.58L83.71,106S80.54,99.43,86.44,98.51Z"/><rect class="cls-24" x="0.5" y="0.5" width="185.99" height="185.99"/></g></g></svg>