<svg xmlns="http://www.w3.org/2000/svg" viewBox="0 0 186.99 186.99"><defs><style>.cls-1{fill:#f5f5f5;}.cls-2{fill:#e6e6e6;}.cls-3{fill:#263238;}.cls-4{fill:#455a64;}.cls-5{fill:#37474f;}.cls-6{fill:#e0e0e0;}.cls-12,.cls-14,.cls-7{fill:#fff;}.cls-8{fill:#27debf;}.cls-9{fill:#ebebeb;}.cls-10{fill:#fafafa;}.cls-11{opacity:0.1;}.cls-12{opacity:0.4;}.cls-13{opacity:0.15;}.cls-14{opacity:0.7;}.cls-15{fill:#ffa8a7;}.cls-16{fill:#f28f8f;}.cls-17{fill:none;stroke:#231f20;stroke-miterlimit:10;opacity:0;}</style></defs><title>Asset 17</title><g id="Layer_2" data-name="Layer 2"><g id="Layer_1-2" data-name="Layer 1"><path id="_Path_" data-name="&lt;Path&gt;" class="cls-1" d="M152.22,166.56c-33.37,16.38-87.48,16.38-120.86,0s-33.37-42.93,0-59.31,87.48-16.38,120.86,0S185.59,150.18,152.22,166.56Z"/><path id="_Path_2" data-name="&lt;Path&gt;" class="cls-2" d="M24.53,155.26c5.29,2.52,13.88,2.52,19.17,0s5.29-6.61,0-9.14-13.88-2.52-19.17,0S19.23,152.74,24.53,155.26Z"/><g id="Device"><g id="_Group_" data-name="&lt;Group&gt;"><path id="_Path_3" data-name="&lt;Path&gt;" class="cls-3" d="M92.29,92.93l15.4,8.89a2.9,2.9,0,0,1,1.24,1.77l3.83,22.1a1.84,1.84,0,0,1-.83,1.77L102,133.2a2.29,2.29,0,0,1-2.07,0L78.7,120.95a1.94,1.94,0,0,1,0-3.44l7.64-4.41a2.62,2.62,0,0,0,1.16-1.79l1.7-16.68a2.54,2.54,0,0,1,1.09-1.75A2.22,2.22,0,0,1,92.29,92.93Z"/><path id="_Path_4" data-name="&lt;Path&gt;" class="cls-4" d="M101,129.32v4.13a2.11,2.11,0,0,1-1-.25L78.7,120.95a2.22,2.22,0,0,1-1-1.72,2,2,0,0,1,.41-1.12h3.48Z"/><path id="_Path_5" data-name="&lt;Path&gt;" class="cls-3" d="M90.35,94l15.4,8.89a2.9,2.9,0,0,1,1.24,1.77l3.47,20.06a1.84,1.84,0,0,1-.83,1.77L102,131a2.29,2.29,0,0,1-2.07,0L78.7,118.71a.63.63,0,0,1,0-1.19l7.64-4.41a2.62,2.62,0,0,0,1.16-1.79l1.7-16.68A.71.71,0,0,1,90.35,94Z"/><path id="_Path_6" data-name="&lt;Path&gt;" class="cls-5" d="M78.7,117.51l7.64-4.41a2.39,2.39,0,0,0,.76-.76l23.22,13.41a1.74,1.74,0,0,1-.68.8L102,131a2.29,2.29,0,0,1-2.07,0L78.7,118.71A.63.63,0,0,1,78.7,117.51Z"/></g><g id="_Group_2" data-name="&lt;Group&gt;"><path id="_Path_7" data-name="&lt;Path&gt;" class="cls-4" d="M141.24,136.88l1-.57a3.2,3.2,0,0,0,1.45-2.51V67.66a3.19,3.19,0,0,0-1.45-2.51L61.41,18.75a3.21,3.21,0,0,0-2.9,0l-.75.43a3.2,3.2,0,0,0-1.45,2.51V87.85a3.2,3.2,0,0,0,1.45,2.51l80.58,46.52A3.2,3.2,0,0,0,141.24,136.88Z"/><path id="_Path_8" data-name="&lt;Path&gt;" class="cls-3" d="M137.85,69.35l5.4-3.12a3,3,0,0,1,.43,1.43V133.8a3.2,3.2,0,0,1-1.45,2.51l-1,.57a3.2,3.2,0,0,1-2.9,0l-.49-.28Z"/><path id="_Path_9" data-name="&lt;Path&gt;" class="cls-5" d="M139.79,136V69.9a3.2,3.2,0,0,0-1.45-2.51L57.76,20.86c-.8-.46-1.45-.09-1.45.84V87.85a3.2,3.2,0,0,0,1.45,2.51l80.58,46.52C139.14,137.34,139.79,137,139.79,136Z"/><path id="_Path_10" data-name="&lt;Path&gt;" class="cls-6" d="M102,111.39,94.31,107c-.57-.33-1-.1-1,.52a2.22,2.22,0,0,0,1,1.72l7.64,4.41c.57.33,1,.1,1-.52A2.22,2.22,0,0,0,102,111.39Z"/><path id="_Path_11" data-name="&lt;Path&gt;" class="cls-7" d="M136.08,69.41,60.19,25.47c-.46-.26-.83-.05-.83.48V83.6A1.83,1.83,0,0,0,60.19,85l75.89,43.82c.46.26.83,0,.83-.48V70.85A1.83,1.83,0,0,0,136.08,69.41Z"/></g></g><g id="Tab"><g id="_Group_3" data-name="&lt;Group&gt;"><path class="cls-6" d="M130.61,70.85,51,24.86c-1.26-.73-2.3-.13-2.3,1.33v52A2.37,2.37,0,0,0,49.73,80L131,126.94c.59.34,1.07.06,1.07-.62V73.41A3.28,3.28,0,0,0,130.61,70.85Z"/></g><path id="_Path_12" data-name="&lt;Path&gt;" class="cls-8" d="M48.66,27.39v-1.2c0-1.46,1-2.06,2.3-1.33l79.64,46a3.28,3.28,0,0,1,1.48,2.56v2.15Z"/><path id="_Path_13" data-name="&lt;Path&gt;" class="cls-7" d="M58.3,30.12a1.75,1.75,0,0,1,.79,1.37c0,.5-.35.71-.79.46a1.75,1.75,0,0,1-.79-1.37C57.51,30.07,57.86,29.87,58.3,30.12Z"/><path id="_Path_14" data-name="&lt;Path&gt;" class="cls-7" d="M55.16,28.31A1.75,1.75,0,0,1,56,29.68c0,.5-.35.71-.79.46a1.75,1.75,0,0,1-.79-1.37C54.37,28.26,54.72,28.06,55.16,28.31Z"/><path id="_Path_15" data-name="&lt;Path&gt;" class="cls-7" d="M52,26.5a1.75,1.75,0,0,1,.79,1.37c0,.5-.35.71-.79.46A1.75,1.75,0,0,1,51.23,27C51.23,26.45,51.58,26.24,52,26.5Z"/></g><g id="Graphics"><g id="_Group_4" data-name="&lt;Group&gt;"><g id="_Group_5" data-name="&lt;Group&gt;"><path id="_Path_16" data-name="&lt;Path&gt;" class="cls-9" d="M53.69,36.52c.07-.22.27-.29.51-.15l50.65,29.25a1.07,1.07,0,0,1,.38.4l1.67-1a1.07,1.07,0,0,0-.38-.4L55.87,35.41a1.17,1.17,0,0,0-1.07,0l-.6.35A1.17,1.17,0,0,0,53.69,36.52Z"/><path id="_Path_17" data-name="&lt;Path&gt;" class="cls-10" d="M53.67,36.68V58.57a1.17,1.17,0,0,0,.53.92l50.65,29.24.07,0,.1,0h0c.2,0,.34-.12.34-.38V66.54a1.1,1.1,0,0,0-.16-.53,1.07,1.07,0,0,0-.38-.4L54.21,36.37c-.24-.14-.45-.07-.51.15a.12.12,0,0,0,0,0A.58.58,0,0,0,53.67,36.68Z"/><path id="_Path_18" data-name="&lt;Path&gt;" class="cls-6" d="M105,88.8a1.23,1.23,0,0,0,.51,0,.93.93,0,0,0,.37-.12l.6-.35a1.19,1.19,0,0,0,.53-.92V65.58a1.08,1.08,0,0,0-.16-.53l-1.67,1a1.1,1.1,0,0,1,.16.53V88.43C105.39,88.69,105.25,88.83,105,88.8Z"/></g><path id="_Compound_Path_" data-name="&lt;Compound Path&gt;" class="cls-8" d="M55.16,48.68l2,4a2,2,0,0,0,.93,1.56,1,1,0,0,0,.48.14.63.63,0,0,0,.32-.08.72.72,0,0,0,.33-.54l3.44-.56a2.07,2.07,0,0,0,.92,1.38,1,1,0,0,0,.48.14.63.63,0,0,0,.32-.08.78.78,0,0,0,.35-.72,1.83,1.83,0,0,0-.2-.78l4.37-4a1.79,1.79,0,0,0,.53.49,1,1,0,0,0,.4.13L73,59.26a.91.91,0,0,0-.15.52,2,2,0,0,0,.94,1.62,1,1,0,0,0,.48.14.63.63,0,0,0,.32-.08.78.78,0,0,0,.35-.72,1.61,1.61,0,0,0-.06-.4l3.66-2.64a2,2,0,0,0,.85,1.12,1,1,0,0,0,.48.14l.17,0,3,8.7a.79.79,0,0,0-.32.69A2,2,0,0,0,83.6,70a1,1,0,0,0,.48.14A.63.63,0,0,0,84.4,70a.67.67,0,0,0,.29-.39l4.66,2.69a2.06,2.06,0,0,0,.93,1.5,1,1,0,0,0,.48.14.63.63,0,0,0,.32-.08.78.78,0,0,0,.35-.72s0,0,0,0l3.07-1.24a2,2,0,0,0,.8,1,1,1,0,0,0,.48.14.63.63,0,0,0,.32-.08h0l3.4,6.49a.93.93,0,0,0-.13.5,2,2,0,0,0,.94,1.62,1,1,0,0,0,.48.14.63.63,0,0,0,.32-.08.67.67,0,0,0,.29-.39l2.25,1.3.1,0a.21.21,0,0,0,.1-.38l-2.41-1.39a2.06,2.06,0,0,0-.93-1.5.82.82,0,0,0-.68-.1l-3.45-6.59a1,1,0,0,0,.06-.35,2,2,0,0,0-.94-1.62.71.71,0,0,0-1.14.66,1.51,1.51,0,0,0,0,.24l-3,1.22a2.06,2.06,0,0,0-.87-1.16.78.78,0,0,0-.79-.06.67.67,0,0,0-.29.39l-4.65-2.69a2.06,2.06,0,0,0-.93-1.5,1,1,0,0,0-.43-.14l-3-8.84a.91.91,0,0,0,.15-.52,2,2,0,0,0-.94-1.62.71.71,0,0,0-1.14.66s0,0,0,.05L74.7,59.94a2,2,0,0,0-.73-.83.85.85,0,0,0-.65-.12l-3.1-9.34a.78.78,0,0,0,.34-.71,2,2,0,0,0-.94-1.62.71.71,0,0,0-1.14.66,1.83,1.83,0,0,0,.2.78l-4.37,4a1.79,1.79,0,0,0-.53-.49.78.78,0,0,0-.8-.06.72.72,0,0,0-.33.54l-3.44.56a2.07,2.07,0,0,0-.92-1.38.78.78,0,0,0-.8-.06.62.62,0,0,0-.19.18l-1.79-3.54a.21.21,0,0,0-.37.19Zm44.6,31.21a.4.4,0,0,1,.14-.36.23.23,0,0,1,.12,0,.56.56,0,0,1,.27.09,1.64,1.64,0,0,1,.73,1.27.31.31,0,0,1-.53.3A1.64,1.64,0,0,1,99.76,79.89Zm-5-8.67a.4.4,0,0,1,.14-.36.23.23,0,0,1,.12,0,.56.56,0,0,1,.27.09A1.64,1.64,0,0,1,96,72.19a.31.31,0,0,1-.53.3A1.64,1.64,0,0,1,94.75,71.22Zm-5,1a.4.4,0,0,1,.14-.36.23.23,0,0,1,.11,0,.56.56,0,0,1,.27.09A1.64,1.64,0,0,1,91,73.15a.31.31,0,0,1-.53.3A1.64,1.64,0,0,1,89.75,72.19Zm-6.67-3.85a.4.4,0,0,1,.14-.36.23.23,0,0,1,.11,0,.56.56,0,0,1,.27.09,1.64,1.64,0,0,1,.73,1.27.31.31,0,0,1-.53.3A1.64,1.64,0,0,1,83.07,68.33ZM78.83,57.2a.4.4,0,0,1,.14-.36.23.23,0,0,1,.12,0,.56.56,0,0,1,.27.09,1.64,1.64,0,0,1,.73,1.27.46.46,0,0,1-.1.33h0l0,0a.4.4,0,0,1-.38-.06A1.64,1.64,0,0,1,78.83,57.2Zm-5.6,2.57a.46.46,0,0,1,.1-.33h0l0,0a.23.23,0,0,1,.12,0,.56.56,0,0,1,.27.09,1.64,1.64,0,0,1,.73,1.27A.31.31,0,0,1,74,61,1.64,1.64,0,0,1,73.24,59.78ZM68.89,48a.4.4,0,0,1,.14-.36.23.23,0,0,1,.12,0,.56.56,0,0,1,.27.09A1.64,1.64,0,0,1,70.15,49a.31.31,0,0,1-.53.3A1.64,1.64,0,0,1,68.89,48Zm-5.84,4.93a.4.4,0,0,1,.14-.36.23.23,0,0,1,.12,0,.56.56,0,0,1,.27.09,1.64,1.64,0,0,1,.73,1.27.31.31,0,0,1-.53.3A1.64,1.64,0,0,1,63.05,52.92Zm-5.49-.34a.4.4,0,0,1,.14-.36.23.23,0,0,1,.12,0,.56.56,0,0,1,.27.09,1.64,1.64,0,0,1,.73,1.27.31.31,0,0,1-.53.3A1.64,1.64,0,0,1,57.57,52.58Z"/></g><g id="_Group_6" data-name="&lt;Group&gt;"><g id="_Group_7" data-name="&lt;Group&gt;"><path id="_Path_19" data-name="&lt;Path&gt;" class="cls-9" d="M83.72,80.83c.07-.22.28-.29.51-.15l20.62,11.91a1.08,1.08,0,0,1,.39.42l1.66-1a1.1,1.1,0,0,0-.39-.41L85.91,79.72a1.17,1.17,0,0,0-1.07,0l-.6.35A1.2,1.2,0,0,0,83.72,80.83Z"/><path id="_Path_20" data-name="&lt;Path&gt;" class="cls-10" d="M83.7,81V97.1a1.19,1.19,0,0,0,.53.92l19.49,11.25,1.13.66.08,0h0c.25.09.44-.05.44-.35V93.51a1.06,1.06,0,0,0-.14-.5,1.08,1.08,0,0,0-.39-.42L84.23,80.68c-.24-.14-.45-.07-.51.15v0A.59.59,0,0,0,83.7,81Z"/><path id="_Path_21" data-name="&lt;Path&gt;" class="cls-6" d="M105,110l.07,0,.09,0,.14,0h.14a1.34,1.34,0,0,0,.29,0,1,1,0,0,0,.25-.09l.6-.35a1.17,1.17,0,0,0,.53-.92V92.55a1.1,1.1,0,0,0-.15-.51l-1.66,1a1.06,1.06,0,0,1,.14.5v16.11C105.39,109.92,105.21,110.06,105,110Z"/></g><g id="_Group_8" data-name="&lt;Group&gt;"><path id="_Path_22" data-name="&lt;Path&gt;" class="cls-8" d="M103.72,106.93V96.2a.79.79,0,0,0-.36-.62l-1-.55c-.2-.11-.36,0-.36.21V106a.79.79,0,0,0,.36.62l1,.55C103.56,107.25,103.72,107.16,103.72,106.93Z"/><path id="_Path_23" data-name="&lt;Path&gt;" class="cls-8" d="M100.39,105V92.34a.79.79,0,0,0-.36-.62l-1-.55c-.2-.11-.36,0-.36.21V104a.79.79,0,0,0,.36.62l1,.55C100.23,105.33,100.39,105.23,100.39,105Z"/><path id="_Path_24" data-name="&lt;Path&gt;" class="cls-8" d="M97,103.08V97a.79.79,0,0,0-.36-.62l-1-.55c-.2-.11-.36,0-.36.21v6.08a.79.79,0,0,0,.36.62l1,.55C96.89,103.4,97,103.31,97,103.08Z"/><path id="_Path_25" data-name="&lt;Path&gt;" class="cls-8" d="M93.71,101.16V93.28a.79.79,0,0,0-.36-.62l-1-.55c-.2-.11-.36,0-.36.21v7.88a.79.79,0,0,0,.36.62l1,.55C93.55,101.48,93.71,101.39,93.71,101.16Z"/><path id="_Path_26" data-name="&lt;Path&gt;" class="cls-8" d="M90.38,99.23V96.55a.79.79,0,0,0-.36-.62l-1-.55c-.2-.11-.36,0-.36.21v2.68a.79.79,0,0,0,.36.62l1,.55C90.22,99.55,90.38,99.46,90.38,99.23Z"/><path id="_Path_27" data-name="&lt;Path&gt;" class="cls-8" d="M87,97.31V88.49a.79.79,0,0,0-.36-.62l-1-.55c-.2-.11-.36,0-.36.21v8.81a.79.79,0,0,0,.36.62l1,.55C86.88,97.62,87,97.53,87,97.31Z"/></g></g><g id="_Group_9" data-name="&lt;Group&gt;"><g id="_Group_10" data-name="&lt;Group&gt;"><path id="_Path_28" data-name="&lt;Path&gt;" class="cls-9" d="M53.69,63.49c.07-.22.28-.29.51-.15l25.63,14.8a1.08,1.08,0,0,1,.39.42l1.66-1a1.1,1.1,0,0,0-.39-.41L55.88,62.38a1.17,1.17,0,0,0-1.07,0l-.6.35A1.2,1.2,0,0,0,53.69,63.49Z"/><path id="_Path_29" data-name="&lt;Path&gt;" class="cls-10" d="M53.67,63.65V79.76a1.19,1.19,0,0,0,.53.92L78.7,94.82l1.13.66.08,0h0c.25.09.44-.05.44-.35V79.06a1.06,1.06,0,0,0-.14-.5,1.08,1.08,0,0,0-.39-.42L54.21,63.34c-.24-.14-.45-.07-.51.15v0A.59.59,0,0,0,53.67,63.65Z"/><path id="_Path_30" data-name="&lt;Path&gt;" class="cls-6" d="M79.93,95.52l.07,0,.09,0,.14,0h.14a1.34,1.34,0,0,0,.29,0,1,1,0,0,0,.25-.09l.6-.35a1.17,1.17,0,0,0,.53-.92V78.1a1.1,1.1,0,0,0-.15-.51l-1.66,1a1.06,1.06,0,0,1,.14.5V95.17C80.37,95.47,80.18,95.62,79.93,95.52Z"/></g><g id="_Group_11" data-name="&lt;Group&gt;"><path id="_Path_31" data-name="&lt;Path&gt;" class="cls-8" d="M70.88,76.75l1.33,4.95a3.55,3.55,0,0,0,.57,1.09l4.28,5.15a2.52,2.52,0,0,0,1-1.68c.3-1.66-.55-3.92-2.2-5.91-.28-.34-.57-.65-.87-1A10.54,10.54,0,0,0,70.88,76.75Z"/><path id="_Path_32" data-name="&lt;Path&gt;" class="cls-8" d="M67.31,83c1.9,3.2,5.52,5.61,8.23,5.45a3,3,0,0,0,1.08-.24l-4.22-5.07a1.29,1.29,0,0,0-.87-.39h0Z"/><path id="_Path_33" data-name="&lt;Path&gt;" class="cls-8" d="M67.68,76.67l3.93,4.73-1.29-4.81A4,4,0,0,0,67.68,76.67Z"/><path id="_Path_34" data-name="&lt;Path&gt;" class="cls-8" d="M67,82.5l4.4-.27a.48.48,0,0,0,.14,0,.21.21,0,0,0,0-.08l0,0-4.28-5.15C65.82,77.88,65.74,80,67,82.5Z"/></g><path id="_Path_35" data-name="&lt;Path&gt;" class="cls-8" d="M64.42,73.3c0,.3-.24.4-.53.23l-8-4.62a1.11,1.11,0,0,1-.53-.84c0-.3.24-.4.53-.23l8,4.62A1.11,1.11,0,0,1,64.42,73.3Z"/><g id="_Group_12" data-name="&lt;Group&gt;"><path id="_Path_36" data-name="&lt;Path&gt;" class="cls-6" d="M64.42,76.52c0,.3-.24.4-.53.23l-8-4.62a1.11,1.11,0,0,1-.53-.84c0-.3.24-.4.53-.23l8,4.62A1.11,1.11,0,0,1,64.42,76.52Z"/><path id="_Path_37" data-name="&lt;Path&gt;" class="cls-6" d="M64.42,78.51c0,.3-.24.4-.53.23l-8-4.62a1.11,1.11,0,0,1-.53-.84c0-.3.24-.4.53-.23l8,4.62A1.11,1.11,0,0,1,64.42,78.51Z"/><path id="_Path_38" data-name="&lt;Path&gt;" class="cls-6" d="M64.42,80.5c0,.3-.24.4-.53.23l-8-4.62a1.11,1.11,0,0,1-.53-.84c0-.3.24-.4.53-.23l8,4.62A1.11,1.11,0,0,1,64.42,80.5Z"/><path id="_Path_39" data-name="&lt;Path&gt;" class="cls-6" d="M64.42,82.48c0,.3-.24.4-.53.23l-8-4.62a1.11,1.11,0,0,1-.53-.84c0-.3.24-.4.53-.23l8,4.62A1.11,1.11,0,0,1,64.42,82.48Z"/></g></g><g id="_Group_13" data-name="&lt;Group&gt;"><g id="_Group_14" data-name="&lt;Group&gt;"><path id="_Path_40" data-name="&lt;Path&gt;" class="cls-9" d="M112.09,78.9c.07-.22.27-.29.51-.15l13.95,8.05a1.14,1.14,0,0,1,.38.4l1.67-1a1.11,1.11,0,0,0-.38-.4l-13.95-8.05a1.19,1.19,0,0,0-1.07,0l-.6.35A1.17,1.17,0,0,0,112.09,78.9Z"/><path id="_Path_41" data-name="&lt;Path&gt;" class="cls-10" d="M112.06,79.06v4.55a1.18,1.18,0,0,0,.53.92l13.95,8.05.1,0h0c.24.07.41-.07.41-.37V87.73a1.06,1.06,0,0,0-.16-.53,1.14,1.14,0,0,0-.38-.4L112.6,78.76c-.24-.14-.45-.07-.51.15a.12.12,0,0,0,0,0A.62.62,0,0,0,112.06,79.06Z"/><path id="_Path_42" data-name="&lt;Path&gt;" class="cls-6" d="M126.67,92.64l.2.05a1.19,1.19,0,0,0,.62-.05l.12-.06.6-.35a1.17,1.17,0,0,0,.53-.92V86.77a1.11,1.11,0,0,0-.16-.53l-1.67,1a1.06,1.06,0,0,1,.16.53v4.55C127.08,92.57,126.91,92.71,126.67,92.64Z"/></g><g id="_Group_15" data-name="&lt;Group&gt;"><path id="_Path_43" data-name="&lt;Path&gt;" class="cls-9" d="M112.09,87.57c.07-.22.27-.29.51-.15l13.95,8.05a1.14,1.14,0,0,1,.38.4l1.67-1a1.11,1.11,0,0,0-.38-.4l-13.95-8.05a1.19,1.19,0,0,0-1.07,0l-.6.35A1.17,1.17,0,0,0,112.09,87.57Z"/><path id="_Path_44" data-name="&lt;Path&gt;" class="cls-10" d="M112.06,87.73v4.55a1.18,1.18,0,0,0,.53.92l13.95,8.05.1,0h0c.24.07.41-.07.41-.37V96.4a1.06,1.06,0,0,0-.16-.53,1.14,1.14,0,0,0-.38-.4L112.6,87.43c-.24-.14-.45-.07-.51.15a.12.12,0,0,0,0,0A.62.62,0,0,0,112.06,87.73Z"/><path id="_Path_45" data-name="&lt;Path&gt;" class="cls-6" d="M126.67,101.31l.2.05a1.19,1.19,0,0,0,.62-.05l.12-.06.6-.35a1.17,1.17,0,0,0,.53-.92V95.44a1.11,1.11,0,0,0-.16-.53l-1.67,1a1.06,1.06,0,0,1,.16.53v4.55C127.08,101.24,126.91,101.38,126.67,101.31Z"/></g><g id="_Group_16" data-name="&lt;Group&gt;"><path id="_Path_46" data-name="&lt;Path&gt;" class="cls-9" d="M112.09,96.24c.07-.22.27-.29.51-.15l13.95,8.05a1.14,1.14,0,0,1,.38.4l1.67-1a1.11,1.11,0,0,0-.38-.4l-13.95-8.05a1.19,1.19,0,0,0-1.07,0l-.6.35A1.17,1.17,0,0,0,112.09,96.24Z"/><path id="_Path_47" data-name="&lt;Path&gt;" class="cls-10" d="M112.06,96.4v4.55a1.18,1.18,0,0,0,.53.92l13.95,8.05.1,0h0c.24.07.41-.07.41-.37v-4.55a1.06,1.06,0,0,0-.16-.53,1.14,1.14,0,0,0-.38-.4L112.6,96.09c-.24-.14-.45-.07-.51.15a.12.12,0,0,0,0,0A.62.62,0,0,0,112.06,96.4Z"/><path id="_Path_48" data-name="&lt;Path&gt;" class="cls-6" d="M126.67,110l.2.05a1.19,1.19,0,0,0,.62-.05l.12-.06.6-.35a1.17,1.17,0,0,0,.53-.92v-4.55a1.11,1.11,0,0,0-.16-.53l-1.67,1a1.06,1.06,0,0,1,.16.53v4.55C127.08,109.91,126.91,110.05,126.67,110Z"/></g><g id="_Group_17" data-name="&lt;Group&gt;"><path id="_Path_49" data-name="&lt;Path&gt;" class="cls-9" d="M112.09,104.91c.07-.22.27-.29.51-.15l13.95,8.05a1.14,1.14,0,0,1,.38.4l1.67-1a1.11,1.11,0,0,0-.38-.4l-13.95-8.05a1.19,1.19,0,0,0-1.07,0l-.6.35A1.17,1.17,0,0,0,112.09,104.91Z"/><path id="_Path_50" data-name="&lt;Path&gt;" class="cls-10" d="M112.06,105.07v4.55a1.18,1.18,0,0,0,.53.92l13.95,8.05.1,0h0c.24.07.41-.07.41-.37v-4.55a1.06,1.06,0,0,0-.16-.53,1.14,1.14,0,0,0-.38-.4l-13.95-8.05c-.24-.14-.45-.07-.51.15a.12.12,0,0,0,0,0A.62.62,0,0,0,112.06,105.07Z"/><path id="_Path_51" data-name="&lt;Path&gt;" class="cls-6" d="M126.67,118.65l.2.05a1.19,1.19,0,0,0,.62-.05l.12-.06.6-.35a1.17,1.17,0,0,0,.53-.92v-4.55a1.11,1.11,0,0,0-.16-.53l-1.67,1a1.06,1.06,0,0,1,.16.53v4.55C127.08,118.58,126.91,118.72,126.67,118.65Z"/></g><g id="_Group_18" data-name="&lt;Group&gt;"><path id="_Path_52" data-name="&lt;Path&gt;" class="cls-8" d="M110.62,71.71l-.05,0,1.5-.86V70.4a.62.62,0,0,1,0-.12.12.12,0,0,1,0,0,1.17,1.17,0,0,1,.51-.76l.6-.35a1.19,1.19,0,0,1,1.07,0l13.95,8.05a1.18,1.18,0,0,1,.53.92v4.55a1.17,1.17,0,0,1-.53.92l-.6.35-.12.06a1.19,1.19,0,0,1-.62.05l-.2-.05h0l-.1,0L112.6,75.87a1.18,1.18,0,0,1-.53-.92V73.63l-1.52-1.76A.1.1,0,0,1,110.62,71.71Z"/><path id="_Path_53" data-name="&lt;Path&gt;" class="cls-11" d="M126.67,84l.2.05a1.19,1.19,0,0,0,.62-.05l.12-.06.6-.35a1.17,1.17,0,0,0,.53-.92V78.1a1.11,1.11,0,0,0-.16-.53l-1.67,1a1.06,1.06,0,0,1,.16.53v4.55C127.08,83.9,126.91,84,126.67,84Z"/><path id="_Path_54" data-name="&lt;Path&gt;" class="cls-12" d="M112.09,70.24c.07-.22.27-.29.51-.15l13.95,8.05a1.14,1.14,0,0,1,.38.4l1.67-1a1.11,1.11,0,0,0-.38-.4l-13.95-8.05a1.19,1.19,0,0,0-1.07,0l-.6.35A1.17,1.17,0,0,0,112.09,70.24Z"/><path id="_Path_55" data-name="&lt;Path&gt;" class="cls-12" d="M110.62,71.71h1.44v-.84l-1.5.86Z"/></g></g></g><g id="Plants"><g id="_Group_19" data-name="&lt;Group&gt;"><g id="_Group_20" data-name="&lt;Group&gt;"><path id="_Path_56" data-name="&lt;Path&gt;" class="cls-8" d="M155.58,145.11l-2.88-1.65a49.61,49.61,0,0,1-.35-14.16c1.45-9.2,7.72-12.38,10-11.46s2.81,3.64-1.3,9C158.62,129.94,155.5,136.57,155.58,145.11Z"/></g><g id="_Group_21" data-name="&lt;Group&gt;" class="cls-11"><path id="_Path_57" data-name="&lt;Path&gt;" d="M155.58,145.11l-2.88-1.65a49.61,49.61,0,0,1-.35-14.16c1.45-9.2,7.72-12.38,10-11.46s2.81,3.64-1.3,9C158.62,129.94,155.5,136.57,155.58,145.11Z"/></g><g id="_Group_22" data-name="&lt;Group&gt;"><path id="_Path_58" data-name="&lt;Path&gt;" class="cls-7" d="M154.54,141.45h0a.21.21,0,0,0,.18-.23c-1.19-8.61,2.27-18.05,6.17-21.86a.21.21,0,1,0-.29-.29c-4,3.87-7.49,13.46-6.29,22.21A.21.21,0,0,0,154.54,141.45Z"/></g></g><g id="_Group_23" data-name="&lt;Group&gt;"><g id="_Group_24" data-name="&lt;Group&gt;"><path id="_Path_59" data-name="&lt;Path&gt;" class="cls-8" d="M163.57,149.72c.46.26,1.39-.31,1.75-.55a4.34,4.34,0,0,0,1.44-1.66,4.07,4.07,0,0,0,.36-2.44,9.63,9.63,0,0,0-.31-1.3l-.36-1.26a3.2,3.2,0,0,1-.18-1.27,3.32,3.32,0,0,1,1.57-2,3.17,3.17,0,0,0,1.57-2.38,3.66,3.66,0,0,0-.92-2.18c-.5-.63-1.09-1.18-1.54-1.85a2.55,2.55,0,0,1-.52-1.61,2.66,2.66,0,0,1,.35-1,14.29,14.29,0,0,0,1.1-2,2,2,0,0,0-.35-2.15,2.38,2.38,0,0,0-1.79-.44,4.1,4.1,0,0,0-1.66.59c-1.65.92-2.59,2.87-4.34,3.58a17.51,17.51,0,0,1-2.12.52,2.61,2.61,0,0,0-1.75,1.2c-.64,1.28.55,2.86.1,4.23-.4,1.21-1.57,1.67-2.23,2.75a2.58,2.58,0,0,0-.31,1.58,7.57,7.57,0,0,0,.67,2.67,19,19,0,0,0,1.46,2.4S163.5,149.68,163.57,149.72Z"/></g><g id="_Group_25" data-name="&lt;Group&gt;"><path id="_Path_60" data-name="&lt;Path&gt;" class="cls-7" d="M158.9,147.23h0a.21.21,0,0,0,.2-.21c-.34-8.15,3.5-17.15,6.3-19.77a.21.21,0,1,0-.28-.3c-2.85,2.67-6.77,11.82-6.43,20.09A.21.21,0,0,0,158.9,147.23Z"/></g><g id="_Group_26" data-name="&lt;Group&gt;"><path id="_Path_61" data-name="&lt;Path&gt;" class="cls-7" d="M160.12,137.6h.06a27.57,27.57,0,0,1,5.92-1,.21.21,0,0,0,.2-.21.2.2,0,0,0-.21-.2,28.06,28.06,0,0,0-6,1,.21.21,0,0,0,.06.4Z"/></g></g></g><g id="Lens"><path id="_Path_62" data-name="&lt;Path&gt;" class="cls-8" d="M129.33,128.63h0a1.37,1.37,0,0,1,.81-1.13,4.31,4.31,0,0,1,3.9,0,1.37,1.37,0,0,1,.81,1.13h0l1.09,28.7h0a1.86,1.86,0,0,1-1.12,1.66,6,6,0,0,1-5.45,0,1.86,1.86,0,0,1-1.12-1.66h0Z"/><path id="_Path_63" data-name="&lt;Path&gt;" class="cls-13" d="M134,127.5a1.19,1.19,0,0,1,0,2.25,4.31,4.31,0,0,1-3.9,0,1.19,1.19,0,0,1,0-2.25A4.31,4.31,0,0,1,134,127.5Z"/><path id="_Path_64" data-name="&lt;Path&gt;" class="cls-3" d="M130.91,119.47a2.61,2.61,0,0,1,2.36,0,.83.83,0,0,1,.49.68h0v8.47h0a.83.83,0,0,1-.49.68,2.61,2.61,0,0,1-2.36,0,.83.83,0,0,1-.49-.68v-8.47h0A.83.83,0,0,1,130.91,119.47Z"/><g id="_Group_27" data-name="&lt;Group&gt;"><path id="_Compound_Path_2" data-name="&lt;Compound Path&gt;" class="cls-8" d="M113.5,99.37c0,9,6.35,20,14.18,24.56a12.1,12.1,0,0,0,7.2,1.89l.37,0h.07l.31-.05.17,0,.23-.06.23-.07.21-.06.39-.14.43-.19.34-.18.07,0h0l0,0h0l5.82-3.36h0c2.55-1.49,4.13-4.66,4.13-9.17,0-9-6.35-20-14.18-24.56a12.89,12.89,0,0,0-6.34-1.94,7.3,7.3,0,0,0-3.66.92l0,0h0l-5.82,3.36h0l0,0-.1.06a4,4,0,0,0-.37.24l-.23.16-.22.17a4.59,4.59,0,0,0-.43.38l-.14.14-.11.12-.13.15a7.48,7.48,0,0,0-.71.94l-.09.14-.13.22,0,.06c0,.08-.09.17-.14.25a1.48,1.48,0,0,0-.11.21c-.05.1-.1.2-.14.3s-.12.28-.18.42l-.14.38,0,.06-.13.4c-.09.28-.16.58-.23.88,0,.11,0,.22-.07.34s0,.24-.07.36-.09.54-.12.82c0,.11,0,.21,0,.32s0,.32,0,.48,0,.33,0,.5S113.5,99.15,113.5,99.37Zm12.74-5.7c6.91,4,12.74,14.1,12.74,22.07a12.8,12.8,0,0,1-.45,3.45,12.32,12.32,0,0,1-3.23-1.34c-6.91-4-12.74-14.1-12.74-22.07a12.63,12.63,0,0,1,.45-3.45A12.3,12.3,0,0,1,126.25,93.67Z"/><path id="_Path_65" data-name="&lt;Path&gt;" class="cls-11" d="M137.91,124.81l5.65-3.26c2.55-1.49,4.13-4.66,4.13-9.16a28.13,28.13,0,0,0-3.36-12.51l-5.82,3.36a28.08,28.08,0,0,1,3.36,12.51C141.87,120.15,140.37,123.28,137.91,124.81Z"/><path id="_Compound_Path_3" data-name="&lt;Compound Path&gt;" class="cls-12" d="M113.5,99.37c0,9,6.35,20,14.18,24.56a12.1,12.1,0,0,0,7.2,1.89l.37,0h.07l.31-.05.17,0,.23-.06.23-.07.21-.06.39-.14.43-.19.34-.18c2.62-1.45,4.25-4.65,4.25-9.23,0-9-6.35-20-14.18-24.56-4-2.3-7.57-2.48-10.15-.92a4,4,0,0,0-.37.24l-.23.16-.22.17a4.59,4.59,0,0,0-.43.38l-.14.14-.11.12-.13.15a7.48,7.48,0,0,0-.71.94l-.09.14-.13.22,0,.06c0,.08-.09.17-.14.25a1.48,1.48,0,0,0-.11.21c-.05.1-.1.2-.14.3s-.12.28-.18.42l-.14.38,0,.06-.13.4c-.09.28-.16.58-.23.88,0,.11,0,.22-.07.34s0,.24-.07.36-.09.54-.12.82c0,.11,0,.21,0,.32s0,.32,0,.48,0,.33,0,.5S113.5,99.15,113.5,99.37Zm2.88,0c0-2.18.48-7.25,5-7.25a7.15,7.15,0,0,1,1.66.21,12.3,12.3,0,0,1,3.23,1.34c6.91,4,12.74,14.1,12.74,22.07a12.8,12.8,0,0,1-.45,3.45c-.56,1.94-1.81,3.8-4.53,3.8a10.15,10.15,0,0,1-4.9-1.55C122.22,117.45,116.38,107.34,116.38,99.37Z"/><path id="_Path_66" data-name="&lt;Path&gt;" class="cls-11" d="M116.38,99.37c0,8,5.83,18.08,12.74,22.07A10.15,10.15,0,0,0,134,123c2.71,0,4-1.85,4.53-3.8a12.32,12.32,0,0,1-3.23-1.34c-6.91-4-12.74-14.1-12.74-22.07a12.63,12.63,0,0,1,.45-3.45,7.15,7.15,0,0,0-1.66-.21C116.86,92.12,116.38,97.19,116.38,99.37Z"/><path id="_Path_67" data-name="&lt;Path&gt;" class="cls-14" d="M118.86,98c0,8,5.83,18.08,12.74,22.07a10.15,10.15,0,0,0,4.9,1.55,5.15,5.15,0,0,0,.86-.07,6.28,6.28,0,0,0,1.19-2.33,12.8,12.8,0,0,0,.45-3.45c0-8-5.84-18.08-12.74-22.07A12.3,12.3,0,0,0,123,92.33a7.15,7.15,0,0,0-1.66-.21,5.2,5.2,0,0,0-.86.07C119.07,93.86,118.86,96.54,118.86,98Z"/></g><path id="_Path_68" data-name="&lt;Path&gt;" class="cls-11" d="M132.89,130.15l.74,29.3a4.73,4.73,0,0,0,1.19-.46,1.86,1.86,0,0,0,1.12-1.66h0l-1.09-28.69a1.37,1.37,0,0,1-.81,1.13A3.6,3.6,0,0,1,132.89,130.15Z"/></g><g id="Character"><g id="Character2"><g id="_Group_28" data-name="&lt;Group&gt;"><g id="_Group_29" data-name="&lt;Group&gt;"><g id="_Group_30" data-name="&lt;Group&gt;"><path id="_Path_69" data-name="&lt;Path&gt;" class="cls-15" d="M24,101.39c0-.32.61-3.68,1-5.56L29,97l-.7,3.46-3.33,2.67C23.89,103,24,101.7,24,101.39Z"/></g><g id="_Group_31" data-name="&lt;Group&gt;"><g id="_Group_32" data-name="&lt;Group&gt;"><path id="_Path_70" data-name="&lt;Path&gt;" class="cls-3" d="M34.33,84.45h-.84a5.89,5.89,0,0,1-5.89-5.89h0a6.31,6.31,0,0,1,6.31-6.31h0a6.31,6.31,0,0,1,6.31,6.31h0A5.89,5.89,0,0,1,34.33,84.45Z"/></g><g id="_Group_33" data-name="&lt;Group&gt;"><polygon id="_Path_71" data-name="&lt;Path&gt;" class="cls-16" points="43.12 94.3 44.99 97.72 42.08 100.22 39.42 95.99 43.12 94.3"/></g><g id="_Group_34" data-name="&lt;Group&gt;"><path id="_Path_72" data-name="&lt;Path&gt;" class="cls-8" d="M36.11,86.66c1.85,0,3.9.69,4.6,2.15l2.9,6A5.26,5.26,0,0,1,39.36,97Z"/></g><g id="_Group_35" data-name="&lt;Group&gt;" class="cls-11"><path id="_Path_73" data-name="&lt;Path&gt;" d="M36.11,86.66c1.85,0,3.9.69,4.6,2.15l2.9,6A5.26,5.26,0,0,1,39.36,97Z"/></g><g id="_Group_36" data-name="&lt;Group&gt;"><path id="_Path_74" data-name="&lt;Path&gt;" class="cls-3" d="M29.85,147.57v-.41a9.67,9.67,0,0,0,2,3.55c.9.82,2.12,1.76,2.43,2.67s-1.7,1.26-2.54,1.12a5.16,5.16,0,0,1-2.91-1.56c-.48-.59-.79-1.29-1.13-1.76s-1.14-1-1.32-1.52a3.43,3.43,0,0,1,.16-1.49c.13-.5.27-1.05.45-1,0,.06,0,.31,0,.31a2.24,2.24,0,0,0,1.42.48C28.85,148,29.85,147.89,29.85,147.57Z"/></g><g id="_Group_37" data-name="&lt;Group&gt;"><path id="_Path_75" data-name="&lt;Path&gt;" class="cls-15" d="M32.69,151.44l-.81-.72A8.23,8.23,0,0,1,30.15,148a3.89,3.89,0,0,1-.3-1.49v-1.62H27v2.63h0v.07h0a19.26,19.26,0,0,0,2.18,3.18,4.12,4.12,0,0,0,2.56,1.71C32.84,152.58,33.38,152.25,32.69,151.44Z"/></g><g id="_Group_38" data-name="&lt;Group&gt;"><path id="_Path_76" data-name="&lt;Path&gt;" class="cls-3" d="M40.39,144.84v-.41a9.67,9.67,0,0,0,2,3.55c.9.82,2.12,1.76,2.43,2.67s-1.7,1.26-2.54,1.12a5.16,5.16,0,0,1-2.91-1.56c-.48-.59-.79-1.29-1.13-1.76s-1.14-1-1.32-1.52a3.43,3.43,0,0,1,.16-1.49c.13-.5.27-1.05.45-1,0,.06,0,.31,0,.31a2.24,2.24,0,0,0,1.42.48C39.39,145.24,40.4,145.15,40.39,144.84Z"/></g><g id="_Group_39" data-name="&lt;Group&gt;"><path id="_Path_77" data-name="&lt;Path&gt;" class="cls-15" d="M43.23,148.7l-.81-.72a8.23,8.23,0,0,1-1.73-2.76,3.89,3.89,0,0,1-.3-1.49v-1.62H37.56v2.63h0v.07h0A19.26,19.26,0,0,0,39.75,148a4.12,4.12,0,0,0,2.56,1.71C43.38,149.85,43.93,149.51,43.23,148.7Z"/></g><g id="_Group_40" data-name="&lt;Group&gt;"><path id="_Path_78" data-name="&lt;Path&gt;" class="cls-5" d="M27.58,103.48c-2.2,4.8.08,21.73.08,21.73A32,32,0,0,0,26.37,131C26,135,27,145.18,27,145.18a3.07,3.07,0,0,0,2.87.11s2.7-15.33,3.21-19.36c.44-3.52,1.3-11.79,1.3-11.79l2.42,11.77a18.81,18.81,0,0,0-.67,4.15c-.06,2.38,1.39,12.83,1.39,12.83.28.53,2.39.66,2.95,0,0,0,1.25-14.67,1.5-17.52.15-1.7-1.79-22.6-1.79-22.6Z"/></g><g id="_Group_41" data-name="&lt;Group&gt;"><path id="_Path_79" data-name="&lt;Path&gt;" class="cls-3" d="M34.36,114.15l.71-3.93s3-.63,4.39-1.91a7.82,7.82,0,0,1-3.57,2.37l-.8,3.44,1.4,10.4Z"/></g><g id="_Group_42" data-name="&lt;Group&gt;"><path id="_Path_80" data-name="&lt;Path&gt;" class="cls-8" d="M31.46,86.79h0a5.57,5.57,0,0,0-3.72,3,4.83,4.83,0,0,0-.13,3.63l2,5.69s-.92,2.22-2,4.33c4.93,2.75,11.09,1.31,12.57-.7.06-.43,0-2.35.1-4.53s.45-5,.08-6.4c-.68-2.67-2-5.18-4.49-5.18Z"/></g><g id="_Group_43" data-name="&lt;Group&gt;"><path id="_Path_81" data-name="&lt;Path&gt;" class="cls-8" d="M31.46,86.79c-1.68.24-4.3.57-5.46,4.66s-1.39,5.38-1.39,5.38a5.61,5.61,0,0,0,4.17,1.59l.87-3.07Z"/></g><g id="_Group_44" data-name="&lt;Group&gt;"><path id="_Path_82" data-name="&lt;Path&gt;" class="cls-15" d="M37.86,75.44c.67.39,1.49,2.07,1.41,5.59-.07,3-1,3.71-1.52,3.93a5.12,5.12,0,0,1-2.33-.07v1.79S36.68,88.13,36.6,89s-1.81,1-3,.21a7.61,7.61,0,0,1-1.93-2V82.82a1.14,1.14,0,0,1-1.62.15,2.14,2.14,0,0,1-.46-2.91,1.3,1.3,0,0,1,2.08.41,7.19,7.19,0,0,0,3.38-1A5.43,5.43,0,0,0,37.86,75.44Z"/></g><g id="_Group_45" data-name="&lt;Group&gt;"><ellipse id="_Path_83" data-name="&lt;Path&gt;" class="cls-3" cx="35.57" cy="80.3" rx="0.37" ry="0.39" transform="translate(-3.77 1.78) rotate(-2.72)"/></g><g id="_Group_46" data-name="&lt;Group&gt;"><path id="_Path_84" data-name="&lt;Path&gt;" class="cls-16" d="M36,82.8l.87.28a.45.45,0,0,1-.57.31A.48.48,0,0,1,36,82.8Z"/></g><g id="_Group_47" data-name="&lt;Group&gt;"><path id="_Path_85" data-name="&lt;Path&gt;" class="cls-3" d="M39,79.13l-.76-.53a.44.44,0,0,1,.63-.13A.48.48,0,0,1,39,79.13Z"/></g><g id="_Group_48" data-name="&lt;Group&gt;"><ellipse id="_Path_86" data-name="&lt;Path&gt;" class="cls-3" cx="38.47" cy="80.03" rx="0.37" ry="0.39" transform="translate(-3.75 1.91) rotate(-2.71)"/></g><g id="_Group_49" data-name="&lt;Group&gt;"><polygon id="_Path_87" data-name="&lt;Path&gt;" class="cls-16" points="37.07 79.79 37.13 82.05 38.32 81.68 37.07 79.79"/></g><g id="_Group_50" data-name="&lt;Group&gt;"><path id="_Path_88" data-name="&lt;Path&gt;" class="cls-16" d="M35.42,84.89c-1-.13-2.93-.69-3.24-1.47a2,2,0,0,0,.69,1,10.38,10.38,0,0,0,2.55,1.07Z"/></g></g><g id="_Group_51" data-name="&lt;Group&gt;"><path id="_Path_89" data-name="&lt;Path&gt;" class="cls-11" d="M29,97.42a29.63,29.63,0,0,0,1-3.12,11.48,11.48,0,0,1-.81,3.57Z"/></g></g></g><g id="_Group_52" data-name="&lt;Group&gt;"><polygon id="_Path_90" data-name="&lt;Path&gt;" class="cls-6" points="51.1 94.08 40.22 96.95 37.01 110.45 47.35 107.44 51.1 94.08"/></g><g id="_Group_53" data-name="&lt;Group&gt;" class="cls-11"><path id="_Path_91" data-name="&lt;Path&gt;" d="M46.36,103a2,2,0,0,0,2,1l.16-.56Z"/></g><g id="_Group_54" data-name="&lt;Group&gt;" class="cls-11"><path id="_Path_92" data-name="&lt;Path&gt;" d="M43.93,103.44c0,.36-.79,1-2,1.44a10.35,10.35,0,0,1-3.61.22l.2-.67Z"/></g><g id="_Group_55" data-name="&lt;Group&gt;" class="cls-11"><path id="_Path_93" data-name="&lt;Path&gt;" d="M47.92,96l.09-.41c0-.23-.59-.24-1.43,0L45,96c-.84.22-1.56.58-1.61.81l-.09.41Z"/></g><g id="_Group_56" data-name="&lt;Group&gt;"><path id="_Path_94" data-name="&lt;Path&gt;" class="cls-5" d="M48.67,94.47c0-.14-.23-.18-.58-.08l-.63.18s.19-.9-1.22-.58a2.21,2.21,0,0,0-1.72,1.33l-.68.19c-.37.11-.71.31-.76.45l-.08.26,5.6-1.48Z"/></g><g id="_Group_57" data-name="&lt;Group&gt;"><path id="_Path_95" data-name="&lt;Path&gt;" class="cls-5" d="M47.9,94.92c-.51.12-.73.19-.8.55s-.12.7-.12.7l-2.48.66s.12-.51.16-.71,0-.32-.44-.21l0-.16,3.89-1Z"/></g><g id="_Group_58" data-name="&lt;Group&gt;"><path id="_Path_96" data-name="&lt;Path&gt;" class="cls-5" d="M48,96.08l.09-.41c0-.23-.59-.24-1.43,0l-1.6.42c-.84.22-1.56.58-1.6.81l-.09.41Z"/></g><g id="_Group_59" data-name="&lt;Group&gt;"><path id="_Path_97" data-name="&lt;Path&gt;" class="cls-15" d="M24.93,103.17l3.33-2.67s7.36,1.31,8.23,1.38a2.27,2.27,0,0,0,2.16-1.39c.33-.85.91-.74.91-.74l-.34,1.42c-.08.34,2,.63,3.14.24s2.82.18,1.78,1.74-3,1.75-4.43,1.75a14.65,14.65,0,0,1-1.74-.12c-.45-.06-.9-.1-1.35-.14A116,116,0,0,1,24.93,103.17Z"/></g><g id="_Group_60" data-name="&lt;Group&gt;"><path id="_Path_98" data-name="&lt;Path&gt;" class="cls-15" d="M50,98l-.48,1.72c-.09.33-1.36.93-2.16,1.15s-1.67.48-1.3,1.6,1.66,1.27,2.33,1.24a2.48,2.48,0,0,0,1.95-1.7c.46-1.32.21-2.72.4-3.49S50.39,97.57,50,98Z"/></g></g><path id="_Path_99" data-name="&lt;Path&gt;" class="cls-3" d="M24.14,89.19h0a4,4,0,0,0,4-4V75.93h0a4,4,0,0,0-4,4Z"/><g id="_Group_61" data-name="&lt;Group&gt;"><path id="_Path_100" data-name="&lt;Path&gt;" class="cls-3" d="M28.22,76.26l-1.64-.88A.91.91,0,0,1,27.82,75,1,1,0,0,1,28.22,76.26Z"/></g></g><g id="Cloud"><path id="Nube" class="cls-9" d="M135.91,37l2.82,1.63a3.4,3.4,0,0,1,0-.37v-.82c0-1.45,1-2,2.28-1.32a4.41,4.41,0,0,1,1.36,1.31c.21-1.83,1.64-2.51,3.38-1.5a7.54,7.54,0,0,1,3.41,5.9V43a3.22,3.22,0,0,1-.29,1.42l2.34,1.35A2.79,2.79,0,0,1,152.45,48c0,.81-.57,1.13-1.26.73l-15.28-8.82a2.79,2.79,0,0,1-1.26-2.19C134.65,36.87,135.21,36.55,135.91,37Z"/></g><rect class="cls-17" x="0.5" y="0.5" width="185.99" height="185.99"/></g></g></svg>