<svg xmlns="http://www.w3.org/2000/svg" xmlns:xlink="http://www.w3.org/1999/xlink" viewBox="0 0 186.99 193.4"><defs><style>.cls-1,.cls-53{fill:none;}.cls-2{fill:#f5f5f5;}.cls-3,.cls-5,.cls-6,.cls-7,.cls-8{fill:#f69c21;}.cls-3,.cls-4{opacity:0.5;}.cls-4{fill:#465faa;}.cls-5,.cls-9{opacity:0.75;}.cls-6{opacity:0.88;}.cls-7{opacity:0.97;}.cls-10,.cls-9{fill:#42e8e0;}.cls-11{fill:#24126a;}.cls-12{fill:url(#Áåçûìÿííûé_ãðàäèåíò_2);}.cls-13{fill:url(#Áåçûìÿííûé_ãðàäèåíò_2-2);}.cls-14{fill:url(#Áåçûìÿííûé_ãðàäèåíò_2-3);}.cls-15{fill:url(#Áåçûìÿííûé_ãðàäèåíò_2-4);}.cls-16{fill:url(#Áåçûìÿííûé_ãðàäèåíò_2-5);}.cls-17{fill:url(#Áåçûìÿííûé_ãðàäèåíò_3);}.cls-18,.cls-19,.cls-21,.cls-36,.cls-37,.cls-38,.cls-40,.cls-41{opacity:0.5;}.cls-18{fill:url(#Áåçûìÿííûé_ãðàäèåíò_254);}.cls-19{fill:url(#Áåçûìÿííûé_ãðàäèåíò_254-2);}.cls-20{fill:#515151;}.cls-22{fill:url(#Áåçûìÿííûé_ãðàäèåíò_254-3);}.cls-23,.cls-43{fill:#2d2d2d;}.cls-24{fill:url(#Áåçûìÿííûé_ãðàäèåíò_254-4);}.cls-25{fill:#160a5b;}.cls-26{fill:#453c9e;}.cls-27{fill:#fcd1c5;}.cls-28{fill:#f0f6ff;}.cls-29{fill:#c4ccd6;}.cls-30{fill:#e2b1a6;}.cls-31{fill:#aa8383;}.cls-32{fill:#936d6d;}.cls-33{fill:#263649;}.cls-34{clip-path:url(#clip-path);}.cls-35{fill:#334659;}.cls-36{fill:url(#Áåçûìÿííûé_ãðàäèåíò_254-5);}.cls-37{fill:url(#Áåçûìÿííûé_ãðàäèåíò_254-6);}.cls-38{fill:url(#Áåçûìÿííûé_ãðàäèåíò_254-7);}.cls-39{fill:#180d5b;opacity:0.3;}.cls-40{fill:url(#Áåçûìÿííûé_ãðàäèåíò_254-8);}.cls-41{fill:url(#Áåçûìÿííûé_ãðàäèåíò_254-9);}.cls-42{fill:#4846a5;}.cls-43{opacity:0.63;}.cls-44{fill:url(#Áåçûìÿííûé_ãðàäèåíò_2-6);}.cls-45{fill:url(#Áåçûìÿííûé_ãðàäèåíò_3-2);}.cls-46{fill:#fff;}.cls-47{fill:#2842a2;}.cls-48{fill:#adb1f2;}.cls-49{fill:#9198db;}.cls-50{fill:url(#Áåçûìÿííûé_ãðàäèåíò_3-3);}.cls-51{fill:url(#Áåçûìÿííûé_ãðàäèåíò_3-4);}.cls-52{fill:url(#Áåçûìÿííûé_ãðàäèåíò_2-7);}.cls-53{stroke:#231f20;stroke-miterlimit:10;opacity:0;}</style><linearGradient id="Áåçûìÿííûé_ãðàäèåíò_2" x1="120.04" y1="149.56" x2="79.38" y2="159.49" gradientUnits="userSpaceOnUse"><stop offset="0" stop-color="#5761d7"/><stop offset="0.18" stop-color="#5c66d9"/><stop offset="0.39" stop-color="#6a73df"/><stop offset="0.61" stop-color="#8289e8"/><stop offset="0.85" stop-color="#a3a7f5"/><stop offset="1" stop-color="#bcbeff"/></linearGradient><linearGradient id="Áåçûìÿííûé_ãðàäèåíò_2-2" x1="120.35" y1="145.93" x2="165.37" y2="145.93" xlink:href="#Áåçûìÿííûé_ãðàäèåíò_2"/><linearGradient id="Áåçûìÿííûé_ãðàäèåíò_2-3" x1="115.27" y1="144.96" x2="104.75" y2="134.79" xlink:href="#Áåçûìÿííûé_ãðàäèåíò_2"/><linearGradient id="Áåçûìÿííûé_ãðàäèåíò_2-4" x1="120.9" y1="155.13" x2="159.99" y2="155.13" xlink:href="#Áåçûìÿííûé_ãðàäèåíò_2"/><linearGradient id="Áåçûìÿííûé_ãðàäèåíò_2-5" x1="115.43" y1="159.53" x2="122.79" y2="159.53" xlink:href="#Áåçûìÿííûé_ãðàäèåíò_2"/><linearGradient id="Áåçûìÿííûé_ãðàäèåíò_3" x1="117.81" y1="152.21" x2="169.33" y2="152.21" gradientUnits="userSpaceOnUse"><stop offset="0" stop-color="#c0bff6"/><stop offset="0.29" stop-color="#c5c4f7"/><stop offset="0.64" stop-color="#d3d2f9"/><stop offset="1" stop-color="#e9e9fd"/></linearGradient><linearGradient id="Áåçûìÿííûé_ãðàäèåíò_254" x1="92.09" y1="106.42" x2="111.59" y2="106.42" gradientUnits="userSpaceOnUse"><stop offset="0" stop-color="#42e8e0"/><stop offset="0.15" stop-color="#43e3e0"/><stop offset="0.33" stop-color="#45d5df"/><stop offset="0.52" stop-color="#49bddd"/><stop offset="0.72" stop-color="#4e9cdb"/><stop offset="0.93" stop-color="#5472d8"/><stop offset="1" stop-color="#5761d7"/></linearGradient><linearGradient id="Áåçûìÿííûé_ãðàäèåíò_254-2" x1="92.09" y1="107.39" x2="111.59" y2="107.39" xlink:href="#Áåçûìÿííûé_ãðàäèåíò_254"/><linearGradient id="Áåçûìÿííûé_ãðàäèåíò_254-3" x1="134.59" y1="74.38" x2="116.08" y2="122.01" xlink:href="#Áåçûìÿííûé_ãðàäèåíò_254"/><linearGradient id="Áåçûìÿííûé_ãðàäèåíò_254-4" x1="115.68" y1="111.81" x2="145.13" y2="111.81" xlink:href="#Áåçûìÿííûé_ãðàäèåíò_254"/><clipPath id="clip-path"><path class="cls-1" d="M126.07,130.25l-.38-.22c-1.4-.81-1.22-2.22.39-3.15l11.38-6.57a6.06,6.06,0,0,1,5.46-.23l.38.22c1.4.81,1.22,2.22-.39,3.15L131.53,130A6.06,6.06,0,0,1,126.07,130.25Z"/></clipPath><linearGradient id="Áåçûìÿííûé_ãðàäèåíò_254-5" x1="34.02" y1="128.21" x2="141.08" y2="128.21" xlink:href="#Áåçûìÿííûé_ãðàäèåíò_254"/><linearGradient id="Áåçûìÿííûé_ãðàäèåíò_254-6" x1="34.02" y1="137.34" x2="141.08" y2="137.34" xlink:href="#Áåçûìÿííûé_ãðàäèåíò_254"/><linearGradient id="Áåçûìÿííûé_ãðàäèåíò_254-7" x1="34.02" y1="124.88" x2="141.08" y2="124.88" xlink:href="#Áåçûìÿííûé_ãðàäèåíò_254"/><linearGradient id="Áåçûìÿííûé_ãðàäèåíò_254-8" x1="124.75" y1="125.17" x2="144.24" y2="125.17" xlink:href="#Áåçûìÿííûé_ãðàäèåíò_254"/><linearGradient id="Áåçûìÿííûé_ãðàäèåíò_254-9" x1="124.75" y1="126.14" x2="144.24" y2="126.14" xlink:href="#Áåçûìÿííûé_ãðàäèåíò_254"/><linearGradient id="Áåçûìÿííûé_ãðàäèåíò_2-6" x1="-698.89" y1="127.54" x2="-643.47" y2="127.54" gradientTransform="matrix(-1, 0, 0, 1, -585.78, 0)" xlink:href="#Áåçûìÿííûé_ãðàäèåíò_2"/><linearGradient id="Áåçûìÿííûé_ãðàäèåíò_3-2" x1="-680.27" y1="125.69" x2="-624.82" y2="125.69" gradientTransform="matrix(-1, 0, 0, 1, -585.78, 0)" xlink:href="#Áåçûìÿííûé_ãðàäèåíò_3"/><linearGradient id="Áåçûìÿííûé_ãðàäèåíò_3-3" x1="-683.86" y1="121.42" x2="-669.67" y2="121.42" gradientTransform="matrix(-1, 0, 0, 1, -585.78, 0)" xlink:href="#Áåçûìÿííûé_ãðàäèåíò_3"/><linearGradient id="Áåçûìÿííûé_ãðàäèåíò_3-4" x1="-682.75" y1="118.86" x2="-643.52" y2="118.86" gradientTransform="matrix(-1, 0, 0, 1, -585.78, 0)" xlink:href="#Áåçûìÿííûé_ãðàäèåíò_3"/><linearGradient id="Áåçûìÿííûé_ãðàäèåíò_2-7" x1="-682.75" y1="128.93" x2="-676.02" y2="128.93" gradientTransform="matrix(-1, 0, 0, 1, -585.78, 0)" xlink:href="#Áåçûìÿííûé_ãðàäèåíò_2"/></defs><title>Asset 19</title><g id="Layer_2" data-name="Layer 2"><g id="Layer_1-2" data-name="Layer 1"><path class="cls-2" d="M50.47,180.46c29.88,17.25,78.32,17.25,108.2,0s29.88-45.22,0-62.47-78.32-17.25-108.2,0S20.59,163.21,50.47,180.46Z"/><path class="cls-3" d="M168.39,115.86v-15.7a28,28,0,0,0-6-15.11v15.7a28,28,0,0,1,6,15.11Zm-7.85-17.32V82.85a44.91,44.91,0,0,0-4.16-4.1v15.7a44.91,44.91,0,0,1,4.16,4.1Zm-6.73-6.19V76.66a60.72,60.72,0,0,0-5.3-3.6v15.7a60.73,60.73,0,0,1,5.3,3.6Zm-8.85-1v-25c14.46,7.67,23.49,18.65,23.49,30.79v25c0-12.14-9-23.11-23.49-30.79Z"/><path class="cls-4" d="M118.51,79.38V74.87q-1.66-.32-3.35-.59v4.51q1.69.27,3.35.59Zm-6-5.5v-4q-1.72-.24-3.46-.43v4q1.75.19,3.46.43Zm11.81,2.26V70.7q-1.59-.39-3.22-.74v5.44q1.63.35,3.22.74Zm-18-3v-8q-1.77-.15-3.56-.26v8q1.79.1,3.56.26Zm-12.92-.45v-8q-1.82,0-3.61.11v8q1.79-.08,3.61-.11ZM86.92,73V62.89q-1.78.12-3.53.28v10.1q1.75-.16,3.53-.28Zm12.94-.19V61.24q-1.62-.06-3.26-.07h-.39V72.72h.39q1.64,0,3.26.07Zm-19.2.76V59.1q-1.73.2-3.43.45V74q1.7-.25,3.43-.45ZM69.87,57.86A122.82,122.82,0,0,1,96.6,55.26a117,117,0,0,1,34.53,5.36v25A117,117,0,0,0,96.6,80.24a122.82,122.82,0,0,0-26.73,2.61v-25Z"/><path class="cls-3" d="M27.38,91.74v-5a30.37,30.37,0,0,0-3.55,6.7v14.89a30.37,30.37,0,0,1,3.55-6.7v-5q.65-.93,1.37-1.85v2.71a40.66,40.66,0,0,1,3-3.37V91.36A61.56,61.56,0,0,1,50.17,79.11V74.28q-2,.89-3.85,1.86-.94.48-1.84,1a57.18,57.18,0,0,0-12.29,9l-.42.42V83.81a40.67,40.67,0,0,0-3,3.37V89.9q-.72.91-1.37,1.85Zm-4.52-.16C25.7,79.4,37.64,68.9,54.57,62.37v25c-16.94,6.53-28.88,17-31.72,29.22v-25Z"/><path class="cls-5" d="M31.76,86.53l.42-.42v4.84A54,54,0,0,1,41,84Q42.66,83,44.47,82V77.13q.91-.5,1.84-1V81q1.87-1,3.85-1.86v0A61.56,61.56,0,0,0,31.76,91.36V86.53Zm-4.38,5.22q.65-.93,1.37-1.85v4.84q-.72.91-1.37,1.85V91.74Z"/><path class="cls-6" d="M46.32,76.14q1.87-1,3.85-1.86v4.84q-2,.89-3.85,1.86V76.14Z"/><path class="cls-6" d="M32.18,86.1a54,54,0,0,1,8.8-6.9V84a54,54,0,0,0-8.8,6.9V86.1Z"/><path class="cls-7" d="M41,79.21q1.69-1.07,3.5-2.08V82Q42.66,83,41,84V79.21Z"/><path class="cls-5" d="M23.83,93.41a30.37,30.37,0,0,1,3.55-6.7v5a30.37,30.37,0,0,0-3.55,6.7v4.84a30.37,30.37,0,0,1,3.55-6.7v5a30.37,30.37,0,0,0-3.55,6.7V93.41Z"/><path class="cls-6" d="M23.83,98.44a30.37,30.37,0,0,1,3.55-6.7v4.84a30.37,30.37,0,0,0-3.55,6.7V98.44Z"/><path class="cls-5" d="M28.75,94.73a40.67,40.67,0,0,1,3-3.37v2.71a40.67,40.67,0,0,0-3,3.37V94.73Zm0-7.55a40.66,40.66,0,0,1,3-3.37v2.71a40.66,40.66,0,0,0-3,3.37V87.18Z"/><path class="cls-6" d="M28.75,89.9a40.66,40.66,0,0,1,3-3.37v4.84a40.68,40.68,0,0,0-3,3.37V89.9Z"/><path class="cls-5" d="M162.36,85.05a28,28,0,0,1,6,15.11v15.7a28,28,0,0,0-6-15.11V85.05Z"/><path class="cls-8" d="M156.39,78.75a44.91,44.91,0,0,1,4.16,4.1v15.7a44.91,44.91,0,0,0-4.16-4.1V78.75Z"/><path class="cls-5" d="M148.52,73.05a60.72,60.72,0,0,1,5.3,3.6v15.7a60.73,60.73,0,0,0-5.3-3.6V73.05Z"/><path class="cls-9" d="M121.09,70q1.63.35,3.22.74v5.44q-1.59-.39-3.22-.74V70Z"/><path class="cls-9" d="M115.17,74.28q1.69.27,3.35.59v4.51q-1.66-.32-3.35-.59V74.28Z"/><path class="cls-9" d="M109,69.46q1.75.19,3.46.43v4q-1.72-.24-3.46-.43v-4Z"/><path class="cls-9" d="M102.71,64.9q1.79.1,3.56.26v8q-1.77-.15-3.56-.26v-8Z"/><path class="cls-9" d="M96.22,61.16h.39q1.64,0,3.26.07V72.8q-1.62-.06-3.26-.07h-.39V61.16Z"/><path class="cls-10" d="M89.73,64.8q1.79-.08,3.61-.11v8q-1.82,0-3.61.11v-8Z"/><path class="cls-9" d="M83.4,63.17q1.75-.16,3.53-.28V73q-1.78.12-3.53.28V63.17Z"/><path class="cls-10" d="M77.23,59.55q1.7-.25,3.43-.45V73.56q-1.73.2-3.43.45V59.55Z"/><circle class="cls-11" cx="117.13" cy="168.48" r="2.25"/><circle class="cls-11" cx="139.24" cy="143.4" r="2.25"/><circle class="cls-11" cx="144.07" cy="160.54" r="2.25"/><circle class="cls-11" cx="95.56" cy="156.31" r="2.25"/><circle class="cls-11" cx="109.44" cy="141.14" r="2.25"/><path class="cls-12" d="M120.32,149.46l-24.68,4.75-.3,0,0-.16-1.19-.3v1.4h0a.59.59,0,0,0,0,.16c.15.55,1,.92,2,.84l24.68-4.75Z"/><path class="cls-13" d="M141,141l-.75.63a2.81,2.81,0,0,0-2.31.17l-17.58,7.65,2.46,1.42,17.58-7.65a1,1,0,0,0,.6-.83h0Z"/><path class="cls-14" d="M111.11,139.28a2.47,2.47,0,0,0-2.34-.44h0l-.28.1a1.09,1.09,0,0,0-.15-.2,3.48,3.48,0,0,0-.52-.37v1.39h0a.69.69,0,0,0,.18.43l11.34,10.36,3.1-.91Z"/><path class="cls-15" d="M145.69,158.17l-.42.15-.24.5-.29-.11-22.27-9-1.58,1.79,22.27,9a2.47,2.47,0,0,0,2.34-.44h0a.67.67,0,0,0,.18-.47h0Z"/><path class="cls-16" d="M119.36,150.57l-3.66,15.66-.27-.14v1.45h0c0,.46.64.85,1.46.93s1.84-.29,2-.84l3.91-16.75Z"/><path class="cls-17" d="M144.74,157.31l-20.65-8.39,16.3-7.09c.73-.42.81-1.06.18-1.42l-.17-.1a2.74,2.74,0,0,0-2.47.1l-16.3,7.09-10.52-9.61a2.47,2.47,0,0,0-2.34-.44h0c-.86.25-1.2.86-.76,1.35l10.52,9.61-22.89,4.41c-.95.09-1.6.6-1.45,1.15s1,.92,2,.84l22.89-4.41-3.63,15.53c-.15.55.5,1.06,1.45,1.15s1.84-.29,2-.84l3.63-15.53,20.65,8.39a2.47,2.47,0,0,0,2.34-.44C145.94,158.16,145.6,157.56,144.74,157.31Zm-22.86-8.37-.38.44-.84-.08-.13-.48.76-.22Z"/><path class="cls-11" d="M121.17,150.22h0a1.8,1.8,0,0,1-1.8-1.8V127.57H123v20.85A1.8,1.8,0,0,1,121.17,150.22Z"/><path class="cls-18" d="M93.41,111.5l-.38-.22c-1.4-.81-1.22-2.22.39-3.15l11.38-6.57a6.06,6.06,0,0,1,5.46-.23l.38.22c1.4.81,1.22,2.22-.39,3.15l-11.38,6.57A6.06,6.06,0,0,1,93.41,111.5Z"/><path class="cls-19" d="M111.59,102.81h0a1.67,1.67,0,0,0-.94-1.25l-.38-.22a6.06,6.06,0,0,0-5.46.23l-11.38,6.57a2.28,2.28,0,0,0-1.33,1.73h0v2h0a1.62,1.62,0,0,0,.94,1.37l.38.22a6.06,6.06,0,0,0,5.46-.23l11.38-6.57a2.33,2.33,0,0,0,1.33-1.67h0Z"/><path class="cls-20" d="M117.51,120.67,93.67,134.42c-1.18.68-2.14,0-2.14-1.62h0a5.12,5.12,0,0,1,2.14-4.09L121,113V114A8.31,8.31,0,0,1,117.51,120.67Z"/><g class="cls-21"><path class="cls-22" d="M119.27,61.93h0a3.08,3.08,0,0,0-3.06.29l-.71.41c-2.64,1.52-4.77,5.6-4.77,9.12v47.15l6.33-3.66v1.5l-7.6,6.19L92.2,134.49l24.26,13.71,13.95-10.73,7.94-6.78,4.95-55.18Z"/></g><path class="cls-23" d="M101.5,139.75a3,3,0,0,1,.63-3c1.27-1.27,8-4.1,8.47-4.4s2.9-2.08,2.9-2.08l.74-1.65s-13.61,1.33-13.8,1.54-6.37,5.77-6.19,6a36,36,0,0,0,4.27,1.23l.79,1.08Z"/><path class="cls-24" d="M140.36,75.86l-.71.41c-2.64,1.52-4.77,5.6-4.77,9.12v47.14l-17.05,9.84a5.12,5.12,0,0,0-2.14,4.09h0c0,1.57,1,2.3,2.14,1.62l23.84-13.75a8.31,8.31,0,0,0,3.47-6.63V79.47C145.13,76,143,74.34,140.36,75.86Z"/><path class="cls-25" d="M95,150a32.92,32.92,0,0,0-4.7,3.58c-1.19,1.33-3.54,4-2.57,5.34s4.24,2,7.75-1.22,2.52-3.43,5.51-5,3.82-3.35,3.46-4.35-1.84-2.76-2.64-2.38S95,150,95,150Z"/><path class="cls-25" d="M112.13,159.43a35.81,35.81,0,0,1-1.91,3.7c-.65.92-3.8,6.23-2.16,7.45s4.76.88,7.23-1.79,3-5.93,3.62-7,2.12-3.93,1.4-5.57-.88-1.93-.88-1.93Z"/><path class="cls-11" d="M99.38,119.91s-10.44,10.3-12.15,15.47a5.73,5.73,0,0,0,1.3,5c2,2.19,6.3,9.35,6.3,9.35s3.2,3.87,7.33.78c0,0,1.87-3,.72-5s-4.2-8.32-4.2-8.32,6.69-4.6,10-5.77a45.67,45.67,0,0,0,5.07-2.06,15.82,15.82,0,0,1-3,6.16c-2.42,3-6.46,7.93-5.12,11.33a28.57,28.57,0,0,0,3.39,6.41c1.27,2,2.46,6,3.54,6.46s6.07.91,6.88-2.34-1.7-9.57-2.83-11.7c0,0,13.5-15.57,14.78-17.28S103.55,117.27,99.38,119.91Z"/><path class="cls-25" d="M102.87,145.53c-1.15-2-4.2-8.32-4.2-8.32s6.69-4.6,10-5.77a45.67,45.67,0,0,0,5.07-2.06,34.18,34.18,0,0,0,3.6-6.87c-7.61-2.23-15.88-3.91-18-2.6.74,1.82,4.62,1.81,4.62,1.81s1.45,3.53,2.41,4,3.26,0,3.26,0a8.56,8.56,0,0,1-2,1.76C106,128.61,95.74,137,95.74,137s.59.33,3.32,5.28a24.4,24.4,0,0,1,3.09,8.2S104,147.51,102.87,145.53Z"/><path class="cls-25" d="M125.94,125.38c-6-.58-13.06-.63-11.48,2.54a10.12,10.12,0,0,0,8.08,5.62c0,2-8.32,11.51-8.32,11.51l1.93,3.75c1.93,3.75,1.69,10.58,1.69,10.58a3,3,0,0,0,1.57-2c.81-3.25-1.7-9.57-2.83-11.7,0,0,13.5-15.57,14.78-17.28C131.74,127.91,129.46,126.73,125.94,125.38Z"/><path class="cls-26" d="M88.82,92.46l1.61-1.25s8.65-4.8,11.53-6.36a19.64,19.64,0,0,0,4.33-3.56,6,6,0,0,1,4.32-1.84l15.16-.08a32.83,32.83,0,0,0,2.36,3.39c.44.41,4.55,3.86,7.5,6.7a12.77,12.77,0,0,1,3.44,5.72c1.69,6,1.66,18,1.92,26.53a26.86,26.86,0,0,1-3.64,1c-2.58.55-2.26.2-2.26.2s-3.87,8.7-9.12,9.54-12.32-1.61-13.58-9.85c0,0-10.23-1.53-13-2.67a.42.42,0,0,1-.18-.64c1.24-1.64,5.85-8,6.29-12.15a68,68,0,0,0,0-13.65s-7.72,2.91-10.17,3.42c0,0-9.39,10.32-13.32,13.13,0,0,1.34-2.11-1.36-3.55Z"/><path class="cls-11" d="M137.35,122.68l1.07-.24-.55-1.07-14.23-1.51-8.31.43L112.48,123a13.57,13.57,0,0,0,.68,2.44,21.08,21.08,0,0,0,5.17.16c1.64-.35,14.3,1.51,14.33,1.52a29.14,29.14,0,0,0,2.43-4.22C135.07,123,135.22,123.14,137.35,122.68Z"/><path class="cls-27" d="M118.14,117.71a.12.12,0,0,0-.12-.09c-.69,0-5.13-.15-6.81-.73a8.15,8.15,0,0,0-3.85-.41c-.1.11-3.13,1.39-3.32,1.92s-.45,2.08,0,2.67a8.65,8.65,0,0,1,.59,1l.32,0a9.19,9.19,0,0,0,.64,1.09,1.92,1.92,0,0,1,.25.41c.19.41.53,1.1.67,1.11a7.42,7.42,0,0,0,1.38.15c.2-.05.37-.65.29-.91a.11.11,0,0,1,.09-.15,13.12,13.12,0,0,1,3.23-.07c2,.18,4.78-1.11,5-1.23h0l2.79-.25a.13.13,0,0,0,.11-.16Z"/><path class="cls-28" d="M114.79,88.31a37.37,37.37,0,0,0,.14,17.74s9.13-17,10.12-19.8,1.35-4.73.42-5.72-9.18,4.14-9.18,4.14Z"/><path class="cls-29" d="M117.14,102s1.74-5.32,1.44-7a20.56,20.56,0,0,0-.74-2.95l1.57-1.45L120.1,92a34,34,0,0,0,3.68-3,28.89,28.89,0,0,1-3.66,2.19,2.57,2.57,0,0,0-1-.92c-.55-.23-1.91,1.63-1.91,1.63L117,95.16l-1.36,7.53.47,1.12Z"/><path class="cls-11" d="M115.61,88.41s-.33,3.44,0,3.68a2.27,2.27,0,0,0,1.84,0,13,13,0,0,0,1.76-1.77S117.62,87.58,115.61,88.41Z"/><path class="cls-11" d="M117.47,91.46a9.81,9.81,0,0,1,0,5.69,47.83,47.83,0,0,0-1.23,6.36l-1.36,2.54a26.31,26.31,0,0,1-1.14-10,9.09,9.09,0,0,1,2-4.23Z"/><path class="cls-27" d="M110.52,74.36a11.1,11.1,0,0,0-.27,2.53c.15.4.69.67.56,1.5a15.57,15.57,0,0,0,.59,4.14s-.18.88.07,1.16.57.26.8.68.31,2.56,1.18,3.28a3.21,3.21,0,0,0,2.59.71,4.2,4.2,0,0,0,1.18-.6l1.31.55s6.79-1.92,6.58-6.7v-.5a5.43,5.43,0,0,0,.62-1.12c.14-.44,1.27-2.43.7-3.28,0,0,2.63-10.39-5.49-11S111.6,70.75,110.52,74.36Z"/><path class="cls-30" d="M125.11,81.61v-.06a1.49,1.49,0,0,0-.93-.28c-.93.16-.72-1.76-.72-1.76a17.85,17.85,0,0,0-.65,2.81c-.47,2.46-5.59,5.44-5.59,5.44l1.31.55S125.32,86.38,125.11,81.61Z"/><path class="cls-31" d="M110.56,69.85c-.79,1.69-1.17,3.71.49,5.07,0,0,1.39.38,4-.85a6.19,6.19,0,0,1,4.55-.13,1.08,1.08,0,0,1,.73,1.05l0,1.48a.94.94,0,0,0,.57.89l1.23.52.24,1.44a.69.69,0,0,0,.91.54l.31-.11s.18-3.2,2.82-3c0,0,2.14-4.62-.05-8.85s-8.19-3.93-9.47-3.45a8.4,8.4,0,0,0-2.41,1.13A10.26,10.26,0,0,0,110.56,69.85Z"/><path class="cls-11" d="M132.15,102.44s-1.23,9.06-1.73,11.63l-4,2.09,7.05-.43Z"/><path class="cls-32" d="M126.42,76.7a12.07,12.07,0,0,0,.9-3.71,9.57,9.57,0,0,1-7,2l0,1.48a.94.94,0,0,0,.57.89l1.23.52.24,1.44a.69.69,0,0,0,.91.54l.31-.11S123.78,76.54,126.42,76.7Z"/><path class="cls-11" d="M128.18,84.66s-2.1,7.22-2.54,8.61l-1.69-.18.3,2.28-9.11,12,10.11-11.61-.4-2,1.54.16Z"/><path class="cls-33" d="M119.24,123.91s21.37-.7,21.91-1.08.64-5.89.59-9.07c0-2.24,0-11-1.92-17.11,1.5,5.19.71,23.56,0,24.49s-21,1.47-21,1.47h0C119.07,123.37,119.24,123.91,119.24,123.91Z"/><path class="cls-27" d="M77.25,106.82s-.08.54-1,1.07-3.31,1.7-3.69,2a22.49,22.49,0,0,0-2.15,2c-.05.2-.57,1.9-.56,2s.17.89.17.89l-.53,2.52s-.67,1,.06,1.24a.93.93,0,0,0,1.15-.6,12.19,12.19,0,0,0,1.91-1.15c.81-.63,4.05-3.24,4.6-3.08s0,1.1-.22,1.26-2,1.84-1.26,3,1.19-.66,1.67-1,1.5-1.83,2.13-2,1.78-2.53,1.93-3.58a4.11,4.11,0,0,1,1.17-2.07c.27-.34-.58-3-.58-3l-3.21-1-1.13.73Z"/><g class="cls-34"><path class="cls-35" d="M138.25,93c-.67-1.06-1-.28-1.88.6A13.94,13.94,0,0,0,132.83,99c-1.43,4.21-.92,14.74-.44,16.24,0,0-13.38,2.19-14.31,2.15s1.15,6.55,1.15,6.55,21.37-.7,21.91-1.08.64-5.89.59-9.07C141.7,111,141.75,98.57,138.25,93Z"/><path class="cls-33" d="M119.24,123.91s21.37-.7,21.91-1.08.64-5.89.59-9.07c0-2.24,0-11-1.92-17.11,1.5,5.19.71,23.56,0,24.49s-21,1.47-21,1.47h0C119.07,123.37,119.24,123.91,119.24,123.91Z"/></g><polygon class="cls-36" points="103.67 159.12 34.02 118.91 71.42 97.31 141.08 137.52 103.67 159.12"/><polygon class="cls-37" points="34.02 115.57 34.02 118.91 103.67 159.12 141.08 137.52 141.08 134.19 103.67 155.78 34.02 115.57"/><polygon class="cls-38" points="103.67 155.78 34.02 115.57 71.42 93.98 141.08 134.19 103.67 155.78"/><path class="cls-39" d="M107.75,124.46a11.47,11.47,0,0,0,4.72.61c2-.34,11.89-.53,11.89-.53l-1.55-.89-3.45-2.4-8.55.58-3.3,1.18Z"/><path class="cls-27" d="M118.14,117.71a.12.12,0,0,0-.12-.09c-.69,0-5.13-.15-6.81-.73a8.15,8.15,0,0,0-3.85-.41c-.1.11-3.13,1.39-3.32,1.92s-.45,2.08,0,2.67a8.65,8.65,0,0,1,.59,1l.32,0a9.19,9.19,0,0,0,.64,1.09,1.92,1.92,0,0,1,.25.41c.19.41.53,1.1.67,1.11a7.42,7.42,0,0,0,1.38.15c.2-.05.37-.65.29-.91a.11.11,0,0,1,.09-.15,13.12,13.12,0,0,1,3.23-.07c2,.18,4.78-1.11,5-1.23h0l2.79-.25a.13.13,0,0,0,.11-.16Z"/><path class="cls-40" d="M126.07,130.25l-.38-.22c-1.4-.81-1.22-2.22.39-3.15l11.38-6.57a6.06,6.06,0,0,1,5.46-.23l.38.22c1.4.81,1.22,2.22-.39,3.15L131.53,130A6.06,6.06,0,0,1,126.07,130.25Z"/><path class="cls-41" d="M144.24,121.56h0a1.67,1.67,0,0,0-.94-1.25l-.38-.22a6.06,6.06,0,0,0-5.46.23l-11.38,6.57a2.28,2.28,0,0,0-1.33,1.73h0v2h0a1.62,1.62,0,0,0,.94,1.37l.38.22a6.06,6.06,0,0,0,5.46-.23l11.38-6.57a2.33,2.33,0,0,0,1.33-1.67h0Z"/><path class="cls-42" d="M138.25,93c-.67-1.06-1-.28-1.88.6A13.94,13.94,0,0,0,132.83,99c-1.43,4.21-.92,14.74-.44,16.24,0,0-13.38,2.19-14.31,2.15s1.15,6.55,1.15,6.55,21.37-.7,21.91-1.08.64-5.89.59-9.07C141.7,111,141.75,98.57,138.25,93Z"/><path class="cls-11" d="M119.24,123.91s21.37-.7,21.91-1.08.64-5.89.59-9.07c0-2.24,0-11-1.92-17.11,1.5,5.19.71,23.56,0,24.49s-21,1.47-21,1.47h0C119.07,123.37,119.24,123.91,119.24,123.91Z"/><path class="cls-39" d="M80.94,113s7.64-6,8.73-6.55a7.54,7.54,0,0,0,1.55-1l-2.56-1.48-4.32,1.78-5.45,5.4-8.39,5.94v1.38s6.92-3,7.69-3.48S80.94,113,80.94,113Z"/><path class="cls-43" d="M76.38,118.37a15.29,15.29,0,0,1,2.68-1.94c1.05-.49,2.72-1.78,2.92-2.76a13.09,13.09,0,0,1,1.94-3.17l-2.78,1.61-4,2.33-6.71,3.89a1.15,1.15,0,0,0,1.26.18,29.2,29.2,0,0,1,3.19-1.4c.74-.09,2-.32,2-.32Z"/><path class="cls-27" d="M77.25,106.82s-.08.54-1,1.07-3.31,1.7-3.69,2a22.49,22.49,0,0,0-2.15,2c-.05.2-.57,1.9-.56,2s.17.89.17.89l-.53,2.52s-.67,1,.06,1.24a.93.93,0,0,0,1.15-.6,12.19,12.19,0,0,0,1.91-1.15c.81-.63,4.05-3.24,4.6-3.08s0,1.1-.22,1.26-2,1.84-1.26,3,1.19-.66,1.67-1,1.5-1.83,2.13-2,1.78-2.53,1.93-3.58a4.11,4.11,0,0,1,1.17-2.07c.27-.34-.58-3-.58-3l-3.21-1-1.13.73Z"/><path class="cls-42" d="M106.23,89.19a42,42,0,0,1,.7-8.46,5.9,5.9,0,0,0-.64.57A19.64,19.64,0,0,1,102,84.86c-2.88,1.56-11.53,6.36-11.53,6.36l-1.61,1.25c-5.08,4-10.75,12.64-11.57,14.35.4-.53,1.42-1.4,3.37-.36C83.33,107.89,82,110,82,110,86,107.24,95.3,96.87,95.3,96.87c2.3-.48,9.22-3.07,10.09-3.39A11.43,11.43,0,0,0,106.23,89.19Z"/><path class="cls-11" d="M95.3,96.87c2.46-.52,10.17-3.42,10.17-3.42a66.7,66.7,0,0,1,.14,12.46,41,41,0,0,0,.62-16.72c-.63,3-12.86,7.15-12.86,7.15C91.43,99.34,82.17,108,82.17,108h0a2.41,2.41,0,0,1-.18,2C85.91,107.19,95.3,96.87,95.3,96.87Z"/><path class="cls-44" d="M57.69,121.8l1.85,1L78.13,112a1.35,1.35,0,0,1,1.21.05L111.4,130.6c.31-.17,1.71-.84,1.71-.84l-.68,1.77h0a.4.4,0,0,1-.19.21L92.66,143a1.35,1.35,0,0,1-1.21-.05L58.64,124a.59.59,0,0,1-.28-.29h0Z"/><path class="cls-45" d="M58,122.11,91.6,141.52a1.38,1.38,0,0,0,1.24.05L112.9,130c.32-.18.28-.51-.09-.72L79.19,109.86a1.38,1.38,0,0,0-1.24-.05L57.89,121.39C57.57,121.57,57.61,121.89,58,122.11Z"/><path class="cls-46" d="M58,121.91,91.6,141.32a1.38,1.38,0,0,0,1.24.05l20.06-11.58a.41.41,0,0,0,.19-.22.34.34,0,0,1-.19.41L92.84,141.57a1.38,1.38,0,0,1-1.24-.05L58,122.11c-.25-.14-.34-.33-.28-.5A.59.59,0,0,0,58,121.91Z"/><path class="cls-47" d="M101.74,137.32V137s0-.05,0,0l-1.3.75a.11.11,0,0,0,0,.09v.37s0,.05,0,0l1.3-.75A.11.11,0,0,0,101.74,137.32Z"/><path class="cls-47" d="M99.79,138.44v-.37s0-.05,0,0l-1.3.75a.11.11,0,0,0,0,.09v.37s0,.05,0,0l1.3-.75A.11.11,0,0,0,99.79,138.44Z"/><path class="cls-48" d="M101.59,132.62,73.65,116.49a.6.6,0,0,0-.6,0l-9.95,5.76a.21.21,0,0,0,0,.37L91,138.74a.6.6,0,0,0,.6,0l10-5.75A.21.21,0,0,0,101.59,132.62Z"/><path class="cls-49" d="M101.59,133l-.1.06L73.65,117a.6.6,0,0,0-.6,0l-9.85,5.7-.1-.06a.21.21,0,0,1,0-.37l9.95-5.76a.6.6,0,0,1,.6,0l27.94,16.13A.21.21,0,0,1,101.59,133Z"/><polygon class="cls-11" points="72.3 117.95 98.03 132.81 99.31 132.3 73.38 117.33 72.3 117.95"/><polygon class="cls-11" points="69.65 119.47 92.42 132.62 93.5 131.99 70.73 118.85 69.65 119.47"/><polygon class="cls-11" points="67.93 120.47 94.73 135.94 95.81 135.32 69.01 119.85 67.93 120.47"/><polygon class="cls-11" points="66.21 121.46 93.01 136.94 94.09 136.31 67.29 120.84 66.21 121.46"/><polygon class="cls-11" points="64.48 122.46 91.28 137.93 92.36 137.31 65.56 121.84 64.48 122.46"/><polygon class="cls-11" points="98.03 132.81 99.11 133.43 100.19 132.81 99.11 132.18 98.03 132.81"/><polygon class="cls-11" points="91.11 131.86 96.47 134.96 97.55 134.33 92.15 131.22 91.11 131.86"/><path class="cls-50" d="M91.64,125.39,84.11,121a.32.32,0,0,1,0-.62l5.15-3a1.18,1.18,0,0,1,1.07,0l7.53,4.35a.32.32,0,0,1,0,.62l-5.15,3A1.18,1.18,0,0,1,91.64,125.39Z"/><path class="cls-49" d="M97.86,122.05l-7.53-4.35a1.18,1.18,0,0,0-1.07,0l-5.15,3a.46.46,0,0,0-.19.18c-.08-.15,0-.32.19-.43l5.15-3a1.18,1.18,0,0,1,1.07,0l7.53,4.35c.2.12.26.29.19.43A.46.46,0,0,0,97.86,122.05Z"/><path class="cls-51" d="M57.74,121.3,62,96.09l-.34-.14.51-.29h0a.37.37,0,0,1,.4,0l34,19.61a1,1,0,0,1,.44.86l-4.28,25.41a.32.32,0,0,1-.18.26h0l-.5.29-.09-.47h0L58.18,122.17A1,1,0,0,1,57.74,121.3Z"/><path class="cls-52" d="M96.33,116l.56-.25a.77.77,0,0,1,.07.42l-4.28,25.41a.32.32,0,0,1-.18.26h0l-.5.29-.09-.47h0l-1.71-1Z"/><path class="cls-26" d="M57.65,122.47l34,19.61c.26.15.49.06.53-.21l4.28-25.41a1,1,0,0,0-.44-.86L62,96c-.26-.15-.49-.06-.53.21l-4.28,25.41A1,1,0,0,0,57.65,122.47Z"/><rect class="cls-53" x="0.5" y="0.5" width="185.99" height="185.99"/></g></g></svg>