<svg xmlns="http://www.w3.org/2000/svg" xmlns:xlink="http://www.w3.org/1999/xlink" viewBox="0 0 219.69 217.21"><defs><style>.cls-1{isolation:isolate;}.cls-2{fill:#b48abf;}.cls-3{fill:#e8bad7;}.cls-4{fill:url(#linear-gradient);}.cls-5,.cls-6,.cls-7,.cls-8{opacity:0.3;}.cls-5,.cls-8{mix-blend-mode:multiply;}.cls-5{fill:url(#linear-gradient-2);}.cls-13,.cls-6,.cls-7{fill:none;stroke-miterlimit:10;}.cls-6{stroke-width:0.5px;stroke:url(#Degradado_sin_nombre_74);}.cls-7{stroke-width:0.44px;stroke:url(#Degradado_sin_nombre_77);}.cls-8{fill:url(#linear-gradient-3);}.cls-9{fill:url(#linear-gradient-4);}.cls-10{fill:url(#linear-gradient-5);}.cls-11{fill:#fff;}.cls-12{fill:#006838;}.cls-13{stroke:#fff;stroke-width:0.75px;}.cls-14{fill:url(#Degradado_sin_nombre_60);}.cls-15{fill:url(#Degradado_sin_nombre_26);}.cls-16{fill:url(#Degradado_sin_nombre_22);}.cls-17{fill:url(#Degradado_sin_nombre_26-2);}.cls-18{fill:#696969;}.cls-19{fill:url(#Degradado_sin_nombre_41);}.cls-20{fill:url(#Degradado_sin_nombre_22-2);}.cls-21{fill:#394c8d;}.cls-22{fill:url(#linear-gradient-6);}.cls-23{fill:url(#linear-gradient-7);}.cls-24{fill:url(#Degradado_sin_nombre_26-3);}.cls-25{fill:url(#Degradado_sin_nombre_22-3);}.cls-26{fill:url(#Degradado_sin_nombre_26-4);}.cls-27{fill:url(#Degradado_sin_nombre_41-2);}.cls-28{fill:url(#Degradado_sin_nombre_22-4);}.cls-29{fill:url(#linear-gradient-8);}.cls-30{fill:url(#linear-gradient-9);}.cls-31{fill:url(#Degradado_sin_nombre_60-2);}.cls-32{fill:url(#Degradado_sin_nombre_60-3);}.cls-33{fill:url(#linear-gradient-10);}.cls-34{fill:url(#linear-gradient-11);}.cls-35{fill:#ccc;}.cls-36{fill:url(#linear-gradient-12);}.cls-37{fill:url(#linear-gradient-13);}.cls-38{fill:url(#linear-gradient-14);}.cls-39{fill:#02695c;}.cls-40{fill:url(#linear-gradient-15);}.cls-41{fill:url(#linear-gradient-16);}.cls-42{fill:url(#linear-gradient-17);}.cls-43{fill:url(#Degradado_sin_nombre_22-5);}.cls-44{fill:url(#linear-gradient-18);}.cls-45{fill:url(#Degradado_sin_nombre_22-6);}.cls-46{fill:url(#Degradado_sin_nombre_22-7);}.cls-47{fill:url(#Degradado_sin_nombre_45);}.cls-48{fill:url(#Degradado_sin_nombre_22-8);}.cls-49{fill:url(#Degradado_sin_nombre_22-9);}.cls-50{fill:url(#Degradado_sin_nombre_22-10);}.cls-51{fill:url(#Degradado_sin_nombre_22-11);}.cls-52{fill:url(#Degradado_sin_nombre_22-12);}.cls-53{fill:url(#Degradado_sin_nombre_22-13);}.cls-54{fill:url(#Degradado_sin_nombre_22-14);}.cls-55{fill:url(#Degradado_sin_nombre_22-15);}.cls-56{fill:url(#Degradado_sin_nombre_22-16);}.cls-57{fill:url(#Degradado_sin_nombre_22-17);}.cls-58{fill:url(#Degradado_sin_nombre_22-18);}.cls-59{fill:#585858;}.cls-60{fill:url(#Degradado_sin_nombre_22-19);}.cls-61{fill:url(#Degradado_sin_nombre_22-20);}.cls-62{fill:url(#Degradado_sin_nombre_22-21);}.cls-63{fill:url(#Degradado_sin_nombre_22-22);}.cls-64{fill:url(#Degradado_sin_nombre_22-23);}.cls-65{fill:url(#Degradado_sin_nombre_45-2);}.cls-66{fill:url(#Degradado_sin_nombre_22-24);}.cls-67{fill:url(#Degradado_sin_nombre_22-25);}.cls-68{fill:url(#Degradado_sin_nombre_22-26);}.cls-69{fill:url(#Degradado_sin_nombre_22-27);}.cls-70{fill:url(#Degradado_sin_nombre_22-28);}.cls-71{fill:url(#Degradado_sin_nombre_22-29);}.cls-72{fill:url(#Degradado_sin_nombre_22-30);}.cls-73{fill:url(#Degradado_sin_nombre_22-31);}.cls-74{fill:url(#Degradado_sin_nombre_22-32);}.cls-75{fill:url(#Degradado_sin_nombre_22-33);}.cls-76{fill:url(#Degradado_sin_nombre_22-34);}.cls-77{fill:url(#Degradado_sin_nombre_22-35);}.cls-78{fill:url(#Degradado_sin_nombre_22-36);}.cls-79{fill:url(#Degradado_sin_nombre_22-37);}.cls-80{fill:url(#Degradado_sin_nombre_22-38);}.cls-81{fill:url(#Degradado_sin_nombre_22-39);}.cls-82{fill:url(#Degradado_sin_nombre_45-3);}.cls-83{fill:url(#Degradado_sin_nombre_22-40);}.cls-84{fill:url(#Degradado_sin_nombre_22-41);}.cls-85{fill:url(#Degradado_sin_nombre_22-42);}.cls-86{fill:url(#Degradado_sin_nombre_22-43);}.cls-87{fill:url(#Degradado_sin_nombre_22-44);}.cls-88{fill:url(#Degradado_sin_nombre_22-45);}.cls-89{fill:url(#Degradado_sin_nombre_22-46);}.cls-90{fill:url(#Degradado_sin_nombre_22-47);}.cls-91{fill:url(#Degradado_sin_nombre_22-48);}.cls-92{fill:url(#Degradado_sin_nombre_22-49);}.cls-93{fill:url(#Degradado_sin_nombre_22-50);}.cls-94{fill:url(#Degradado_sin_nombre_22-51);}.cls-95{fill:url(#Degradado_sin_nombre_22-52);}.cls-96{fill:url(#Degradado_sin_nombre_22-53);}.cls-97{fill:#f37123;}.cls-98{fill:#f89c1f;}.cls-99{fill:#9cb5cc;}.cls-100{fill:#d7e7f7;}.cls-101{fill:#f8f9fc;}.cls-102{fill:#012234;}.cls-103{fill:#024462;}.cls-104{fill:#025a82;}.cls-105{fill:#009ea1;}.cls-106{fill:#008c92;}.cls-107{fill:#00b4ae;}.cls-108{fill:#e08910;}.cls-109{fill:#f0a72e;}.cls-110{fill:#ffca00;}.cls-111{fill:url(#Degradado_sin_nombre_26-5);}.cls-112{fill:url(#Degradado_sin_nombre_22-54);}.cls-113{fill:url(#Degradado_sin_nombre_26-6);}.cls-114{fill:url(#Degradado_sin_nombre_41-3);}.cls-115{fill:url(#Degradado_sin_nombre_22-55);}</style><linearGradient id="linear-gradient" x1="121.76" y1="46.24" x2="211.4" y2="46.24" gradientUnits="userSpaceOnUse"><stop offset="0" stop-color="#595ec5"/><stop offset="0.31" stop-color="#844daa"/><stop offset="1" stop-color="#ee2467"/></linearGradient><linearGradient id="linear-gradient-2" x1="73.31" y1="173.22" x2="203.28" y2="173.22" gradientUnits="userSpaceOnUse"><stop offset="0" stop-color="#ffc900" stop-opacity="0"/><stop offset="1" stop-color="#ff8e45"/></linearGradient><linearGradient id="Degradado_sin_nombre_74" x1="67.57" y1="173.22" x2="209.02" y2="173.22" gradientUnits="userSpaceOnUse"><stop offset="0" stop-color="#fff"/><stop offset="1" stop-color="#fae3ff"/></linearGradient><linearGradient id="Degradado_sin_nombre_77" x1="76.1" y1="173.22" x2="200.5" y2="173.22" gradientUnits="userSpaceOnUse"><stop offset="0" stop-color="#fff" stop-opacity="0"/><stop offset="1" stop-color="#fae3ff"/></linearGradient><linearGradient id="linear-gradient-3" x1="81.18" y1="173.22" x2="195.42" y2="173.22" gradientUnits="userSpaceOnUse"><stop offset="0" stop-color="#fff" stop-opacity="0"/><stop offset="0.53" stop-color="#ff9ec4" stop-opacity="0.37"/><stop offset="1" stop-color="#ff458e" stop-opacity="0.7"/></linearGradient><linearGradient id="linear-gradient-4" x1="449.43" y1="-710.16" x2="621.76" y2="-710.16" gradientTransform="matrix(0.5, 0.87, 0.87, -0.5, 493.27, -733.21)" gradientUnits="userSpaceOnUse"><stop offset="0" stop-color="#d4ece7"/><stop offset="0.42" stop-color="#8a9dbb"/><stop offset="0.82" stop-color="#485995"/><stop offset="1" stop-color="#2f3e86"/></linearGradient><linearGradient id="linear-gradient-5" x1="132.52" y1="176.23" x2="132.52" y2="9.99" gradientUnits="userSpaceOnUse"><stop offset="0" stop-color="#595ec5"/><stop offset="1" stop-color="#00d2a5"/></linearGradient><linearGradient id="Degradado_sin_nombre_60" x1="40.01" y1="155.01" x2="109.92" y2="155.01" gradientUnits="userSpaceOnUse"><stop offset="0" stop-color="#fff" stop-opacity="0"/><stop offset="0.53" stop-color="#fff" stop-opacity="0.37"/><stop offset="1" stop-color="#fff" stop-opacity="0.7"/></linearGradient><linearGradient id="Degradado_sin_nombre_26" x1="145.17" y1="98.14" x2="163.32" y2="98.14" gradientUnits="userSpaceOnUse"><stop offset="0" stop-color="#ffb127"/><stop offset="0.01" stop-color="#ffb027"/><stop offset="0.67" stop-color="#f68019"/><stop offset="1" stop-color="#f26e14"/></linearGradient><linearGradient id="Degradado_sin_nombre_22" x1="150.49" y1="97.59" x2="177.47" y2="97.59" gradientUnits="userSpaceOnUse"><stop offset="0" stop-color="#ffda22"/><stop offset="0.11" stop-color="#ffd021"/><stop offset="0.71" stop-color="#ffa01e"/><stop offset="1" stop-color="#ff8e1d"/></linearGradient><linearGradient id="Degradado_sin_nombre_26-2" x1="150.49" y1="93.96" x2="178.93" y2="93.96" xlink:href="#Degradado_sin_nombre_26"/><linearGradient id="Degradado_sin_nombre_41" x1="179.33" y1="130.76" x2="179.33" y2="102.78" gradientUnits="userSpaceOnUse"><stop offset="0" stop-color="#f26e14"/><stop offset="0.33" stop-color="#f68019"/><stop offset="0.99" stop-color="#ffb027"/><stop offset="1" stop-color="#ffb127"/></linearGradient><linearGradient id="Degradado_sin_nombre_22-2" x1="145.1" y1="107.53" x2="178.64" y2="107.53" xlink:href="#Degradado_sin_nombre_22"/><linearGradient id="linear-gradient-6" x1="33.19" y1="66.53" x2="54.69" y2="66.53" gradientUnits="userSpaceOnUse"><stop offset="0.01" stop-color="#4059bf"/><stop offset="1" stop-color="#9a5cff"/></linearGradient><linearGradient id="linear-gradient-7" x1="28.89" y1="74.46" x2="55.63" y2="74.46" xlink:href="#linear-gradient-6"/><linearGradient id="Degradado_sin_nombre_26-3" x1="38.41" y1="158.13" x2="49.63" y2="158.13" xlink:href="#Degradado_sin_nombre_26"/><linearGradient id="Degradado_sin_nombre_22-3" x1="41.69" y1="157.79" x2="58.38" y2="157.79" xlink:href="#Degradado_sin_nombre_22"/><linearGradient id="Degradado_sin_nombre_26-4" x1="41.69" y1="155.54" x2="59.28" y2="155.54" xlink:href="#Degradado_sin_nombre_26"/><linearGradient id="Degradado_sin_nombre_41-2" x1="59.53" y1="178.3" x2="59.53" y2="161" xlink:href="#Degradado_sin_nombre_41"/><linearGradient id="Degradado_sin_nombre_22-4" x1="38.36" y1="163.94" x2="59.1" y2="163.94" xlink:href="#Degradado_sin_nombre_22"/><linearGradient id="linear-gradient-8" x1="111.66" y1="54.76" x2="135.9" y2="54.76" gradientUnits="userSpaceOnUse"><stop offset="0" stop-color="#9a5cff"/><stop offset="0.99" stop-color="#4059bf"/></linearGradient><linearGradient id="linear-gradient-9" x1="110.69" y1="55.31" x2="134.08" y2="55.31" xlink:href="#linear-gradient-6"/><linearGradient id="Degradado_sin_nombre_60-2" x1="81.68" y1="127.89" x2="133.04" y2="127.89" xlink:href="#Degradado_sin_nombre_60"/><linearGradient id="Degradado_sin_nombre_60-3" x1="89.15" y1="76.57" x2="140.51" y2="76.57" xlink:href="#Degradado_sin_nombre_60"/><linearGradient id="linear-gradient-10" x1="130.05" y1="126.52" x2="130.05" y2="90.27" gradientUnits="userSpaceOnUse"><stop offset="0" stop-color="#355283"/><stop offset="0.14" stop-color="#335885"/><stop offset="0.34" stop-color="#2c6989"/><stop offset="0.56" stop-color="#208590"/><stop offset="0.79" stop-color="#10ab9b"/><stop offset="1" stop-color="#00d2a5"/></linearGradient><linearGradient id="linear-gradient-11" x1="123.06" y1="126.52" x2="123.06" y2="89.73" gradientUnits="userSpaceOnUse"><stop offset="0" stop-color="#4f78bb"/><stop offset="0.18" stop-color="#4a7eba"/><stop offset="0.42" stop-color="#3b8fb5"/><stop offset="0.7" stop-color="#23abaf"/><stop offset="0.99" stop-color="#01d1a5"/><stop offset="1" stop-color="#00d2a5"/></linearGradient><linearGradient id="linear-gradient-12" x1="113.7" y1="81.24" x2="125.17" y2="101.1" gradientUnits="userSpaceOnUse"><stop offset="0" stop-color="#00d2a5"/><stop offset="0.01" stop-color="#01d1a5"/><stop offset="0.3" stop-color="#23abaf"/><stop offset="0.58" stop-color="#3b8fb5"/><stop offset="0.82" stop-color="#4a7eba"/><stop offset="1" stop-color="#4f78bb"/></linearGradient><linearGradient id="linear-gradient-13" x1="94.22" y1="100.71" x2="111.33" y2="100.71" gradientTransform="translate(65.79 -38.35) rotate(30.69)" xlink:href="#linear-gradient-12"/><linearGradient id="linear-gradient-14" x1="94.87" y1="76.17" x2="120.93" y2="121.3" gradientUnits="userSpaceOnUse"><stop offset="0" stop-color="#00d2a5"/><stop offset="0.18" stop-color="#05cca6"/><stop offset="0.42" stop-color="#14bbab"/><stop offset="0.7" stop-color="#2c9fb1"/><stop offset="0.99" stop-color="#4e79bb"/><stop offset="1" stop-color="#4f78bb"/></linearGradient><linearGradient id="linear-gradient-15" x1="70.23" y1="92.26" x2="94.62" y2="134.51" gradientTransform="translate(69.4 -26.19) rotate(30.69)" gradientUnits="userSpaceOnUse"><stop offset="0" stop-color="#00d2a5"/><stop offset="0.22" stop-color="#00cea3"/><stop offset="0.42" stop-color="#02c39b"/><stop offset="0.61" stop-color="#04b08e"/><stop offset="0.81" stop-color="#07967c"/><stop offset="1" stop-color="#0b7466"/><stop offset="1" stop-color="#0b7365"/></linearGradient><linearGradient id="linear-gradient-16" x1="95.03" y1="100.24" x2="84.53" y2="118.44" gradientUnits="userSpaceOnUse"><stop offset="0" stop-color="#00d2a5"/><stop offset="0.26" stop-color="#04b08e"/><stop offset="0.57" stop-color="#088f78"/><stop offset="0.83" stop-color="#0a7a6a"/><stop offset="1" stop-color="#0b7365"/></linearGradient><linearGradient id="linear-gradient-17" x1="77.46" y1="113.08" x2="87.39" y2="113.08" gradientTransform="translate(69.25 -26.23) rotate(30.69)" gradientUnits="userSpaceOnUse"><stop offset="0" stop-color="#00b200"/><stop offset="0.06" stop-color="#08a40b"/><stop offset="0.22" stop-color="#188622"/><stop offset="0.38" stop-color="#246e34"/><stop offset="0.56" stop-color="#2d5e40"/><stop offset="0.75" stop-color="#325448"/><stop offset="1" stop-color="#34514a"/></linearGradient><linearGradient id="Degradado_sin_nombre_22-5" x1="78.25" y1="113.16" x2="86.32" y2="113.16" gradientTransform="translate(69.27 -26.15) rotate(30.69)" xlink:href="#Degradado_sin_nombre_22"/><linearGradient id="linear-gradient-18" x1="80.03" y1="113.16" x2="84.2" y2="113.16" gradientTransform="translate(69.25 -26.06) rotate(30.69)" gradientUnits="userSpaceOnUse"><stop offset="0" stop-color="#00b200"/><stop offset="0.2" stop-color="#02ae03"/><stop offset="0.4" stop-color="#09a10d"/><stop offset="0.61" stop-color="#148c1d"/><stop offset="0.82" stop-color="#246f33"/><stop offset="1" stop-color="#34514a"/></linearGradient><linearGradient id="Degradado_sin_nombre_22-6" x1="98.07" y1="181.02" x2="98.93" y2="181.02" xlink:href="#Degradado_sin_nombre_22"/><linearGradient id="Degradado_sin_nombre_22-7" x1="91.31" y1="167.96" x2="93.56" y2="167.96" xlink:href="#Degradado_sin_nombre_22"/><linearGradient id="Degradado_sin_nombre_45" x1="94.57" y1="173.65" x2="100.69" y2="173.65" gradientUnits="userSpaceOnUse"><stop offset="0" stop-color="#ff8e1d"/><stop offset="0.29" stop-color="#ffa01e"/><stop offset="0.89" stop-color="#ffd021"/><stop offset="1" stop-color="#ffda22"/></linearGradient><linearGradient id="Degradado_sin_nombre_22-8" x1="102.14" y1="180.8" x2="103.44" y2="180.8" xlink:href="#Degradado_sin_nombre_22"/><linearGradient id="Degradado_sin_nombre_22-9" x1="92.98" y1="164.73" x2="95.26" y2="164.73" xlink:href="#Degradado_sin_nombre_22"/><linearGradient id="Degradado_sin_nombre_22-10" x1="94.91" y1="165.56" x2="96.52" y2="165.56" xlink:href="#Degradado_sin_nombre_22"/><linearGradient id="Degradado_sin_nombre_22-11" x1="102.68" y1="179.69" x2="102.68" y2="178.48" xlink:href="#Degradado_sin_nombre_22"/><linearGradient id="Degradado_sin_nombre_22-12" x1="96.17" y1="166.87" x2="97.85" y2="166.87" xlink:href="#Degradado_sin_nombre_22"/><linearGradient id="Degradado_sin_nombre_22-13" x1="102.99" y1="174.71" x2="103.66" y2="174.71" xlink:href="#Degradado_sin_nombre_22"/><linearGradient id="Degradado_sin_nombre_22-14" x1="100.22" y1="169.65" x2="101.74" y2="169.65" xlink:href="#Degradado_sin_nombre_22"/><linearGradient id="Degradado_sin_nombre_22-15" x1="104.75" y1="178.38" x2="105.49" y2="178.38" xlink:href="#Degradado_sin_nombre_22"/><linearGradient id="Degradado_sin_nombre_22-16" x1="103.31" y1="176.33" x2="105.49" y2="176.33" xlink:href="#Degradado_sin_nombre_22"/><linearGradient id="Degradado_sin_nombre_22-17" x1="97.99" y1="165.92" x2="100.69" y2="165.92" xlink:href="#Degradado_sin_nombre_22"/><linearGradient id="Degradado_sin_nombre_22-18" x1="100.22" y1="167.83" x2="100.69" y2="167.83" xlink:href="#Degradado_sin_nombre_22"/><linearGradient id="Degradado_sin_nombre_22-19" x1="101.38" y1="170.23" x2="103.39" y2="170.23" xlink:href="#Degradado_sin_nombre_22"/><linearGradient id="Degradado_sin_nombre_22-20" x1="90.93" y1="173.64" x2="105.14" y2="173.64" xlink:href="#Degradado_sin_nombre_22"/><linearGradient id="Degradado_sin_nombre_22-21" x1="103.03" y1="171.58" x2="104.77" y2="171.58" xlink:href="#Degradado_sin_nombre_22"/><linearGradient id="Degradado_sin_nombre_22-22" x1="107.75" y1="172.82" x2="108.4" y2="172.82" xlink:href="#Degradado_sin_nombre_22"/><linearGradient id="Degradado_sin_nombre_22-23" x1="102.68" y1="163.02" x2="104.37" y2="163.02" xlink:href="#Degradado_sin_nombre_22"/><linearGradient id="Degradado_sin_nombre_45-2" x1="105.13" y1="167.3" x2="109.72" y2="167.3" xlink:href="#Degradado_sin_nombre_45"/><linearGradient id="Degradado_sin_nombre_22-24" x1="110.81" y1="172.66" x2="111.78" y2="172.66" xlink:href="#Degradado_sin_nombre_22"/><linearGradient id="Degradado_sin_nombre_22-25" x1="103.94" y1="160.6" x2="105.65" y2="160.6" xlink:href="#Degradado_sin_nombre_22"/><linearGradient id="Degradado_sin_nombre_22-26" x1="105.38" y1="161.22" x2="106.59" y2="161.22" xlink:href="#Degradado_sin_nombre_22"/><linearGradient id="Degradado_sin_nombre_22-27" x1="111.21" y1="171.82" x2="111.21" y2="170.92" xlink:href="#Degradado_sin_nombre_22"/><linearGradient id="Degradado_sin_nombre_22-28" x1="106.32" y1="162.21" x2="107.59" y2="162.21" xlink:href="#Degradado_sin_nombre_22"/><linearGradient id="Degradado_sin_nombre_22-29" x1="111.45" y1="168.09" x2="111.95" y2="168.09" xlink:href="#Degradado_sin_nombre_22"/><linearGradient id="Degradado_sin_nombre_22-30" x1="109.37" y1="164.29" x2="110.51" y2="164.29" xlink:href="#Degradado_sin_nombre_22"/><linearGradient id="Degradado_sin_nombre_22-31" x1="112.77" y1="170.84" x2="113.32" y2="170.84" xlink:href="#Degradado_sin_nombre_22"/><linearGradient id="Degradado_sin_nombre_22-32" x1="111.68" y1="169.31" x2="113.32" y2="169.31" xlink:href="#Degradado_sin_nombre_22"/><linearGradient id="Degradado_sin_nombre_22-33" x1="107.7" y1="161.49" x2="109.72" y2="161.49" xlink:href="#Degradado_sin_nombre_22"/><linearGradient id="Degradado_sin_nombre_22-34" x1="109.37" y1="162.93" x2="109.72" y2="162.93" xlink:href="#Degradado_sin_nombre_22"/><linearGradient id="Degradado_sin_nombre_22-35" x1="110.24" y1="164.73" x2="111.74" y2="164.73" xlink:href="#Degradado_sin_nombre_22"/><linearGradient id="Degradado_sin_nombre_22-36" x1="102.4" y1="167.28" x2="113.05" y2="167.28" xlink:href="#Degradado_sin_nombre_22"/><linearGradient id="Degradado_sin_nombre_22-37" x1="111.47" y1="165.74" x2="112.78" y2="165.74" xlink:href="#Degradado_sin_nombre_22"/><linearGradient id="Degradado_sin_nombre_22-38" x1="96.78" y1="162.97" x2="97.4" y2="162.97" xlink:href="#Degradado_sin_nombre_22"/><linearGradient id="Degradado_sin_nombre_22-39" x1="91.9" y1="153.55" x2="93.53" y2="153.55" xlink:href="#Degradado_sin_nombre_22"/><linearGradient id="Degradado_sin_nombre_45-3" x1="94.25" y1="157.66" x2="98.67" y2="157.66" xlink:href="#Degradado_sin_nombre_45"/><linearGradient id="Degradado_sin_nombre_22-40" x1="99.71" y1="162.82" x2="100.65" y2="162.82" xlink:href="#Degradado_sin_nombre_22"/><linearGradient id="Degradado_sin_nombre_22-41" x1="93.11" y1="151.22" x2="94.75" y2="151.22" xlink:href="#Degradado_sin_nombre_22"/><linearGradient id="Degradado_sin_nombre_22-42" x1="94.5" y1="151.82" x2="95.66" y2="151.82" xlink:href="#Degradado_sin_nombre_22"/><linearGradient id="Degradado_sin_nombre_22-43" x1="100.1" y1="162.01" x2="100.1" y2="161.14" xlink:href="#Degradado_sin_nombre_22"/><linearGradient id="Degradado_sin_nombre_22-44" x1="95.4" y1="152.76" x2="96.62" y2="152.76" xlink:href="#Degradado_sin_nombre_22"/><linearGradient id="Degradado_sin_nombre_22-45" x1="100.33" y1="158.42" x2="100.81" y2="158.42" xlink:href="#Degradado_sin_nombre_22"/><linearGradient id="Degradado_sin_nombre_22-46" x1="98.33" y1="154.77" x2="99.43" y2="154.77" xlink:href="#Degradado_sin_nombre_22"/><linearGradient id="Degradado_sin_nombre_22-47" x1="101.6" y1="161.07" x2="102.14" y2="161.07" xlink:href="#Degradado_sin_nombre_22"/><linearGradient id="Degradado_sin_nombre_22-48" x1="100.56" y1="159.59" x2="102.14" y2="159.59" xlink:href="#Degradado_sin_nombre_22"/><linearGradient id="Degradado_sin_nombre_22-49" x1="96.72" y1="152.08" x2="98.67" y2="152.08" xlink:href="#Degradado_sin_nombre_22"/><linearGradient id="Degradado_sin_nombre_22-50" x1="98.33" y1="153.46" x2="98.67" y2="153.46" xlink:href="#Degradado_sin_nombre_22"/><linearGradient id="Degradado_sin_nombre_22-51" x1="99.17" y1="155.19" x2="100.61" y2="155.19" xlink:href="#Degradado_sin_nombre_22"/><linearGradient id="Degradado_sin_nombre_22-52" x1="91.63" y1="157.65" x2="101.88" y2="157.65" xlink:href="#Degradado_sin_nombre_22"/><linearGradient id="Degradado_sin_nombre_22-53" x1="100.36" y1="156.16" x2="101.61" y2="156.16" xlink:href="#Degradado_sin_nombre_22"/><linearGradient id="Degradado_sin_nombre_26-5" x1="120.58" y1="179.84" x2="129.6" y2="179.84" xlink:href="#Degradado_sin_nombre_26"/><linearGradient id="Degradado_sin_nombre_22-54" x1="123.22" y1="179.57" x2="136.64" y2="179.57" xlink:href="#Degradado_sin_nombre_22"/><linearGradient id="Degradado_sin_nombre_26-6" x1="123.22" y1="177.76" x2="137.37" y2="177.76" xlink:href="#Degradado_sin_nombre_26"/><linearGradient id="Degradado_sin_nombre_41-3" x1="137.56" y1="196.06" x2="137.56" y2="182.15" xlink:href="#Degradado_sin_nombre_41"/><linearGradient id="Degradado_sin_nombre_22-55" x1="120.54" y1="184.51" x2="137.22" y2="184.51" xlink:href="#Degradado_sin_nombre_22"/></defs><title>Asset 7</title><g class="cls-1"><g id="Layer_2" data-name="Layer 2"><g id="Layer_1-2" data-name="Layer 1"><g class="cls-1"><path class="cls-2" d="M135.42,6.25a10.36,10.36,0,0,1,7.5-1,19.18,19.18,0,0,1,5.6,2.24,30,30,0,0,1,5.36,4l-8.28,4.82a29.51,29.51,0,0,0-5.36-4,19.21,19.21,0,0,0-5.6-2.24,10.39,10.39,0,0,0-7.49,1Z"/><path class="cls-3" d="M159.84,1.43a12,12,0,0,1,8.67-1.1A22.42,22.42,0,0,1,175,2.92a38.74,38.74,0,0,1,10.33,9C190.94,18.82,195,27.64,196,35.85A19.38,19.38,0,0,1,201.34,38a33.6,33.6,0,0,1,8.91,7.8c5.65,6.88,9.46,16,9.44,24,0,5.8-2.07,9.88-5.37,11.79L206,86.42c3.3-1.92,5.35-6,5.36-11.8,0-8-3.79-17.11-9.43-24a33.61,33.61,0,0,0-8.91-7.8,19.51,19.51,0,0,0-5.37-2.18c-1-8.21-5-17-10.65-23.89a38.75,38.75,0,0,0-10.33-9,22.18,22.18,0,0,0-6.47-2.59,12,12,0,0,0-8.67,1.1Z"/><path class="cls-4" d="M166.7,7.74c-10.66-6.16-19.52-2.25-21.1,8.63a29.51,29.51,0,0,0-5.36-4c-10.16-5.87-18.44-1.16-18.47,10.52s8.19,25.9,18.35,31.77l52.82,30.5C203.1,91,211.37,86.3,211.4,74.62s-8.18-25.92-18.34-31.78a19.51,19.51,0,0,0-5.37-2.18C186.16,28,177.37,13.89,166.7,7.74Z"/></g><ellipse class="cls-5" cx="138.3" cy="173.22" rx="64.98" ry="40.33"/><ellipse class="cls-6" cx="138.3" cy="173.22" rx="70.48" ry="43.74"/><ellipse class="cls-7" cx="138.3" cy="173.22" rx="61.98" ry="38.46"/><ellipse class="cls-8" cx="138.3" cy="173.22" rx="57.12" ry="35.45"/><path class="cls-9" d="M154.43,175.48c5.53,3.19,11.71-.16,11.69-6.7V50.63a20.44,20.44,0,0,0-10.22-17.71L115.13,9.38c-5.49-3.17-12.81.08-12.8,6.14"/><path class="cls-10" d="M154.43,175.48l-2.95-1.7-43.25-25a11.81,11.81,0,0,1-5.9-10.22V15.52a5.53,5.53,0,0,1,8.29-4.78l42.15,24.34a19.88,19.88,0,0,1,9.94,17.22V170.7A5.52,5.52,0,0,1,154.43,175.48Z"/><polygon class="cls-11" points="105.07 23.38 159.96 55.07 159.96 166 105.07 134.31 105.07 23.38"/><path class="cls-11" d="M128.21,27.39l11.3,6.52a2,2,0,0,1,1,1.74h0a1,1,0,0,1-1.46.85L127.82,30a2.08,2.08,0,0,1-1-1.8h0A1,1,0,0,1,128.21,27.39Z"/><path class="cls-12" d="M127.19,28a2.08,2.08,0,0,0,1,1.8l11.23,6.48a1,1,0,0,0,.76.09,1,1,0,0,1-1.16.14L127.82,30a2.08,2.08,0,0,1-1-1.8,1,1,0,0,1,.69-.92A.94.94,0,0,0,127.19,28Z"/><path class="cls-13" d="M136,156.4l-9.69-5.6a1.36,1.36,0,0,0-2,1.18h0a2.85,2.85,0,0,0,1.42,2.47l9.69,5.6a1.36,1.36,0,0,0,2-1.18h0A2.85,2.85,0,0,0,136,156.4Z"/><polygon class="cls-14" points="109.91 132.55 40.01 174.58 40.02 177.47 109.92 135.44 109.91 132.55"/><g class="cls-1"><polygon class="cls-15" points="145.17 84.31 146.64 83.46 163.32 111.97 161.85 112.82 145.17 84.31"/><polygon class="cls-16" points="177.47 101.65 163.94 109.11 150.49 86.08 177.47 101.65"/><polygon class="cls-17" points="150.49 86.59 151.96 85.74 178.94 101.32 177.47 102.17 150.49 86.59"/><polygon class="cls-18" points="161.85 112.82 163.32 111.97 180.1 102.78 178.64 103.63 161.85 112.82"/><polygon class="cls-19" points="178.64 103.63 180.1 102.78 180.03 129.91 178.56 130.76 178.64 103.63"/><polygon class="cls-20" points="178.64 103.63 178.56 130.76 145.1 111.44 145.17 84.31 161.85 112.82 178.64 103.63"/></g><g class="cls-1"><polygon class="cls-21" points="28.95 55.94 30.11 55.27 43.41 78 42.24 78.67 28.95 55.94"/><polygon class="cls-22" points="54.7 69.77 43.91 75.72 33.19 57.35 54.7 69.77"/><polygon class="cls-21" points="33.19 57.76 34.35 57.09 55.86 69.5 54.7 70.18 33.19 57.76"/><polygon class="cls-18" points="42.24 78.67 43.41 78 56.8 70.67 55.63 71.35 42.24 78.67"/><polygon class="cls-21" points="55.63 71.35 56.8 70.67 56.73 92.3 55.56 92.97 55.63 71.35"/><polygon class="cls-23" points="55.63 71.35 55.56 92.97 28.89 77.57 28.95 55.94 42.24 78.67 55.63 71.35"/></g><g class="cls-1"><polygon class="cls-24" points="38.41 149.58 39.31 149.05 49.63 166.68 48.72 167.21 38.41 149.58"/><polygon class="cls-25" points="58.38 160.3 50.01 164.92 41.69 150.67 58.38 160.3"/><polygon class="cls-26" points="41.69 150.99 42.6 150.47 59.28 160.1 58.38 160.62 41.69 150.99"/><polygon class="cls-18" points="48.72 167.21 49.63 166.68 60.01 161 59.1 161.53 48.72 167.21"/><polygon class="cls-27" points="59.1 161.53 60.01 161 59.96 177.78 59.05 178.3 59.1 161.53"/><polygon class="cls-28" points="59.1 161.53 59.05 178.3 38.36 166.35 38.41 149.58 48.72 167.21 59.1 161.53"/></g><path class="cls-29" d="M111.66,37.58l1.71-1,.08,0,.09,0h0a2.07,2.07,0,0,1,1.94.24l17.47,10.11a6.73,6.73,0,0,1,3,5.31V67.74a2.17,2.17,0,0,1-1.05,2.14h0l-1.65.94-1.26-.89.79-.42-3.43-2-.38.41L125.07,72a.82.82,0,0,1-.19.15l-1.77,1,.27-2h0l-.07-.14-3.85-8.52-.38-.85-3.63-2.1a6.73,6.73,0,0,1-3-5.31V38.65c0-.06,0-.11,0-.17Z"/><path class="cls-30" d="M113.65,37.8l17.47,10.11a6.73,6.73,0,0,1,3,5.31V68.78c0,2-1.33,2.83-3,1.88l-3.63-2.1-.38.41L123.25,73c-.43.45-1.3,0-1.73-1l-3.85-8.52-.38-.85-3.63-2.1a6.73,6.73,0,0,1-3-5.31V39.68C110.69,37.7,112,36.85,113.65,37.8Z"/><path class="cls-11" d="M119.73,50.37a6,6,0,0,0,2.66,4.77c1.47.85,2.66.09,2.66-1.69a6,6,0,0,0-2.66-4.77C120.92,47.83,119.73,48.59,119.73,50.37Z"/><path class="cls-11" d="M120.18,54.91l4.41,2.55a6.54,6.54,0,0,1,2.88,5.16h0L117.3,56.75h0C117.3,54.81,118.59,54,120.18,54.91Z"/><polygon class="cls-31" points="133.03 108.86 81.68 139.74 81.69 146.92 133.04 116.04 133.03 108.86"/><polygon class="cls-32" points="140.5 57.54 89.15 88.42 89.16 95.6 140.51 64.72 140.5 57.54"/><path class="cls-33" d="M126,126.52V93.14l4.9-2.87s.6,21.87,3.11,30.38a1.38,1.38,0,0,1-.63,1.6Z"/><polygon class="cls-34" points="126.01 126.52 120.11 123.11 120.11 89.73 126.01 93.14 126.01 126.52"/><polygon class="cls-35" points="120.11 89.73 125 86.87 130.91 90.28 126.01 93.14 120.11 89.73"/><path class="cls-36" d="M136.28,81.41c-3.22-5.42-8.63-8.15-12.09-6.09L96.84,91l11.76,19.55,27.24-15.58C139.3,92.89,139.5,86.83,136.28,81.41Z"/><ellipse class="cls-37" cx="102.78" cy="100.71" rx="7.29" ry="11.41" transform="translate(-37 66.55) rotate(-30.69)"/><path class="cls-38" d="M130.14,84.61c-3.57-6-9.58-9-13.43-6.76l-4,2.28a71.06,71.06,0,0,1-40.61,9.18h0l26,45.16,13.88-19a56.59,56.59,0,0,1,17.63-15.79h0C133.49,97.35,133.71,90.62,130.14,84.61Z"/><ellipse class="cls-39" cx="82.56" cy="113.31" rx="16.91" ry="26.46" transform="translate(-46.26 58) rotate(-30.69)"/><ellipse class="cls-40" cx="82.42" cy="113.38" rx="15.59" ry="24.39" transform="translate(-46.32 57.94) rotate(-30.69)"/><path class="cls-41" d="M95.83,105.43a35.51,35.51,0,0,0-7.77-9.21l-9,11.17.73,2.74L85.43,119l13.91-5.62A36.71,36.71,0,0,0,95.83,105.43Z"/><ellipse class="cls-42" cx="82.42" cy="113.08" rx="4.23" ry="6.62" transform="matrix(0.86, -0.51, 0.51, 0.86, -46.17, 57.9)"/><ellipse class="cls-43" cx="82.29" cy="113.16" rx="3.44" ry="5.38" transform="translate(-46.23 57.84) rotate(-30.69)"/><ellipse class="cls-44" cx="82.12" cy="113.16" rx="1.78" ry="2.78" transform="translate(-46.25 57.75) rotate(-30.69)"/><g class="cls-1"><polygon class="cls-45" points="98.57 180.16 98.93 179.96 98.43 181.88 98.07 182.07 98.57 180.16"/><polygon class="cls-46" points="91.31 167.51 91.67 167.32 93.56 168.41 93.2 168.6 91.31 167.51"/><path class="cls-47" d="M100.33,177.88l.36-.19-.14.07,0,0-.1,0h0l-.1,0h-.05l-.14,0h-.73l-.12,0h-.05l-.17,0h0l-.15,0-.05,0-.13-.05,0,0-.17-.08,0,0-.14-.07-.05,0-.15-.09,0,0-.19-.13-.15-.11-.07-.05-.09-.07-.08-.06-.09-.07-.08-.07-.08-.08-.08-.08-.08-.08-.09-.09-.07-.08-.09-.1-.07-.08-.09-.11-.06-.07-.16-.21h0l-.2-.29,0,0L96,175.2l0-.06-.13-.23,0-.06,0-.06-.07-.13,0-.07,0-.1-.06-.14,0-.09,0-.11,0-.11,0-.09,0-.12,0-.09,0-.12,0-.09,0-.12,0-.09,0-.12,0-.08,0-.14v-.06l0-.2v0l0-.17v-.07l0-.13V172s0-.09,0-.14v-.05c0-.06,0-.13,0-.19v0c0-.05,0-.1,0-.16v-.26c0-.05,0-.11,0-.16l0-.11,0-.09,0-.07,0-.1,0-.07,0-.11,0-.06.06-.17.05-.12v0l0-.08,0-.06,0-.06,0-.06,0-.06,0,0,0-.06,0,0,0-.05,0,0,0-.05,0,0,.05,0,0,0,.06,0,0,0,.07,0,0,0,.1-.06-.36.19-.1.06,0,0-.07,0,0,0-.06,0,0,0-.05,0,0,0,0,.05,0,0,0,.05,0,0,0,.06,0,0v0l0,0,0,.06,0,.06,0,.06v0l0,.06v0l-.05.11h0l-.06.17v.06l0,.11v.07l0,.1V171l0,.09v.55s0,.09,0,.13v0h0q0,.08,0,.17v.07s0,.07,0,.1v.53l0,.16v0h0l0,.19h0v.06l0,.12v0l0,.08,0,.09v0l0,.09,0,.08v0l0,.09,0,.06,0,.05,0,.09,0,.05,0,.06,0,.09,0,0,0,.06,0,.11,0,0,0,.05.06.14,0,.05,0,.05,0,.07.07.13,0,.06v0l0,0,.13.23,0,.06.17.26v0l0,0,.2.29h0l.16.21v0l0,.05.09.11,0,0,0,0,.09.1,0,0,0,0,.09.09,0,0,0,0,.08.08,0,0,0,0L97,177l0,0,0,0,.08.07,0,0,.05,0,.07.05,0,0,.12.08,0,0,.15.1h0l0,0,.11.07,0,0,.05,0,.05,0,.09,0,0,0h0l.14.06h0l0,0,.08,0,.05,0,.05,0h0l.11,0h0l.14,0h.07l.08,0h.77l.1,0h.09l.1,0h.07l.08,0,0,0Z"/><polygon class="cls-48" points="102.14 179.69 102.5 179.49 103.44 181.92 103.08 182.12 102.14 179.69"/><polygon class="cls-49" points="92.98 165.16 93.34 164.97 95.26 164.3 94.91 164.5 92.98 165.16"/><polygon class="cls-50" points="94.91 164.5 95.26 164.3 96.52 166.62 96.17 166.81 94.91 164.5"/><path class="cls-51" d="M103.06,178.78l.09-.17h0l.06-.12h0l-.36.19-.07.13-.09.17,0,0-.08.13,0,.05-.06.08,0,.05-.06.08,0,0-.07.08,0,0-.11.11.36-.19.11-.11,0,0,.07-.08,0,0,.06-.08,0-.05.06-.08,0,0v0l.08-.13Z"/><path class="cls-52" d="M96.61,166.87h0l.2,0h.05l.15,0,.06,0,.15,0,.05,0,.19.07.36-.19-.19-.07h-.05l-.15,0H97.4l-.15,0H97.2l-.2,0h0l-.18,0h-.06l-.21,0h0l-.36.19.21,0h.06Z"/><path class="cls-53" d="M103.12,174.43l0,.08,0,.19v.07l0,.25v0l0,.22v.08l0,.17v.14l.36-.19v-.14l0-.17v-.08l0-.22v0h0l0-.25v-.07l0-.19v-.08l-.05-.22v0h0l-.06-.23h0l-.36.19.06.23v0Z"/><path class="cls-54" d="M100.57,169.41l.21.25,0,0,.23.3,0,.05.1.14,0,.07.15.21.36-.19-.15-.21,0-.07-.1-.14,0,0,0,0-.23-.3h0l0,0-.21-.25,0,0h0l-.22-.24,0,0-.08-.09-.36.19.11.11.22.24Z"/><polygon class="cls-55" points="105.14 177.19 105.49 177 105.11 179.57 104.75 179.76 105.14 177.19"/><polygon class="cls-56" points="103.31 175.67 103.66 175.48 105.49 177 105.14 177.19 103.31 175.67"/><polygon class="cls-57" points="97.99 165.2 98.35 165.01 100.69 166.64 100.33 166.84 97.99 165.2"/><polygon class="cls-58" points="100.33 166.84 100.69 166.64 100.58 168.83 100.22 169.02 100.33 166.84"/><polygon class="cls-59" points="104.41 173.16 104.77 172.97 103.35 173.74 102.99 173.94 104.41 173.16"/><polygon class="cls-60" points="101.38 170.47 101.74 170.27 103.39 169.99 103.03 170.18 101.38 170.47"/><path class="cls-61" d="M104.75,179.77l-1.89-1.09a3.34,3.34,0,0,1-.72,1l.94,2.43-1.92.66-1.26-2.32a4.44,4.44,0,0,1-1.33-.3l-.5,1.92-2.34-1.64.11-2.19a11,11,0,0,1-1.16-1.44l-1.65.28-1.38-3,1.42-.78a9.54,9.54,0,0,1-.31-1.74l-1.83-1.52.38-2.58,1.89,1.09a3.36,3.36,0,0,1,.72-1L93,165.16l1.92-.66,1.26,2.32a4.42,4.42,0,0,1,1.33.3l.5-1.92,2.34,1.64-.11,2.19a11,11,0,0,1,1.16,1.44l1.65-.28,1.38,3-1.42.78a9.5,9.5,0,0,1,.31,1.74l1.83,1.52Zm-7.28-2.36c1.89,1.32,3.67.71,4-1.38a7.08,7.08,0,0,0-2.86-6.16c-1.89-1.32-3.67-.71-4,1.37a7.08,7.08,0,0,0,2.86,6.16"/><polygon class="cls-62" points="103.03 170.18 103.39 169.99 104.77 172.97 104.41 173.16 103.03 170.18"/></g><g class="cls-1"><polygon class="cls-63" points="108.13 172.18 108.4 172.03 108.02 173.47 107.75 173.61 108.13 172.18"/><polygon class="cls-64" points="102.68 162.69 102.95 162.54 104.37 163.36 104.1 163.51 102.68 162.69"/><path class="cls-65" d="M109.45,170.46l.27-.15-.1,0h0l-.07,0h0l-.07,0h0l-.1,0h-.54l-.09,0h0l-.13,0h0l-.11,0h0l-.1,0h0l-.13-.06h0l-.11-.06,0,0-.12-.07h0l-.15-.1-.11-.08-.05,0-.07-.06-.06,0-.06-.06-.06-.05-.06-.06-.06-.06-.06-.06-.06-.07-.05-.06-.07-.07-.05-.06-.07-.08,0-.05-.12-.16h0l-.15-.21,0,0-.12-.19,0,0-.1-.18,0,0,0,0,0-.1,0-.05,0-.08,0-.1,0-.07,0-.08,0-.08,0-.07,0-.09,0-.07,0-.09,0-.07,0-.09,0-.07,0-.09,0-.06,0-.11v0l0-.15v0l0-.13v-.5s0-.1,0-.14v0s0-.08,0-.12v-.52l0-.07v0l0-.08v0l0-.13,0-.09v0l0-.06,0,0,0,0,0,0,0,0,0,0,0,0,0,0,0,0,0,0,0,0,0,0,0,0,0,0,0,0,0,0,0,0,0,0,.08,0-.27.15-.08,0,0,0,0,0,0,0,0,0,0,0,0,0,0,0,0,0,0,0,0,0,0,0,0,0,0,0h0l0,0,0,0,0,0,0,0h0l0,0v0l0,.09h0l0,.13h0v0l0,.08v0l0,.07v.54s0,.07,0,.1v0h0s0,.08,0,.13h0v.5h0l0,.12v0h0l0,.14h0v0l0,.09v0l0,.06,0,.07v0l0,.07,0,.06v0l0,.07,0,0v0l0,.07v0l0,0,0,.07v0l0,0,0,.08v0l0,0,0,.1,0,0,0,0,0,.05,0,.1,0,0v0l0,0,.1.18,0,0,.12.19h0l0,0,.15.21h0l.12.16h0l0,0,.07.08,0,0,0,0,.07.07,0,0,0,0,.06.07,0,0,0,0,.06.06,0,0,0,0,.06.05,0,0,0,0,.06,0,0,0,0,0,.05,0,0,0,.09.06,0,0,.11.07h0l.09.05,0,0,0,0,0,0,.07,0h0l.11,0h0l.06,0h.11l.09,0h0l.11,0h.83l.07,0h0l.06,0h0Z"/><polygon class="cls-66" points="110.81 171.82 111.08 171.68 111.78 173.5 111.51 173.65 110.81 171.82"/><polygon class="cls-67" points="103.94 160.92 104.2 160.78 105.65 160.28 105.38 160.43 103.94 160.92"/><polygon class="cls-68" points="105.38 160.43 105.65 160.28 106.59 162.02 106.32 162.16 105.38 160.43"/><path class="cls-69" d="M111.5,171.14l.07-.13h0l0-.09h0l-.27.15,0,.1-.07.13,0,0-.06.1,0,0,0,.06,0,0,0,.06,0,0-.05.06,0,0-.08.08.27-.15.08-.08,0,0,.05-.06,0,0,0-.06,0,0,0-.06,0,0v0l.06-.1Z"/><path class="cls-70" d="M106.66,162.2h0l.15,0h0l.11,0h0l.11,0h0l.14.05.27-.15-.14-.05h0l-.11,0h0l-.11,0h0l-.15,0h0l-.13,0h-.2l-.27.15h.2Z"/><path class="cls-71" d="M111.54,167.88v.06l0,.15v.05l0,.19v0l0,.16v.29l.27-.15v-.29l0-.16v0h0l0-.19v-.05l0-.15v-.06l0-.17v0h0l0-.17h0l-.27.15,0,.17v0Z"/><path class="cls-72" d="M109.63,164.11l.16.19,0,0,.18.23,0,0,.08.1,0,.05.11.16.27-.15-.11-.16,0-.05-.08-.1,0,0,0,0-.18-.23h0l0,0-.16-.19v0h0l-.16-.18,0,0-.06-.07-.27.15.08.08.16.18Z"/><polygon class="cls-73" points="113.05 169.95 113.32 169.8 113.04 171.74 112.77 171.88 113.05 169.95"/><polygon class="cls-74" points="111.68 168.81 111.95 168.67 113.32 169.8 113.05 169.95 111.68 168.81"/><polygon class="cls-75" points="107.7 160.95 107.97 160.81 109.72 162.04 109.45 162.18 107.7 160.95"/><polygon class="cls-76" points="109.45 162.18 109.72 162.04 109.63 163.68 109.37 163.82 109.45 162.18"/><polygon class="cls-59" points="112.51 166.93 112.78 166.78 111.72 167.36 111.45 167.51 112.51 166.93"/><polygon class="cls-77" points="110.24 164.91 110.51 164.76 111.74 164.55 111.47 164.69 110.24 164.91"/><path class="cls-78" d="M112.77,171.88l-1.42-.82a2.51,2.51,0,0,1-.54.76l.71,1.82-1.44.5-.95-1.74a3.33,3.33,0,0,1-1-.23l-.37,1.44L106,172.39l.08-1.64a8.29,8.29,0,0,1-.87-1.08l-1.24.21-1-2.23,1.06-.58a7.15,7.15,0,0,1-.23-1.3l-1.37-1.14.29-1.93,1.42.82a2.52,2.52,0,0,1,.54-.76l-.71-1.82,1.44-.5.95,1.74a3.32,3.32,0,0,1,1,.23l.37-1.44,1.75,1.23-.08,1.64a8.26,8.26,0,0,1,.87,1.08l1.24-.21,1,2.23-1.06.58a7.13,7.13,0,0,1,.23,1.3l1.37,1.14Zm-5.46-1.77c1.42,1,2.75.53,3-1a5.31,5.31,0,0,0-2.15-4.62c-1.42-1-2.75-.53-3,1a5.31,5.31,0,0,0,2.15,4.62"/><polygon class="cls-79" points="111.47 164.69 111.74 164.55 112.78 166.78 112.51 166.93 111.47 164.69"/></g><g class="cls-1"><polygon class="cls-80" points="97.14 162.35 97.4 162.21 97.04 163.59 96.78 163.74 97.14 162.35"/><polygon class="cls-81" points="91.9 153.23 92.16 153.09 93.53 153.87 93.27 154.01 91.9 153.23"/><path class="cls-82" d="M98.41,160.7l.26-.14-.1,0h0l-.07,0h0l-.07,0h0l-.1,0H97.7l-.08,0h0l-.12,0h0l-.11,0h0l-.1,0h0l-.12-.06h0l-.1-.05,0,0-.11-.07h0l-.14-.09-.11-.08,0,0-.07-.05-.06,0-.06-.05-.06-.05-.06-.05-.06-.06-.06-.06-.06-.06-.05-.06-.06-.07,0-.06-.07-.08,0-.05-.12-.15h0l-.15-.21,0,0-.12-.19,0,0-.1-.17,0,0,0,0,0-.09,0-.05,0-.07,0-.1,0-.07,0-.08,0-.08,0-.07,0-.08,0-.07,0-.08,0-.06,0-.09,0-.06,0-.09,0-.06,0-.1v0l0-.15v0l0-.13v-.48s0-.09,0-.14v0s0-.08,0-.11v-.5l0-.07v0l0-.08v0l0-.12,0-.09v0l0-.06,0,0,0,0,0,0,0,0,0,0,0,0,0,0,0,0,0,0,0,0,0,0,0,0,0,0,0,0,0,0,0,0,0,0,.07,0-.26.14-.07,0,0,0,0,0,0,0,0,0,0,0,0,0,0,0,0,0,0,0,0,0,0,0,0,0,0,0h0l0,0,0,0,0,0,0,0h0l0,0v0l0,.08h0l0,.12h0v0l0,.08v0l0,.07v.52s0,.06,0,.09v0h0s0,.08,0,.12h0V157h0l0,.11v0h0l0,.14h0v0l0,.09v0l0,.06,0,.07v0l0,.06,0,.05v0l0,.06v.08l0,.07v0l0,0,0,.07v0l0,0,0,.08v0l0,0,0,.1,0,0,0,0,0,.05,0,.09,0,0v0l.1.17,0,0,.12.19h0v0l.15.21h0l.12.15h0l0,0,.07.08,0,0,0,0,.06.07,0,0,0,0,.06.06,0,0,0,0,.06.06,0,0,0,0,.06.05,0,0,0,0,.06,0,0,0,0,0,0,0,0,0,.08.06,0,0,.11.07h0l.08.05,0,0,0,0,0,0,.06,0h0l.1,0h0l.06,0h.1l.08,0h0l.1,0h.8l.07,0h0l.06,0h0Z"/><polygon class="cls-83" points="99.72 162.01 99.97 161.87 100.65 163.63 100.39 163.76 99.72 162.01"/><polygon class="cls-84" points="93.11 151.53 93.37 151.39 94.75 150.91 94.5 151.05 93.11 151.53"/><polygon class="cls-85" points="94.5 151.05 94.75 150.91 95.66 152.58 95.4 152.72 94.5 151.05"/><path class="cls-86" d="M100.38,161.36l.07-.12h0l0-.09h0l-.26.14,0,.1-.07.12v0l-.06.09,0,0,0,.06,0,0,0,.06,0,0-.05.06,0,0-.08.08.26-.14.08-.08,0,0,.05-.06,0,0,0-.06,0,0,0-.06,0,0v0l.06-.09Z"/><path class="cls-87" d="M95.72,152.76h0l.14,0h0l.11,0h0l.11,0h0l.14,0,.26-.14-.14,0h0l-.11,0h0l-.11,0h0l-.14,0h0l-.13,0h-.19l-.26.14h.19Z"/><path class="cls-88" d="M100.42,158.22v.06l0,.14v.05l0,.18v0l0,.16v.28l.26-.14v-.28l0-.16v0h0l0-.18v-.05l0-.14v-.06l0-.16v0h0l0-.16h0l-.26.14,0,.17v0Z"/><path class="cls-89" d="M98.58,154.6l.15.18,0,0,.17.22,0,0,.07.1,0,0,.11.15.26-.14-.11-.15,0,0-.07-.1v0l0,0-.17-.22h0l0,0-.15-.18v0h0l-.16-.17,0,0-.06-.06-.26.14.08.08.16.17Z"/><polygon class="cls-90" points="101.88 160.21 102.14 160.07 101.86 161.93 101.6 162.07 101.88 160.21"/><polygon class="cls-91" points="100.56 159.12 100.81 158.98 102.14 160.07 101.88 160.21 100.56 159.12"/><polygon class="cls-92" points="96.72 151.56 96.98 151.42 98.67 152.6 98.41 152.74 96.72 151.56"/><polygon class="cls-93" points="98.41 152.74 98.67 152.6 98.59 154.18 98.33 154.32 98.41 152.74"/><polygon class="cls-59" points="101.35 157.3 101.61 157.16 100.59 157.72 100.33 157.86 101.35 157.3"/><polygon class="cls-94" points="99.17 155.36 99.43 155.22 100.61 155.01 100.36 155.16 99.17 155.36"/><path class="cls-95" d="M101.6,162.07l-1.37-.79a2.41,2.41,0,0,1-.52.73l.68,1.75-1.39.48-.91-1.67a3.2,3.2,0,0,1-1-.22l-.36,1.38-1.69-1.18.08-1.58a8,8,0,0,1-.84-1l-1.19.2-1-2.15,1-.56a6.88,6.88,0,0,1-.23-1.25l-1.32-1.09.28-1.86,1.37.79a2.42,2.42,0,0,1,.52-.73l-.68-1.75,1.39-.48.91,1.67a3.19,3.19,0,0,1,1,.22l.36-1.38,1.69,1.18-.08,1.58a8,8,0,0,1,.84,1l1.19-.2,1,2.15-1,.56a6.86,6.86,0,0,1,.23,1.25l1.32,1.09Zm-5.25-1.7c1.36,1,2.65.51,2.87-1a5.11,5.11,0,0,0-2.06-4.45c-1.36-1-2.65-.51-2.87,1a5.11,5.11,0,0,0,2.06,4.45"/><polygon class="cls-96" points="100.36 155.16 100.61 155.01 101.61 157.16 101.35 157.3 100.36 155.16"/></g><g class="cls-1"><polygon class="cls-97" points="19.57 99.99 21.54 98.83 14.57 86.89 12.59 88.06 19.57 99.99"/><polygon class="cls-97" points="14.71 86.85 16.68 85.68 8.96 78.91 6.98 80.08 14.71 86.85"/><polygon class="cls-97" points="29.11 101.01 31.08 99.84 21.54 98.83 19.57 99.99 29.11 101.01"/><polygon class="cls-97" points="42.33 123.51 44.3 122.34 31.08 99.84 29.11 101.01 42.33 123.51"/><polygon class="cls-98" points="14.71 86.85 6.98 80.08 9.07 90.08 11.18 88.86 19.1 102.41 28.64 103.43 40.91 124.33 42.33 123.51 29.11 101.01 19.57 99.99 12.59 88.06 14.71 86.85"/></g><g class="cls-1"><polygon class="cls-99" points="6.54 121.61 12.46 118.11 12.35 96 6.43 99.5 6.54 121.61"/><polygon class="cls-100" points="6.43 99.5 12.35 96 5.92 92.35 0 95.85 6.43 99.5"/><polygon class="cls-101" points="0 95.85 0.1 117.96 6.54 121.61 6.43 99.5 0 95.85"/></g><g class="cls-1"><polygon class="cls-102" points="14.7 126.24 20.62 122.74 20.56 109.25 14.64 112.75 14.7 126.24"/><polygon class="cls-103" points="14.64 112.75 20.56 109.25 14.12 105.6 8.21 109.1 14.64 112.75"/><polygon class="cls-104" points="8.21 109.1 8.27 122.59 14.7 126.24 14.64 112.75 8.21 109.1"/></g><g class="cls-1"><polygon class="cls-105" points="22.87 130.87 28.79 127.38 28.7 110.29 22.79 113.78 22.87 130.87"/><polygon class="cls-106" points="22.79 113.78 28.7 110.29 22.27 106.63 16.35 110.13 22.79 113.78"/><polygon class="cls-107" points="16.35 110.13 16.43 127.22 22.87 130.87 22.79 113.78 16.35 110.13"/></g><g class="cls-1"><polygon class="cls-108" points="31.03 135.41 36.94 131.91 36.9 122.49 30.98 125.99 31.03 135.41"/><polygon class="cls-109" points="30.98 125.99 36.9 122.49 30.47 118.84 24.55 122.34 30.98 125.99"/><polygon class="cls-110" points="24.55 122.34 24.59 131.76 31.03 135.41 30.98 125.99 24.55 122.34"/></g><g class="cls-1"><polygon class="cls-111" points="120.58 172.97 121.31 172.54 129.6 186.72 128.87 187.14 120.58 172.97"/><polygon class="cls-112" points="136.64 181.59 129.91 185.3 123.22 173.84 136.64 181.59"/><polygon class="cls-113" points="123.22 174.1 123.95 173.68 137.37 181.42 136.64 181.85 123.22 174.1"/><polygon class="cls-18" points="128.87 187.14 129.6 186.72 137.95 182.15 137.22 182.57 128.87 187.14"/><polygon class="cls-114" points="137.22 182.57 137.95 182.15 137.91 195.64 137.18 196.06 137.22 182.57"/><polygon class="cls-115" points="137.22 182.57 137.18 196.06 120.54 186.46 120.58 172.97 128.87 187.14 137.22 182.57"/></g></g></g></g></svg>