<svg xmlns="http://www.w3.org/2000/svg" xmlns:xlink="http://www.w3.org/1999/xlink" viewBox="0 0 248.33 211.51"><defs><style>.cls-1{fill:url(#linear-gradient);}.cls-2{fill:url(#linear-gradient-2);}.cls-3{fill:#fff;}.cls-4{fill:#f1f1f1;}.cls-5{fill:#888;}.cls-6{fill:#b1b1b1;}.cls-7{fill:#34969c;}.cls-8{fill:#50babf;}.cls-9{opacity:0.9;}.cls-10{fill:url(#linear-gradient-3);}.cls-11{fill:#edadbd;}.cls-12{fill:url(#linear-gradient-4);}.cls-13{fill:#465faa;}.cls-14{fill:url(#linear-gradient-5);}.cls-15{fill:#ecf0f1;}.cls-16{isolation:isolate;}.cls-17{fill:url(#linear-gradient-6);}.cls-18{fill:#f69c21;}.cls-19{fill:#e6e7e8;}.cls-20{fill:url(#linear-gradient-7);}.cls-21{fill:#1c695c;}.cls-22{fill:#ace2ec;}.cls-23{fill:#f9c172;}.cls-24{fill:#204451;}.cls-25{fill:#defdff;}.cls-26{fill:#28a5b2;}.cls-27{fill:#5ecce5;}.cls-28{fill:#82d3e2;}.cls-29{fill:#ffb45a;}.cls-30{fill:#113240;}.cls-31{fill:#bde2e5;}.cls-32{fill:#1e7c85;}.cls-33{fill:#3db5c9;}.cls-34{fill:#facb88;}.cls-35{fill:#15baac;}.cls-36{fill:#0baf9b;}.cls-37{fill:#0a9b86;}.cls-38{fill:#4be0ca;}</style><linearGradient id="linear-gradient" x1="43.56" y1="177.91" x2="199.38" y2="177.91" gradientUnits="userSpaceOnUse"><stop offset="0" stop-color="#595ec5"/><stop offset="1" stop-color="#00d2a5"/></linearGradient><linearGradient id="linear-gradient-2" x1="43.58" y1="159.6" x2="199.38" y2="159.6" xlink:href="#linear-gradient"/><linearGradient id="linear-gradient-3" x1="222.49" y1="152.29" x2="231.24" y2="152.29" gradientUnits="userSpaceOnUse"><stop offset="0" stop-color="#595ec5"/><stop offset="0.31" stop-color="#844daa"/><stop offset="1" stop-color="#ee2467"/></linearGradient><linearGradient id="linear-gradient-4" x1="199.38" y1="127.63" x2="245.76" y2="127.63" xlink:href="#linear-gradient-3"/><linearGradient id="linear-gradient-5" x1="51.5" y1="84.54" x2="87.71" y2="37.87" gradientUnits="userSpaceOnUse"><stop offset="0.01" stop-color="#4059bf"/><stop offset="1" stop-color="#9a5cff"/></linearGradient><linearGradient id="linear-gradient-6" x1="137.6" y1="53.75" x2="183.99" y2="53.75" xlink:href="#linear-gradient"/><linearGradient id="linear-gradient-7" x1="-15.54" y1="172.18" x2="30.83" y2="135.6" xlink:href="#linear-gradient"/></defs><title>Asset 8</title><g id="Layer_2" data-name="Layer 2"><g id="Layer_1-2" data-name="Layer 1"><path class="cls-1" d="M196.37,148.52,102.59,203A16.12,16.12,0,0,1,88,203L67.3,191.09,46.64,179.16c-2-1.18-3.06-2.72-3.06-4.27l0,6.74c0,1.54,1,3.09,3.06,4.27l20.66,11.93,20.66,11.93a16.12,16.12,0,0,0,14.63,0l93.78-54.5c2-1.16,3-2.68,3-4.21l0-6.74C199.37,145.83,198.37,147.35,196.37,148.52Z"/><path class="cls-2" d="M196.32,140c4.05,2.34,4.07,6.13,0,8.47L102.59,203A16.12,16.12,0,0,1,88,203L67.3,191.09,46.64,179.16c-4.06-2.34-4.08-6.14,0-8.48l93.78-54.5a16.12,16.12,0,0,1,14.63,0l20.66,11.93Z"/><path class="cls-3" d="M195.06,140.7a6.86,6.86,0,0,1,.88.61c2.43,1.94,2.16,4.67-.85,6.41L166.39,164.4l-65.07,37.81a13.38,13.38,0,0,1-12.12,0L68.54,190.29l44.55-25.89,39.74-23.1,21.57-12.54Z"/><path class="cls-4" d="M174.4,128.77,152.83,141.3l-39.74,23.1L68.54,190.29,47.88,178.36c-3.36-1.94-3.37-5.09,0-7l11.93-6.93,39.74-23.1,42.1-24.47a13.38,13.38,0,0,1,12.12,0Z"/><path class="cls-5" d="M161.29,127.24c.42.24.54.62.25.93a1.94,1.94,0,0,1-1.84.33,1.58,1.58,0,0,1-.33-.14c-.41-.24-.53-.61-.25-.93a2,2,0,0,1,1.84-.33A1.59,1.59,0,0,1,161.29,127.24Z"/><path class="cls-3" d="M77.69,185.15a2.63,2.63,0,0,1,1.16,1.2v0a1.52,1.52,0,0,1,.1.53,2,2,0,0,1-1,1.58l-.07,0-.07,0-.15.09-.08,0,0,0,0,0-.06,0-.09,0-.08,0-.08,0-.08,0-.08,0h0L77,189l0,0h0l-.07,0a7.09,7.09,0,0,1-4.4,0l-.08,0h0l0,0-.05,0h0l-.06,0-.09,0-.08,0-.08,0-.08,0-.08,0,0,0,0,0-.06,0-.17-.1-.07,0-.07,0a2,2,0,0,1-1-1.58,1.51,1.51,0,0,1,.1-.53v0a3.87,3.87,0,0,1,3.11-1.85h.15a7.42,7.42,0,0,1,1.86,0h.14A5.71,5.71,0,0,1,77.69,185.15Z"/><path class="cls-6" d="M78.94,184.43c2.39,1.38,2.41,3.62,0,5a9.52,9.52,0,0,1-8.63,0l1.25-.73.08,0,0,0,0,0,.06,0,.09,0,.08,0,.08,0,.08,0,.08,0h0l.05,0,0,0h0l.07,0a7.09,7.09,0,0,0,4.4,0l.08,0h0l0,0,.05,0h0l.06,0,.09,0,.08,0,.08,0,.08,0,.08,0,0,0,0,0,.06,0,.17-.1.07,0,.07,0a2,2,0,0,0,1-1.58,1.52,1.52,0,0,0-.1-.53v0a2.58,2.58,0,0,0-1.16-1.2Z"/><path class="cls-5" d="M78.94,184.43l-1.25.72a5.66,5.66,0,0,0-2-.65h-.15a7.42,7.42,0,0,0-1.86,0h-.14a5.64,5.64,0,0,0-2,.66,2.54,2.54,0,0,0-1.14,1.2v0a1.51,1.51,0,0,0-.1.53,2,2,0,0,0,1,1.58l.07,0,.07,0,.15.09-1.25.73c-2.39-1.38-2.4-3.62,0-5A9.5,9.5,0,0,1,78.94,184.43Z"/><path class="cls-5" d="M171.23,130.61l-1,.59c-.22-.13-.29-.33-.14-.5a1,1,0,0,1,1-.18A.7.7,0,0,1,171.23,130.61Z"/><path class="cls-6" d="M171.23,130.61c.22.13.29.33.14.49a1,1,0,0,1-1,.18.74.74,0,0,1-.17-.08Z"/><path class="cls-6" d="M173.43,134.43a.65.65,0,0,1,0,1.24,2.35,2.35,0,0,1-2.14,0l-4.39-2.53L169,131.9Z"/><path class="cls-5" d="M169,131.9l-2.13,1.24-4.39-2.53a.65.65,0,0,1,0-1.24,2.35,2.35,0,0,1,2.14,0Z"/><polygon class="cls-7" points="65.57 175.05 80.12 183.46 104.35 197.44 142.89 175.05 146.68 172.84 61.75 172.84 65.57 175.05"/><polygon class="cls-7" points="162.82 135.4 138.59 121.41 112.6 136.51 164.75 136.51 162.82 135.4"/><polygon class="cls-8" points="172.24 140.84 164.75 136.51 112.6 136.51 105.16 140.84 55.9 169.47 61.75 172.84 146.68 172.84 187.05 149.39 172.24 140.84"/><path class="cls-3" d="M197.59,75.74c-1.28-.74-2.32-.15-2.32,1.32a5.08,5.08,0,0,0,2.31,4c1.28.74,2.32.15,2.32-1.32a5.08,5.08,0,0,0-2.31-4"/><path class="cls-3" d="M197.59,65.28c-1.28-.74-2.32-.15-2.32,1.32a5.08,5.08,0,0,0,2.31,4c1.28.74,2.32.15,2.32-1.32a5.08,5.08,0,0,0-2.31-4"/><path class="cls-3" d="M197.59,54.81c-1.28-.74-2.32-.15-2.32,1.32a5.08,5.08,0,0,0,2.31,4c1.28.74,2.32.15,2.32-1.32a5.08,5.08,0,0,0-2.31-4"/><path class="cls-3" d="M210,89c-1.28-.74-2.32-.15-2.32,1.32a5.08,5.08,0,0,0,2.31,4c1.28.74,2.32.15,2.32-1.32A5.08,5.08,0,0,0,210,89"/><path class="cls-3" d="M210,78.58c-1.28-.74-2.32-.15-2.32,1.32a5.08,5.08,0,0,0,2.31,4c1.28.74,2.32.15,2.32-1.32a5.08,5.08,0,0,0-2.31-4"/><path class="cls-3" d="M232.76,172.79c-1.28-.74-2.32-.15-2.32,1.32a5.08,5.08,0,0,0,2.31,4c1.28.74,2.32.15,2.32-1.32a5.08,5.08,0,0,0-2.31-4"/><path class="cls-3" d="M232.76,163.78c-1.28-.74-2.32-.15-2.32,1.32a5.08,5.08,0,0,0,2.31,4c1.28.74,2.32.15,2.32-1.32a5.08,5.08,0,0,0-2.31-4"/><g class="cls-9"><polygon class="cls-10" points="228.68 148.68 231.24 147.19 225.05 155.9 222.49 157.38 228.68 148.68"/><path class="cls-11" d="M243.19,117.89l-36-20.79a3.64,3.64,0,0,0-3.67-.36l-2.56,1.49a3.64,3.64,0,0,1,3.67.36l36,20.79a11.33,11.33,0,0,1,5.13,8.9l-.07,24.3a3.61,3.61,0,0,1-1.5,3.3l2.56-1.49a3.61,3.61,0,0,0,1.5-3.3l.07-24.3A11.33,11.33,0,0,0,243.19,117.89Z"/><path class="cls-12" d="M240.63,119.38a11.33,11.33,0,0,1,5.13,8.9l-.07,24.3c0,3.27-2.33,4.59-5.17,2.95l-11.85-6.84-6.19,8.71-6.13-15.82-11.85-6.84a11.33,11.33,0,0,1-5.14-8.9l.07-24.3c0-3.27,2.33-4.59,5.17-2.95Z"/></g><path class="cls-4" d="M213.38,116.29A5.76,5.76,0,0,1,216.5,121a2.17,2.17,0,0,1-1.42,2.24l-1.94,1,3.62,2.09v1.83l-6.36-3.67V123l3.26-1.65a1.31,1.31,0,0,0,.88-1.28,2.33,2.33,0,0,0-1.34-2c-.72-.42-1.34-.45-1.75,0L210,116.16C210.68,115.44,211.86,115.41,213.38,116.29Z"/><polygon class="cls-4" points="223.39 122.23 219.69 125.93 221.95 127.23 221.96 125.42 223.8 126.49 223.79 128.3 225.16 129.09 225.16 130.91 223.79 130.12 223.78 132.16 221.88 131.06 221.89 129.03 217.35 126.41 217.36 124.9 221.34 121.05 223.39 122.23"/><path class="cls-4" d="M228,124.34v3.59a2.11,2.11,0,0,1,2.06.3,5.42,5.42,0,0,1,2.67,4.84v4.26l-1.88-1.08v-3.93a2.68,2.68,0,0,0-1.3-2.51c-.9-.52-1.55-.26-1.56,1.11v3.68l-1.88-1.08,0-10.25Z"/><g class="cls-9"><polygon class="cls-13" points="85.12 84.35 82.06 82.57 74.13 66.38 77.19 68.16 85.12 84.35"/><path class="cls-14" d="M107.42,2.74c3.87-2.23,7-.44,7,4l.09,31.8a15.39,15.39,0,0,1-7,12.09L92.94,59.07,85.12,84.35,77.19,68.16,62.58,76.6c-3.87,2.23-7,.44-7-4l-.09-31.8a15.39,15.39,0,0,1,7-12.09Z"/><path class="cls-13" d="M109.34.47c-1.27-.74-3-.64-5,.49l-45,26A15.39,15.39,0,0,0,52.4,39l.09,31.8c0,2.21.79,3.76,2,4.49l3.06,1.78c-1.26-.73-2-2.28-2-4.49l-.09-31.8a15.39,15.39,0,0,1,7-12.09l45-26c1.95-1.12,3.71-1.23,5-.49Z"/></g><path class="cls-15" d="M91.2,51.53c1-.59,1.74-.21,1.74.85a3.64,3.64,0,0,1-1.73,2.9c-1,.59-1.74.15-1.74-.89A3.54,3.54,0,0,1,91.2,51.53Z"/><path class="cls-15" d="M91,40.41c2.72-1.57,4.61-1.26,4.61,1.19,0,3.33-3,5.46-3,7.67l-2.73,1.58c0-2.91,2.82-5.19,2.81-7,0-1-.78-1.21-2-.53A6.55,6.55,0,0,0,88,46.37l-2.2-.21A12.14,12.14,0,0,1,91,40.41Z"/><g class="cls-16"><path class="cls-15" d="M70.73,49c1-.59,1.75-.22,1.75.85a3.65,3.65,0,0,1-1.74,2.9c-1,.58-1.74.15-1.74-.89A3.54,3.54,0,0,1,70.73,49Z"/><path class="cls-15" d="M70.49,37.91c2.72-1.57,4.61-1.26,4.62,1.19,0,3.33-3,5.47-3,7.67l-2.74,1.58c0-2.91,2.82-5.19,2.81-7,0-1-.78-1.22-2-.54a6.55,6.55,0,0,0-2.62,3.06l-2.2-.21A12.13,12.13,0,0,1,70.49,37.91Z"/></g><path class="cls-15" d="M99.28,20.12c2.72-1.57,4.61-1.26,4.61,1.19,0,3.33-3,5.46-3,7.67l-2.73,1.58c0-2.91,2.82-5.19,2.81-7,0-1-.78-1.21-2-.53a6.56,6.56,0,0,0-2.62,3.06l-2.2-.21A12.14,12.14,0,0,1,99.28,20.12Z"/><path class="cls-15" d="M99.51,31.24c1-.59,1.74-.21,1.74.85A3.64,3.64,0,0,1,99.52,35c-1,.59-1.74.15-1.74-.89A3.54,3.54,0,0,1,99.51,31.24Z"/><path class="cls-15" d="M81.3,50.19c1-.58,1.74-.21,1.74.85a3.64,3.64,0,0,1-1.73,2.9c-1,.59-1.75.15-1.75-.89A3.55,3.55,0,0,1,81.3,50.19Z"/><polygon class="cls-15" points="82.42 48.07 80.17 49.37 79.58 40.18 82.95 38.23 82.42 48.07"/><path class="cls-15" d="M88.93,29.55c1-.59,1.74-.21,1.74.85a3.64,3.64,0,0,1-1.73,2.9c-1,.59-1.74.15-1.74-.89A3.54,3.54,0,0,1,88.93,29.55Z"/><polygon class="cls-15" points="90.05 27.42 87.8 28.72 87.22 19.53 90.59 17.59 90.05 27.42"/><polygon class="cls-7" points="166.9 74.79 169.47 73.3 163.28 82.01 160.71 83.5 166.9 74.79"/><path class="cls-7" d="M181.42,44l-36-20.79a3.64,3.64,0,0,0-3.67-.36l-2.56,1.49a3.64,3.64,0,0,1,3.67.36l36,20.79a11.33,11.33,0,0,1,5.13,8.9l-.07,24.3a3.6,3.6,0,0,1-1.5,3.3L185,80.5a3.6,3.6,0,0,0,1.5-3.3l.07-24.3A11.33,11.33,0,0,0,181.42,44Z"/><path class="cls-17" d="M178.86,45.49a11.33,11.33,0,0,1,5.13,8.9l-.07,24.3c0,3.27-2.33,4.59-5.17,2.95L166.9,74.79l-6.19,8.71-6.13-15.82-11.85-6.84a11.33,11.33,0,0,1-5.14-8.9l.07-24.3c0-3.27,2.33-4.59,5.17-2.95Z"/><path class="cls-13" d="M172,54.51a3.26,3.26,0,0,1,1.48,2.56l0,9.49c0,.94-.67,1.32-1.49.85l-1.6-.92.9,4.82-2.84-5.94-10.24-5.91a3.26,3.26,0,0,1-1.48-2.56V53.25l0-5.85c0-.94.67-1.32,1.49-.84l4.35,2.51Z"/><path class="cls-4" d="M161.07,42.86a3.26,3.26,0,0,1,1.48,2.56v3.65l-4.35-2.51c-.83-.48-1.49-.1-1.49.84l0,5.85-5.89-3.4-2.87,2.64.93-3.76-1.59-.92a3.27,3.27,0,0,1-1.48-2.57l0-9.48c0-.94.67-1.32,1.49-.84Z"/><path class="cls-18" d="M38.44,72.17c1.56-.9,2.83-.18,2.84,1.62a6.2,6.2,0,0,1-2.82,4.88c-1.56.9-2.83.18-2.84-1.62A6.2,6.2,0,0,1,38.44,72.17Z"/><path class="cls-18" d="M38.44,60.12c1.56-.9,2.83-.18,2.84,1.62a6.2,6.2,0,0,1-2.82,4.88c-1.56.9-2.83.18-2.84-1.62A6.2,6.2,0,0,1,38.44,60.12Z"/><path class="cls-18" d="M17,180.69c1.56-.9,2.83-.18,2.84,1.62a6.2,6.2,0,0,1-2.82,4.88c-1.56.9-2.83.18-2.84-1.62A6.2,6.2,0,0,1,17,180.69Z"/><path class="cls-18" d="M17,168.63c1.56-.9,2.83-.18,2.84,1.62a6.2,6.2,0,0,1-2.82,4.88c-1.56.9-2.83.18-2.84-1.62A6.2,6.2,0,0,1,17,168.63Z"/><path class="cls-19" d="M24.69,92.59c1.56-.9,2.83-.18,2.84,1.62a6.2,6.2,0,0,1-2.82,4.88c-1.56.9-2.83.18-2.84-1.62A6.2,6.2,0,0,1,24.69,92.59Z"/><path class="cls-19" d="M24.69,80.53c1.56-.9,2.83-.18,2.84,1.62A6.2,6.2,0,0,1,24.71,87c-1.56.9-2.83.18-2.84-1.62A6.2,6.2,0,0,1,24.69,80.53Z"/><path class="cls-18" d="M38.44,48.06c1.56-.9,2.83-.18,2.84,1.62a6.2,6.2,0,0,1-2.82,4.88c-1.56.9-2.83.18-2.84-1.62A6.2,6.2,0,0,1,38.44,48.06Z"/><g class="cls-9"><polygon class="cls-7" points="32.72 170.94 29.66 169.16 21.73 152.97 24.79 154.75 32.72 170.94"/><path class="cls-20" d="M55,89.33c3.87-2.23,7-.44,7,4l.09,31.8a15.39,15.39,0,0,1-7,12.09l-14.61,8.44-7.82,25.28-7.93-16.19-14.61,8.44c-3.87,2.23-7,.44-7-4l-.09-31.8a15.39,15.39,0,0,1,7-12.09Z"/><path class="cls-7" d="M56.94,87.06c-1.27-.74-3-.64-5,.49l-45,26a15.39,15.39,0,0,0-7,12.09l.09,31.8c0,2.21.79,3.76,2,4.49l3.06,1.78c-1.26-.73-2-2.28-2-4.49l-.09-31.8a15.39,15.39,0,0,1,7-12.09l45-26c1.95-1.12,3.71-1.23,5-.49Z"/></g><path class="cls-4" d="M49.57,107.69c1.56-.9,2.83-.18,2.84,1.62a6.2,6.2,0,0,1-2.82,4.88c-1.56.9-2.83.18-2.84-1.62A6.2,6.2,0,0,1,49.57,107.69Z"/><path class="cls-4" d="M41.27,112.49c1.56-.9,2.83-.18,2.84,1.62A6.2,6.2,0,0,1,41.29,119c-1.56.9-2.83.18-2.84-1.62A6.2,6.2,0,0,1,41.27,112.49Z"/><path class="cls-4" d="M33,117.28c1.56-.9,2.83-.18,2.84,1.62A6.21,6.21,0,0,1,33,123.77c-1.56.9-2.83.18-2.84-1.62A6.2,6.2,0,0,1,33,117.28Z"/><path class="cls-4" d="M24.66,122.07c1.56-.9,2.83-.18,2.84,1.62a6.2,6.2,0,0,1-2.82,4.88c-1.56.9-2.83.18-2.84-1.62A6.2,6.2,0,0,1,24.66,122.07Z"/><path class="cls-4" d="M16.36,126.87c1.56-.9,2.83-.18,2.84,1.62a6.2,6.2,0,0,1-2.82,4.88c-1.56.9-2.83.18-2.84-1.62A6.2,6.2,0,0,1,16.36,126.87Z"/><path class="cls-21" d="M49.6,119c1.56-.9,2.83-.17,2.84,1.62a6.22,6.22,0,0,1-2.82,4.89c-1.56.9-2.83.17-2.84-1.62A6.21,6.21,0,0,1,49.6,119Z"/><path class="cls-21" d="M41.3,123.81c1.56-.9,2.83-.17,2.84,1.62a6.22,6.22,0,0,1-2.82,4.89c-1.56.9-2.83.17-2.84-1.62A6.21,6.21,0,0,1,41.3,123.81Z"/><path class="cls-21" d="M33,128.6c1.56-.9,2.83-.17,2.84,1.62A6.23,6.23,0,0,1,33,135.1c-1.56.9-2.83.17-2.84-1.62A6.21,6.21,0,0,1,33,128.6Z"/><path class="cls-21" d="M24.69,133.39c1.56-.9,2.83-.17,2.84,1.62a6.22,6.22,0,0,1-2.82,4.89c-1.56.9-2.83.17-2.84-1.62A6.21,6.21,0,0,1,24.69,133.39Z"/><path class="cls-21" d="M16.39,138.18c1.56-.9,2.83-.17,2.84,1.62a6.22,6.22,0,0,1-2.82,4.89c-1.56.9-2.83.17-2.84-1.62A6.21,6.21,0,0,1,16.39,138.18Z"/><g id="_Group_" data-name="&lt;Group&gt;"><g id="_Group_2" data-name="&lt;Group&gt;"><g id="_Group_3" data-name="&lt;Group&gt;"><g id="_Group_4" data-name="&lt;Group&gt;"><rect id="_Path_" data-name="&lt;Path&gt;" class="cls-22" x="108.28" y="132.24" width="14.65" height="30.4"/></g><g id="_Group_5" data-name="&lt;Group&gt;"><polygon class="cls-23" points="122.93 139.41 112.72 135.69 112.72 115.18 122.93 115.18 122.93 135.06 122.93 139.41"/></g><g id="_Group_6" data-name="&lt;Group&gt;"><polygon id="_Path_2" data-name="&lt;Path&gt;" class="cls-24" points="121.53 146.31 116.63 156.47 120.62 162.64 122.93 162.64 122.93 135.06 117.83 142.68 121.53 146.31"/></g><g id="_Group_7" data-name="&lt;Group&gt;"><polygon id="_Path_3" data-name="&lt;Path&gt;" class="cls-25" points="110.73 129.43 122.93 135.06 117.83 144.22 108.28 132.24 110.73 129.43"/></g><g id="_Group_8" data-name="&lt;Group&gt;"><path id="_Path_4" data-name="&lt;Path&gt;" class="cls-26" d="M84,162.64h39l-17.85-25.32h-3.65C84,137.32,84,162.64,84,162.64Z"/></g><g id="_Group_9" data-name="&lt;Group&gt;"><polygon id="_Path_5" data-name="&lt;Path&gt;" class="cls-27" points="101.2 136.82 108.28 132.24 122.93 162.64 106.46 149.12 110 144.22 103.47 145.04 101.2 136.82"/></g></g><g id="_Group_10" data-name="&lt;Group&gt;"><g id="_Group_11" data-name="&lt;Group&gt;"><rect id="_Path_6" data-name="&lt;Path&gt;" class="cls-28" x="122.93" y="132.24" width="14.65" height="30.4"/></g><g id="_Group_12" data-name="&lt;Group&gt;"><polygon class="cls-29" points="122.93 139.41 133.13 135.69 133.13 115.18 122.93 115.18 122.93 135.06 122.93 139.41"/></g><g id="_Group_13" data-name="&lt;Group&gt;"><polygon id="_Path_7" data-name="&lt;Path&gt;" class="cls-30" points="124.33 146.31 129.23 156.47 125.24 162.64 122.93 162.64 122.93 135.06 128.03 142.68 124.33 146.31"/></g><g id="_Group_14" data-name="&lt;Group&gt;"><polygon id="_Path_8" data-name="&lt;Path&gt;" class="cls-31" points="135.13 129.43 122.93 135.06 128.03 144.22 137.58 132.24 135.13 129.43"/></g><g id="_Group_15" data-name="&lt;Group&gt;"><path id="_Path_9" data-name="&lt;Path&gt;" class="cls-32" d="M161.9,162.64h-39l17.85-25.32h3.65C160.5,137.32,161.9,162.64,161.9,162.64Z"/></g><g id="_Group_16" data-name="&lt;Group&gt;"><polygon id="_Path_10" data-name="&lt;Path&gt;" class="cls-33" points="144.66 136.82 137.58 132.24 122.93 162.64 139.4 149.12 135.86 144.22 142.39 145.04 144.66 136.82"/></g></g><g id="_Group_17" data-name="&lt;Group&gt;"><path class="cls-34" d="M107.84,100.71l-.37-.16c-2-.86-2.51-1-2.37,3.56,0,0,0,8.17,3,8.58a13.44,13.44,0,0,0,1.25,3.58c3,5.43,8.21,11.67,13.57,11.67V88.73C106.33,86.69,109.44,93.85,107.84,100.71Z"/></g><g id="_Group_18" data-name="&lt;Group&gt;"><path class="cls-23" d="M138,100.71l.37-.16c2-.86,2.51-1,2.37,3.56,0,0,0,8.17-3,8.58a13.42,13.42,0,0,1-1.25,3.58c-3,5.43-8.21,11.67-13.57,11.67V88.73C139.53,86.69,136.42,93.85,138,100.71Z"/></g><g id="_Group_19" data-name="&lt;Group&gt;"><path class="cls-30" d="M119.62,80.43a14.57,14.57,0,0,0-5.27.9c-11.27,4.36-6.85,19.59-6.51,23.69.09,1,.6-6.33,1.48-10.3.55-2.48,3.84-3,5.94-1.59,3.18,2.13,7.66,1.59,7.66,1.59V80.43Z"/></g><g id="_Group_20" data-name="&lt;Group&gt;"><path class="cls-30" d="M126.24,80.43a14.57,14.57,0,0,1,5.27.9c11.27,4.36,6.85,19.59,6.51,23.69-.09,1-.6-6.33-1.48-10.3-.55-2.48-3.84-3-5.94-1.59-3.18,2.13-7.67,1.59-7.67,1.59V80.43Z"/></g></g><g id="_Group_21" data-name="&lt;Group&gt;"><g id="_Group_22" data-name="&lt;Group&gt;"><path id="_Path_11" data-name="&lt;Path&gt;" class="cls-35" d="M133.68,121.21h-9.12v-1.33h9.12a4.85,4.85,0,0,0,4.57-3.23l1.62-4.59,1.25.44-1.62,4.59A6.19,6.19,0,0,1,133.68,121.21Z"/></g><g id="_Group_23" data-name="&lt;Group&gt;"><g id="_Group_24" data-name="&lt;Group&gt;"><path class="cls-36" d="M125.9,122.76H128a2.21,2.21,0,0,0,2.22-2.21h-6.57A2.21,2.21,0,0,0,125.9,122.76Z"/></g><g id="_Group_25" data-name="&lt;Group&gt;"><path class="cls-35" d="M128,118.33H125.9a2.22,2.22,0,0,0-2.22,2.22h6.57A2.22,2.22,0,0,0,128,118.33Z"/></g></g><g id="_Group_26" data-name="&lt;Group&gt;"><g id="_Group_27" data-name="&lt;Group&gt;"><g id="_Group_28" data-name="&lt;Group&gt;"><g id="_Group_29" data-name="&lt;Group&gt;"><path class="cls-35" d="M121.4,75.12a17.61,17.61,0,0,0-17.54,17.63v3h2.55v-3a15,15,0,0,1,15-15.07h1.53V75.12Z"/></g><g id="_Group_30" data-name="&lt;Group&gt;"><path class="cls-37" d="M124.46,75.12h-1.53v2.56h1.53a15,15,0,0,1,15,15.07v3H142v-3A17.61,17.61,0,0,0,124.46,75.12Z"/></g></g><g id="_Group_31" data-name="&lt;Group&gt;"><g id="_Group_32" data-name="&lt;Group&gt;"><path id="_Path_12" data-name="&lt;Path&gt;" class="cls-38" d="M146.16,96a5.36,5.36,0,0,0-3.5-1.79,4.22,4.22,0,0,0-2.16,0v19.25a4.22,4.22,0,0,0,2.16,0,5.36,5.36,0,0,0,3.5-1.79C147.48,110,147.48,97.68,146.16,96Z"/></g><g id="_Group_33" data-name="&lt;Group&gt;"><path id="_Path_13" data-name="&lt;Path&gt;" class="cls-35" d="M137.86,98v11.7a3.7,3.7,0,0,0,2.64,3.77V94.24A3.7,3.7,0,0,0,137.86,98Z"/></g><g id="_Group_34" data-name="&lt;Group&gt;"><path id="_Path_14" data-name="&lt;Path&gt;" class="cls-38" d="M103.19,94.24A5.37,5.37,0,0,0,99.69,96c-1.32,1.65-1.32,14,0,15.66a5.36,5.36,0,0,0,3.5,1.79,4.21,4.21,0,0,0,2.16,0V94.24A4.22,4.22,0,0,0,103.19,94.24Z"/></g><g id="_Group_35" data-name="&lt;Group&gt;"><path class="cls-37" d="M105.36,94.24v19.25a3.7,3.7,0,0,0,2.64-3.77V98A3.7,3.7,0,0,0,105.36,94.24Z"/></g></g></g></g></g></g></g></g></svg>