<svg xmlns="http://www.w3.org/2000/svg" viewBox="0 0 280.43 79.72"><defs><style>.cls-1{fill:#f89c1f;}.cls-2{fill:#fff;}</style></defs><title>Asset 10</title><g id="Layer_2" data-name="Layer 2"><g id="Layer_1-2" data-name="Layer 1"><circle class="cls-1" cx="39.86" cy="39.86" r="39.86"/><path class="cls-2" d="M66.86,39.74v2.58A3.62,3.62,0,0,1,63.24,46H26.38a15.25,15.25,0,0,0,14.23,9.51,24.26,24.26,0,0,0,2.87-.19l.47-.06A3.62,3.62,0,0,1,48,58.82v3.56A3.62,3.62,0,0,1,44.76,66l-.38,0a35.87,35.87,0,0,1-3.76.2A26.25,26.25,0,1,1,66.86,39.7ZM55.27,35.2a15.35,15.35,0,0,0-29.32,0Z"/><path class="cls-2" d="M94.89,18.23h9.24V51.84h20.95v8.4H94.89Z"/><path class="cls-2" d="M128.93,44.34v-.12c0-9.24,7.44-16.74,17.47-16.74s17.35,7.38,17.35,16.62v.12c0,9.24-7.44,16.75-17.47,16.75S128.93,53.58,128.93,44.34Zm25.81,0v-.12c0-4.74-3.42-8.88-8.46-8.88-5.22,0-8.34,4-8.34,8.76v.12c0,4.74,3.42,8.88,8.46,8.88C151.61,53.1,154.73,49.08,154.73,44.34Z"/><path class="cls-2" d="M170.34,28.07h9.12v6.48c1.86-4.44,4.86-7.32,10.26-7.08V37h-.48c-6.06,0-9.78,3.66-9.78,11.34V60.24h-9.12Z"/><path class="cls-2" d="M193,44.34v-.12c0-9.18,6.54-16.74,15.9-16.74,10.74,0,15.66,8.34,15.66,17.47,0,.72-.06,1.56-.12,2.4H202a7.46,7.46,0,0,0,7.86,6.3,10.54,10.54,0,0,0,7.8-3.3L222.92,55a16.09,16.09,0,0,1-13.14,6C200.12,61,193,54.18,193,44.34Zm22.69-2.7c-.54-4.08-2.94-6.84-6.78-6.84s-6.24,2.7-7,6.84Z"/><path class="cls-2" d="M231.33,28.07h9.12v4.56c2.1-2.7,4.86-5.16,9.48-5.16,4.2,0,7.38,1.86,9.06,5.1a13.25,13.25,0,0,1,10.56-5.1c6.78,0,10.86,4.08,10.86,11.82V60.24H271.3V42.3c0-4.32-1.92-6.54-5.34-6.54s-5.52,2.22-5.52,6.54V60.24h-9.12V42.3c0-4.32-1.92-6.54-5.34-6.54s-5.52,2.22-5.52,6.54V60.24h-9.12Z"/></g></g></svg>