<svg xmlns="http://www.w3.org/2000/svg" viewBox="0 0 49.81 49.81"><defs><style>.cls-1{fill:#32baa4;}.cls-2{fill:#f69c21;}</style></defs><title>Asset 11</title><g id="Layer_2" data-name="Layer 2"><g id="Layer_1-2" data-name="Layer 1"><path class="cls-1" d="M44.5,39.7a4.46,4.46,0,0,0,.85-2.62V31.23a1,1,0,0,0-1-1H40a3.65,3.65,0,0,0-3.65,3.65v3.17a4.46,4.46,0,0,0,.85,2.62,6.26,6.26,0,0,0-1.9.63,8.28,8.28,0,0,0-6.11-3.64h0a5.72,5.72,0,0,0,1.47-3.83V24.91a1,1,0,0,0-1-1H23.77a4.61,4.61,0,0,0-4.61,4.61v4.31a5.72,5.72,0,0,0,1.47,3.83h0a8.28,8.28,0,0,0-6.11,3.64,6.27,6.27,0,0,0-1.9-.63,4.46,4.46,0,0,0,.85-2.62V31.23a1,1,0,0,0-1-1H8.11A3.65,3.65,0,0,0,4.47,33.9v3.17a4.46,4.46,0,0,0,.85,2.62A6.35,6.35,0,0,0,0,46v2.88a1,1,0,0,0,1,1H48.84a1,1,0,0,0,1-1V46A6.35,6.35,0,0,0,44.5,39.7Zm-1.1-2.62a2.54,2.54,0,0,1-5.07,0v-.69h4a3,3,0,0,0,1.05-.19v.88Zm-1.91,4.48-.63.63-.63-.63ZM38.33,33.9A1.7,1.7,0,0,1,40,32.2H43.4v1.18a1.05,1.05,0,0,1-1.05,1.05h-4ZM21.11,31.57h5.81a3.7,3.7,0,0,0,1.78-.45v1.74a3.8,3.8,0,0,1-7.6,0V31.57Zm5.49,7-1.7,1.7-1.7-1.7ZM21.11,28.54a2.66,2.66,0,0,1,2.66-2.66h4.94v2a1.78,1.78,0,0,1-1.78,1.78H21.11V28.54Zm-9.62,8.54a2.54,2.54,0,0,1-5.07,0v-.69h4a3,3,0,0,0,1.05-.19ZM9.58,41.56,9,42.19l-.63-.63ZM6.41,33.9a1.7,1.7,0,0,1,1.7-1.7h3.38v1.18a1.05,1.05,0,0,1-1.05,1.05h-4ZM1.95,46a4.4,4.4,0,0,1,3.68-4.34l2.63,2.63a1,1,0,0,0,1.38,0l2.63-2.63a4.35,4.35,0,0,1,1.33.44,8.23,8.23,0,0,0-.51,2.86v2.94H1.95Zm30.94,1.91H15V45.92h6.34a1,1,0,1,0,0-1.95H15.11a6.34,6.34,0,0,1,5.41-5.32l3.7,3.7a1,1,0,0,0,1.38,0l3.7-3.7a6.34,6.34,0,0,1,5.48,6.27v2.94Zm15,0H36.72V44.92a8.23,8.23,0,0,0-.51-2.86,4.34,4.34,0,0,1,1.33-.44l2.63,2.63a1,1,0,0,0,1.38,0l2.63-2.63A4.4,4.4,0,0,1,47.87,46v1.91Z"/><path class="cls-2" d="M20.11,9.07a1,1,0,0,0,0,1.38l2.75,2.75a1,1,0,0,0,1.38,0L29.7,7.73a1,1,0,0,0-1.38-1.38l-4.77,4.77L21.49,9.07A1,1,0,0,0,20.11,9.07Z"/><path class="cls-2" d="M24.91,19.55a9.78,9.78,0,0,0,4-18.71,1,1,0,0,0-.79,1.78,7.83,7.83,0,1,1-6.4,0,1,1,0,0,0-.8-1.77,9.78,9.78,0,0,0,4,18.69Z"/><path class="cls-2" d="M24.91,1.95h0a1,1,0,0,0,0-1.95h0a1,1,0,0,0,0,1.95Z"/><path class="cls-1" d="M24.91,44a1,1,0,1,0,.69.29A1,1,0,0,0,24.91,44Z"/></g></g></svg>