<svg xmlns="http://www.w3.org/2000/svg" viewBox="0 0 52.89 52.89"><defs><style>.cls-1{fill:#32baa4;}.cls-2{fill:#ffb068;}</style></defs><title>Asset 13</title><g id="Layer_2" data-name="Layer 2"><g id="Layer_1-2" data-name="Layer 1"><path class="cls-1" d="M26.45,0A26.45,26.45,0,1,0,52.89,26.45,26.48,26.48,0,0,0,26.45,0Zm0,50.69A24.24,24.24,0,1,1,50.69,26.45,24.27,24.27,0,0,1,26.45,50.69Zm0,0"/><path class="cls-1" d="M45.18,21.49h-3a16.25,16.25,0,0,0-1.11-2.67L43.2,16.7a2.2,2.2,0,0,0,0-3.11l-3.9-3.9a2.2,2.2,0,0,0-3.11,0L34.08,11.8a16.31,16.31,0,0,0-2.67-1.11v-3a2.21,2.21,0,0,0-2.2-2.2H23.69a2.21,2.21,0,0,0-2.2,2.2v3a16.25,16.25,0,0,0-2.67,1.11L16.7,9.69a2.2,2.2,0,0,0-3.11,0l-3.9,3.9a2.2,2.2,0,0,0,0,3.11l2.11,2.11a16.31,16.31,0,0,0-1.11,2.67h-3a2.21,2.21,0,0,0-2.2,2.2V29.2a2.21,2.21,0,0,0,2.2,2.2h3a16.3,16.3,0,0,0,1.11,2.67L9.69,36.19a2.2,2.2,0,0,0,0,3.11l3.9,3.9a2.2,2.2,0,0,0,3.11,0l2.11-2.11a16.34,16.34,0,0,0,2.67,1.11v3a2.21,2.21,0,0,0,2.2,2.2H29.2a2.21,2.21,0,0,0,2.2-2.2v-3a16.25,16.25,0,0,0,2.67-1.11l2.11,2.11a2.2,2.2,0,0,0,3.11,0l3.9-3.9a2.2,2.2,0,0,0,0-3.11l-2.11-2.11A16.31,16.31,0,0,0,42.2,31.4h3a2.21,2.21,0,0,0,2.2-2.2V23.69a2.21,2.21,0,0,0-2.2-2.2Zm0,7.71H41.36A1.1,1.1,0,0,0,40.3,30a14,14,0,0,1-1.52,3.68A1.1,1.1,0,0,0,38.94,35l2.7,2.69-3.9,3.9L35,38.94a1.1,1.1,0,0,0-1.34-.17A14.08,14.08,0,0,1,30,40.3a1.1,1.1,0,0,0-.83,1.07v3.81H23.69V41.36a1.1,1.1,0,0,0-.83-1.07,14.06,14.06,0,0,1-3.68-1.52,1.1,1.1,0,0,0-1.34.17l-2.69,2.7-3.9-3.9,2.7-2.7a1.1,1.1,0,0,0,.17-1.34A14.08,14.08,0,0,1,12.59,30a1.1,1.1,0,0,0-1.07-.83H7.71V23.69h3.81a1.1,1.1,0,0,0,1.07-.83,14.06,14.06,0,0,1,1.52-3.68,1.1,1.1,0,0,0-.17-1.34l-2.7-2.69,3.9-3.9,2.7,2.7a1.1,1.1,0,0,0,1.34.17,14.08,14.08,0,0,1,3.68-1.52,1.1,1.1,0,0,0,.83-1.07V7.71H29.2v3.81A1.1,1.1,0,0,0,30,12.59a14.06,14.06,0,0,1,3.68,1.52A1.1,1.1,0,0,0,35,13.95l2.69-2.7,3.9,3.9-2.7,2.7a1.1,1.1,0,0,0-.17,1.34,14.08,14.08,0,0,1,1.52,3.68,1.1,1.1,0,0,0,1.07.83h3.81Zm0,0"/><path class="cls-2" d="M36.54,32.23l-4.41-3.86L30.68,30,32.88,32H26.45a5.52,5.52,0,0,1-5.51-5.51h-2.2a7.72,7.72,0,0,0,7.71,7.71h6.43l-2.2,1.93,1.45,1.66,4.41-3.86a1.1,1.1,0,0,0,0-1.66Zm0,0"/><path class="cls-2" d="M22.21,22.86,20,20.94h6.43A5.52,5.52,0,0,1,32,26.45h2.2a7.72,7.72,0,0,0-7.71-7.71H20l2.2-1.93-1.45-1.66L16.35,19a1.1,1.1,0,0,0,0,1.66l4.41,3.86Zm0,0"/></g></g></svg>