<svg xmlns="http://www.w3.org/2000/svg" viewBox="0 0 53.85 67.31"><defs><style>.cls-1{fill:#f69c21;}.cls-2{fill:#32baa4;}</style></defs><title>Asset 12</title><g id="Layer_2" data-name="Layer 2"><g id="Layer_1-2" data-name="Layer 1"><path class="cls-1" d="M38.74,24.76H36.85a10.32,10.32,0,0,0-.7-1.7l1.34-1.34a1.4,1.4,0,0,0,0-2L35,17.27a1.4,1.4,0,0,0-2,0l-1.34,1.34a10.36,10.36,0,0,0-1.7-.7V16a1.4,1.4,0,0,0-1.4-1.4H25.1A1.4,1.4,0,0,0,23.7,16v1.89a10.32,10.32,0,0,0-1.7.7l-1.34-1.34a1.4,1.4,0,0,0-2,0l-2.48,2.48a1.4,1.4,0,0,0,0,2l1.34,1.34a10.36,10.36,0,0,0-.7,1.7H15a1.4,1.4,0,0,0-1.4,1.4v3.5a1.4,1.4,0,0,0,1.4,1.4h1.89a10.35,10.35,0,0,0,.7,1.7L16.21,34.1a1.4,1.4,0,0,0,0,2l2.48,2.48a1.4,1.4,0,0,0,2,0L22,37.21a10.37,10.37,0,0,0,1.7.7V39.8a1.4,1.4,0,0,0,1.4,1.4h3.5A1.4,1.4,0,0,0,30,39.8V37.91a10.32,10.32,0,0,0,1.7-.7L33,38.55a1.4,1.4,0,0,0,2,0l2.48-2.48a1.4,1.4,0,0,0,0-2l-1.34-1.34a10.36,10.36,0,0,0,.7-1.7h1.89a1.4,1.4,0,0,0,1.4-1.4v-3.5a1.4,1.4,0,0,0-1.4-1.4Zm0,4.9H36.32a.7.7,0,0,0-.68.52,8.91,8.91,0,0,1-1,2.34.7.7,0,0,0,.11.85l1.71,1.71L34,37.56l-1.71-1.71a.7.7,0,0,0-.85-.11,8.94,8.94,0,0,1-2.34,1,.7.7,0,0,0-.53.68V39.8H25.1V37.38a.7.7,0,0,0-.53-.68,8.93,8.93,0,0,1-2.34-1,.7.7,0,0,0-.85.11l-1.71,1.71L17.2,35.09l1.71-1.71a.7.7,0,0,0,.11-.85,8.94,8.94,0,0,1-1-2.34.7.7,0,0,0-.68-.53H15v-3.5h2.42a.7.7,0,0,0,.68-.52,8.92,8.92,0,0,1,1-2.34.7.7,0,0,0-.11-.85L17.2,20.74l2.47-2.48L21.39,20a.7.7,0,0,0,.85.11,8.94,8.94,0,0,1,2.34-1,.7.7,0,0,0,.53-.68V16h3.5v2.42a.7.7,0,0,0,.52.68,8.92,8.92,0,0,1,2.34,1,.7.7,0,0,0,.85-.11L34,18.26l2.48,2.47-1.71,1.71a.7.7,0,0,0-.11.85,8.94,8.94,0,0,1,1,2.34.7.7,0,0,0,.68.53h2.42Zm0,0"/><path class="cls-1" d="M33.25,31.58l-2.8-2.45-.92,1.05,1.4,1.22H26.85a3.5,3.5,0,0,1-3.5-3.5H22a4.9,4.9,0,0,0,4.9,4.9h4.08L29.53,34l.92,1.05,2.8-2.45a.7.7,0,0,0,0-1.05Zm0,0"/><path class="cls-1" d="M24.16,25.63l-1.4-1.22h4.08a3.5,3.5,0,0,1,3.5,3.5h1.4a4.9,4.9,0,0,0-4.9-4.9H22.76l1.4-1.22-.92-1.05-2.8,2.45a.7.7,0,0,0,0,1.05l2.8,2.45Zm0,0"/><path class="cls-2" d="M4.26,25.94H1a1,1,0,1,0,0,2H4.26a1,1,0,1,0,0-2Z"/><path class="cls-2" d="M52.86,25.94H49.59a1,1,0,1,0,0,2h3.27a1,1,0,0,0,0-2Z"/><path class="cls-2" d="M10.2,42.25,7.89,44.57A1,1,0,0,0,9.28,46l2.31-2.31a1,1,0,1,0-1.39-1.39Z"/><path class="cls-2" d="M43.65,11.59,46,9.28a1,1,0,0,0-1.39-1.39L42.25,10.2a1,1,0,0,0,1.39,1.39Z"/><path class="cls-2" d="M26.92,5.24a1,1,0,0,0,1-1V1a1,1,0,0,0-2,0V4.26A1,1,0,0,0,26.92,5.24Z"/><path class="cls-2" d="M43.65,42.25a1,1,0,1,0-1.39,1.39L44.57,46A1,1,0,0,0,46,44.57Z"/><path class="cls-2" d="M10.2,11.59a1,1,0,0,0,1.39-1.39L9.28,7.89A1,1,0,0,0,7.89,9.28Z"/><path class="cls-2" d="M29.34,7.18a1,1,0,1,0-.24,2,17.76,17.76,0,0,1,15.53,15.6,1,1,0,0,0,1,.87h.12a1,1,0,0,0,.86-1.09A19.83,19.83,0,0,0,29.34,7.18Z"/><path class="cls-2" d="M45.72,28.25a1,1,0,0,0-1.1.85A17.77,17.77,0,0,1,36.39,42a6.63,6.63,0,0,0-3.13,5.64v4.06H20.59V47.5a6.49,6.49,0,0,0-3-5.49A17.84,17.84,0,0,1,24.74,9.14a1,1,0,1,0-.24-2,19.81,19.81,0,0,0-8,36.51,4.51,4.51,0,0,1,2.1,3.81V51.8a2.57,2.57,0,0,0-1.73,2.42v1.41a2.55,2.55,0,0,0,.55,1.58,2.55,2.55,0,0,0-.55,1.58v1.41a2.57,2.57,0,0,0,2.56,2.56h3.1V65a2.33,2.33,0,0,0,2.33,2.33H29A2.33,2.33,0,0,0,31.29,65V62.74h3.1A2.57,2.57,0,0,0,37,60.18V58.78a2.55,2.55,0,0,0-.55-1.58A2.55,2.55,0,0,0,37,55.62V54.22a2.57,2.57,0,0,0-1.73-2.42v-4.2a4.67,4.67,0,0,1,2.21-4,19.73,19.73,0,0,0,9.13-14.27A1,1,0,0,0,45.72,28.25ZM34.39,53.62h0a.6.6,0,0,1,.59.59v1.41a.6.6,0,0,1-.59.59H19.45a.6.6,0,0,1-.59-.59V54.22a.6.6,0,0,1,.59-.59H34.39ZM29.32,65a.36.36,0,0,1-.36.36H24.89a.36.36,0,0,1-.36-.36V62.74h4.79V65ZM35,60.18a.6.6,0,0,1-.59.59H19.45a.6.6,0,0,1-.59-.59V58.78a.6.6,0,0,1,.59-.59H34.39a.6.6,0,0,1,.59.59Z"/></g></g></svg>